<?xml version="1.0" encoding="UTF-8"?>
<svg xmlns="http://www.w3.org/2000/svg" xmlns:xlink="http://www.w3.org/1999/xlink" width="450.000318" height="379.759528" viewBox="0 0 450.000318 379.759528">
<defs>
<clipPath id="clip-0">
<path clip-rule="nonzero" d="M 0 0.300781 L 449.003906 0.300781 L 449.003906 378.460938 L 0 378.460938 Z M 0 0.300781 "/>
</clipPath>
<clipPath id="clip-1">
<path clip-rule="nonzero" d="M 74.832031 0.300781 L 374.167969 0.300781 C 415.628906 0.300781 449.003906 33.675781 449.003906 75.132812 L 449.003906 304.382812 C 449.003906 345.84375 415.628906 379.21875 374.167969 379.21875 L 74.832031 379.21875 C 33.375 379.21875 0 345.84375 0 304.382812 L 0 75.132812 C 0 33.675781 33.375 0.300781 74.832031 0.300781 Z M 74.832031 0.300781 "/>
</clipPath>
<clipPath id="clip-2">
<path clip-rule="nonzero" d="M 44 91 L 405 91 L 405 289 L 44 289 Z M 44 91 "/>
</clipPath>
<clipPath id="clip-3">
<path clip-rule="nonzero" d="M 74.832031 0.300781 L 374.167969 0.300781 C 415.628906 0.300781 449.003906 33.675781 449.003906 75.132812 L 449.003906 304.382812 C 449.003906 345.84375 415.628906 379.21875 374.167969 379.21875 L 74.832031 379.21875 C 33.375 379.21875 0 345.84375 0 304.382812 L 0 75.132812 C 0 33.675781 33.375 0.300781 74.832031 0.300781 Z M 74.832031 0.300781 "/>
</clipPath>
<clipPath id="clip-4">
<path clip-rule="nonzero" d="M 40 87 L 409 87 L 409 293 L 40 293 Z M 40 87 "/>
</clipPath>
<clipPath id="clip-5">
<path clip-rule="nonzero" d="M 74.832031 0.300781 L 374.167969 0.300781 C 415.628906 0.300781 449.003906 33.675781 449.003906 75.132812 L 449.003906 304.382812 C 449.003906 345.84375 415.628906 379.21875 374.167969 379.21875 L 74.832031 379.21875 C 33.375 379.21875 0 345.84375 0 304.382812 L 0 75.132812 C 0 33.675781 33.375 0.300781 74.832031 0.300781 Z M 74.832031 0.300781 "/>
</clipPath>
<clipPath id="clip-6">
<path clip-rule="nonzero" d="M 0 0.300781 L 34 0.300781 L 34 30 L 0 30 Z M 0 0.300781 "/>
</clipPath>
<clipPath id="clip-7">
<path clip-rule="nonzero" d="M 74.832031 0.300781 L 374.167969 0.300781 C 415.628906 0.300781 449.003906 33.675781 449.003906 75.132812 L 449.003906 304.382812 C 449.003906 345.84375 415.628906 379.21875 374.167969 379.21875 L 74.832031 379.21875 C 33.375 379.21875 0 345.84375 0 304.382812 L 0 75.132812 C 0 33.675781 33.375 0.300781 74.832031 0.300781 Z M 74.832031 0.300781 "/>
</clipPath>
<clipPath id="clip-8">
<path clip-rule="nonzero" d="M 0 0.300781 L 254 0.300781 L 254 164 L 0 164 Z M 0 0.300781 "/>
</clipPath>
<clipPath id="clip-9">
<path clip-rule="nonzero" d="M 74.832031 0.300781 L 374.167969 0.300781 C 415.628906 0.300781 449.003906 33.675781 449.003906 75.132812 L 449.003906 304.382812 C 449.003906 345.84375 415.628906 379.21875 374.167969 379.21875 L 74.832031 379.21875 C 33.375 379.21875 0 345.84375 0 304.382812 L 0 75.132812 C 0 33.675781 33.375 0.300781 74.832031 0.300781 Z M 74.832031 0.300781 "/>
</clipPath>
<clipPath id="clip-10">
<path clip-rule="nonzero" d="M 0 0.300781 L 49 0.300781 L 49 41 L 0 41 Z M 0 0.300781 "/>
</clipPath>
<clipPath id="clip-11">
<path clip-rule="nonzero" d="M 74.832031 0.300781 L 374.167969 0.300781 C 415.628906 0.300781 449.003906 33.675781 449.003906 75.132812 L 449.003906 304.382812 C 449.003906 345.84375 415.628906 379.21875 374.167969 379.21875 L 74.832031 379.21875 C 33.375 379.21875 0 345.84375 0 304.382812 L 0 75.132812 C 0 33.675781 33.375 0.300781 74.832031 0.300781 Z M 74.832031 0.300781 "/>
</clipPath>
<clipPath id="clip-12">
<path clip-rule="nonzero" d="M 0 0.300781 L 23 0.300781 L 23 19 L 0 19 Z M 0 0.300781 "/>
</clipPath>
<clipPath id="clip-13">
<path clip-rule="nonzero" d="M 74.832031 0.300781 L 374.167969 0.300781 C 415.628906 0.300781 449.003906 33.675781 449.003906 75.132812 L 449.003906 304.382812 C 449.003906 345.84375 415.628906 379.21875 374.167969 379.21875 L 74.832031 379.21875 C 33.375 379.21875 0 345.84375 0 304.382812 L 0 75.132812 C 0 33.675781 33.375 0.300781 74.832031 0.300781 Z M 74.832031 0.300781 "/>
</clipPath>
<clipPath id="clip-14">
<path clip-rule="nonzero" d="M 32 75 L 449.003906 75 L 449.003906 378.460938 L 32 378.460938 Z M 32 75 "/>
</clipPath>
<clipPath id="clip-15">
<path clip-rule="nonzero" d="M 74.832031 0.300781 L 374.167969 0.300781 C 415.628906 0.300781 449.003906 33.675781 449.003906 75.132812 L 449.003906 304.382812 C 449.003906 345.84375 415.628906 379.21875 374.167969 379.21875 L 74.832031 379.21875 C 33.375 379.21875 0 345.84375 0 304.382812 L 0 75.132812 C 0 33.675781 33.375 0.300781 74.832031 0.300781 Z M 74.832031 0.300781 "/>
</clipPath>
<clipPath id="clip-16">
<path clip-rule="nonzero" d="M 280 148 L 363 148 L 363 243 L 280 243 Z M 280 148 "/>
</clipPath>
<clipPath id="clip-17">
<path clip-rule="nonzero" d="M 74.832031 0.300781 L 374.167969 0.300781 C 415.628906 0.300781 449.003906 33.675781 449.003906 75.132812 L 449.003906 304.382812 C 449.003906 345.84375 415.628906 379.21875 374.167969 379.21875 L 74.832031 379.21875 C 33.375 379.21875 0 345.84375 0 304.382812 L 0 75.132812 C 0 33.675781 33.375 0.300781 74.832031 0.300781 Z M 74.832031 0.300781 "/>
</clipPath>
<clipPath id="clip-18">
<path clip-rule="nonzero" d="M 82 149 L 166 149 L 166 244 L 82 244 Z M 82 149 "/>
</clipPath>
<clipPath id="clip-19">
<path clip-rule="nonzero" d="M 74.832031 0.300781 L 374.167969 0.300781 C 415.628906 0.300781 449.003906 33.675781 449.003906 75.132812 L 449.003906 304.382812 C 449.003906 345.84375 415.628906 379.21875 374.167969 379.21875 L 74.832031 379.21875 C 33.375 379.21875 0 345.84375 0 304.382812 L 0 75.132812 C 0 33.675781 33.375 0.300781 74.832031 0.300781 Z M 74.832031 0.300781 "/>
</clipPath>
<clipPath id="clip-20">
<path clip-rule="nonzero" d="M 182 179 L 265 179 L 265 272 L 182 272 Z M 182 179 "/>
</clipPath>
<clipPath id="clip-21">
<path clip-rule="nonzero" d="M 74.832031 0.300781 L 374.167969 0.300781 C 415.628906 0.300781 449.003906 33.675781 449.003906 75.132812 L 449.003906 304.382812 C 449.003906 345.84375 415.628906 379.21875 374.167969 379.21875 L 74.832031 379.21875 C 33.375 379.21875 0 345.84375 0 304.382812 L 0 75.132812 C 0 33.675781 33.375 0.300781 74.832031 0.300781 Z M 74.832031 0.300781 "/>
</clipPath>
<clipPath id="clip-22">
<path clip-rule="nonzero" d="M 0 0.300781 L 449.003906 0.300781 L 449.003906 378.460938 L 0 378.460938 Z M 0 0.300781 "/>
</clipPath>
<clipPath id="clip-23">
<path clip-rule="nonzero" d="M 74.832031 0.300781 L 374.167969 0.300781 C 415.628906 0.300781 449.003906 33.675781 449.003906 75.132812 L 449.003906 304.382812 C 449.003906 345.84375 415.628906 379.21875 374.167969 379.21875 L 74.832031 379.21875 C 33.375 379.21875 0 345.84375 0 304.382812 L 0 75.132812 C 0 33.675781 33.375 0.300781 74.832031 0.300781 Z M 74.832031 0.300781 "/>
</clipPath>
<clipPath id="clip-24">
<path clip-rule="nonzero" d="M 0 0.300781 L 157 0.300781 L 157 124 L 0 124 Z M 0 0.300781 "/>
</clipPath>
<clipPath id="clip-25">
<path clip-rule="nonzero" d="M 74.832031 0.300781 L 374.167969 0.300781 C 415.628906 0.300781 449.003906 33.675781 449.003906 75.132812 L 449.003906 304.382812 C 449.003906 345.84375 415.628906 379.21875 374.167969 379.21875 L 74.832031 379.21875 C 33.375 379.21875 0 345.84375 0 304.382812 L 0 75.132812 C 0 33.675781 33.375 0.300781 74.832031 0.300781 Z M 74.832031 0.300781 "/>
</clipPath>
<clipPath id="clip-26">
<path clip-rule="nonzero" d="M 0 0.300781 L 9 0.300781 L 9 8 L 0 8 Z M 0 0.300781 "/>
</clipPath>
<clipPath id="clip-27">
<path clip-rule="nonzero" d="M 74.832031 0.300781 L 374.167969 0.300781 C 415.628906 0.300781 449.003906 33.675781 449.003906 75.132812 L 449.003906 304.382812 C 449.003906 345.84375 415.628906 379.21875 374.167969 379.21875 L 74.832031 379.21875 C 33.375 379.21875 0 345.84375 0 304.382812 L 0 75.132812 C 0 33.675781 33.375 0.300781 74.832031 0.300781 Z M 74.832031 0.300781 "/>
</clipPath>
<clipPath id="clip-28">
<path clip-rule="nonzero" d="M 0 0.300781 L 129 0.300781 L 129 109 L 0 109 Z M 0 0.300781 "/>
</clipPath>
<clipPath id="clip-29">
<path clip-rule="nonzero" d="M 74.832031 0.300781 L 374.167969 0.300781 C 415.628906 0.300781 449.003906 33.675781 449.003906 75.132812 L 449.003906 304.382812 C 449.003906 345.84375 415.628906 379.21875 374.167969 379.21875 L 74.832031 379.21875 C 33.375 379.21875 0 345.84375 0 304.382812 L 0 75.132812 C 0 33.675781 33.375 0.300781 74.832031 0.300781 Z M 74.832031 0.300781 "/>
</clipPath>
<clipPath id="clip-30">
<path clip-rule="nonzero" d="M 0 15 L 449.003906 15 L 449.003906 309 L 0 309 Z M 0 15 "/>
</clipPath>
<clipPath id="clip-31">
<path clip-rule="nonzero" d="M 74.832031 0.300781 L 374.167969 0.300781 C 415.628906 0.300781 449.003906 33.675781 449.003906 75.132812 L 449.003906 304.382812 C 449.003906 345.84375 415.628906 379.21875 374.167969 379.21875 L 74.832031 379.21875 C 33.375 379.21875 0 345.84375 0 304.382812 L 0 75.132812 C 0 33.675781 33.375 0.300781 74.832031 0.300781 Z M 74.832031 0.300781 "/>
</clipPath>
</defs>
<g clip-path="url(#clip-0)">
<g clip-path="url(#clip-1)">
<path fill-rule="nonzero" fill="rgb(25.097656%, 38.822937%, 84.70459%)" fill-opacity="1" d="M 0 0.300781 L 449.003906 0.300781 L 449.003906 379.21875 L 0 379.21875 Z M 0 0.300781 "/>
</g>
</g>
<g clip-path="url(#clip-2)">
<g clip-path="url(#clip-3)">
<path fill-rule="nonzero" fill="rgb(100%, 100%, 100%)" fill-opacity="1" d="M 224.5 91.242188 L 233.109375 91.578125 L 241.683594 92.507812 L 250.167969 94.007812 L 258.539062 96.0625 L 266.761719 98.636719 L 274.824219 101.691406 L 282.695312 105.195312 L 290.371094 109.128906 L 297.84375 113.425781 L 305.121094 118.039062 L 312.207031 122.949219 L 319.101562 128.125 L 325.804688 133.546875 L 332.324219 139.183594 L 338.675781 145.011719 L 344.871094 151.003906 L 350.910156 157.144531 L 356.820312 163.425781 L 362.589844 169.832031 L 368.199219 176.375 L 373.691406 183.015625 L 379.078125 189.75 L 384.355469 196.558594 L 389.496094 203.480469 L 394.550781 210.464844 L 399.53125 217.5 L 404.378906 224.625 L 403.242188 227.742188 L 402.285156 230.363281 L 395.015625 235.003906 L 387.660156 239.492188 L 380.222656 243.84375 L 372.6875 248.03125 L 365.066406 252.066406 L 357.359375 255.929688 L 349.570312 259.617188 L 341.691406 263.113281 L 333.730469 266.429688 L 325.683594 269.515625 L 317.554688 272.402344 L 309.363281 275.066406 L 301.09375 277.503906 L 292.761719 279.71875 L 284.371094 281.695312 L 275.925781 283.425781 L 267.433594 284.894531 L 258.894531 286.09375 L 250.328125 287.035156 L 241.734375 287.710938 L 233.125 288.125 L 224.5 288.273438 L 215.878906 288.125 L 207.269531 287.710938 L 198.675781 287.035156 L 190.109375 286.09375 L 181.570312 284.894531 L 173.078125 283.425781 L 164.628906 281.695312 L 156.238281 279.71875 L 147.910156 277.503906 L 139.640625 275.066406 L 131.445312 272.402344 L 123.320312 269.515625 L 115.269531 266.429688 L 107.3125 263.113281 L 99.429688 259.617188 L 91.644531 255.929688 L 83.933594 252.066406 L 76.316406 248.03125 L 68.78125 243.84375 L 61.339844 239.492188 L 53.984375 235.003906 L 46.714844 230.363281 L 44.625 224.625 L 49.472656 217.5 L 54.453125 210.464844 L 59.503906 203.480469 L 64.644531 196.558594 L 69.921875 189.75 L 75.3125 183.015625 L 80.804688 176.375 L 86.414062 169.832031 L 92.183594 163.425781 L 98.089844 157.144531 L 104.132812 151.003906 L 110.324219 145.011719 L 116.679688 139.183594 L 123.199219 133.546875 L 129.902344 128.125 L 136.792969 122.949219 L 143.882812 118.039062 L 151.160156 113.425781 L 158.632812 109.128906 L 166.304688 105.195312 L 174.179688 101.691406 L 182.238281 98.636719 L 190.464844 96.0625 L 198.835938 94.007812 L 207.320312 92.507812 L 215.890625 91.578125 L 224.5 91.242188 "/>
</g>
</g>
<g clip-path="url(#clip-4)">
<g clip-path="url(#clip-5)">
<path fill="none" stroke-width="1.445789" stroke-linecap="butt" stroke-linejoin="miter" stroke="rgb(0%, 0%, 0%)" stroke-opacity="1" stroke-miterlimit="2" d="M 224.99873 91.143299 L 233.627231 91.479983 L 242.220497 92.411735 L 250.72372 93.915068 L 259.113411 95.97432 L 267.354334 98.554257 L 275.434745 101.615731 L 283.323324 105.127421 L 291.016157 109.069753 L 298.505414 113.376174 L 305.798925 117.999703 L 312.900604 122.920768 L 319.810451 128.108047 L 326.528467 133.541967 L 333.062482 139.191207 L 339.428154 145.03228 L 345.63723 151.037779 L 351.689708 157.192045 L 357.612994 163.487249 L 363.395342 169.907731 L 369.017178 176.465235 L 374.521567 183.120612 L 379.920252 189.869948 L 385.20932 196.693667 L 390.361365 203.630919 L 395.427281 210.63081 L 400.418814 217.681595 L 405.27724 224.822423 L 404.137996 227.946535 L 403.178838 230.573452 L 395.893158 235.224386 L 388.521349 239.722638 L 381.067326 244.083868 L 373.51543 248.28067 L 365.877406 252.324791 L 358.153254 256.196654 L 350.346888 259.892346 L 342.450478 263.396207 L 334.471856 266.71998 L 326.407104 269.812773 L 318.26014 272.705905 L 310.050536 275.375886 L 301.762634 277.818801 L 293.412093 280.038565 L 285.002828 282.019518 L 276.538754 283.753831 L 268.027701 285.225844 L 259.469669 286.427727 L 250.884232 287.371224 L 242.271391 288.048507 L 233.64289 288.463489 L 224.99873 288.612256 L 216.358484 288.463489 L 207.729983 288.048507 L 199.117142 287.371224 L 190.531706 286.427727 L 181.973673 285.225844 L 173.46262 283.753831 L 164.994632 282.019518 L 156.585367 280.038565 L 148.238741 277.818801 L 139.950839 275.375886 L 131.73732 272.705905 L 123.59427 269.812773 L 115.525604 266.71998 L 107.550896 263.396207 L 99.650572 259.892346 L 91.848121 256.196654 L 84.120053 252.324791 L 76.485944 248.28067 L 68.934049 244.083868 L 61.476111 239.722638 L 54.104302 235.224386 L 46.818621 230.573452 L 44.724135 224.822423 L 49.58256 217.681595 L 54.574093 210.63081 L 59.636095 203.630919 L 64.78814 196.693667 L 70.077207 189.869948 L 75.479808 183.120612 L 80.984196 176.465235 L 86.606033 169.907731 L 92.388381 163.487249 L 98.307752 157.192045 L 104.364145 151.037779 L 110.569306 145.03228 L 116.938893 139.191207 L 123.472908 133.541967 L 130.190924 128.108047 L 137.096856 122.920768 L 144.20245 117.999703 L 151.495961 113.376174 L 158.985218 109.069753 L 166.674136 105.127421 L 174.56663 101.615731 L 182.643126 98.554257 L 190.887964 95.97432 L 199.277654 93.915068 L 207.780877 92.411735 L 216.370229 91.479983 L 224.99873 91.143299 " transform="matrix(0.997783, 0, 0, 0.997783, 0, 0.300916)"/>
</g>
</g>
<g clip-path="url(#clip-6)">
<g clip-path="url(#clip-7)">
<path fill-rule="evenodd" fill="rgb(58.430481%, 34.509277%, 69.802856%)" fill-opacity="1" d="M 22.210938 0.300781 L 22.113281 0.375 L 19.058594 2.847656 L 18.652344 3.148438 L 15.9375 5.382812 L 15.195312 5.964844 L 12.847656 7.929688 L 11.734375 8.816406 L 9.789062 10.472656 L 8.273438 11.707031 L 6.761719 13.019531 L 4.816406 14.640625 L 3.765625 15.554688 L 1.355469 17.617188 L 0.808594 18.101562 L 0 18.808594 L 0 29.199219 L 1 28.273438 L 1.355469 27.964844 L 3.765625 25.730469 L 4.816406 24.808594 L 6.601562 23.1875 L 8.273438 21.71875 L 9.476562 20.648438 L 11.734375 18.679688 L 12.390625 18.101562 L 15.195312 15.675781 L 15.332031 15.554688 L 18.21875 13.019531 L 18.652344 12.644531 L 21.132812 10.472656 L 22.113281 9.644531 L 24.101562 7.929688 L 25.578125 6.6875 L 27.113281 5.382812 L 29.03125 3.789062 L 30.164062 2.847656 L 32.492188 0.914062 L 33.238281 0.300781 Z M 22.210938 0.300781 "/>
</g>
</g>
<g clip-path="url(#clip-8)">
<g clip-path="url(#clip-9)">
<path fill-rule="evenodd" fill="rgb(70.195007%, 29.411316%, 19.215393%)" fill-opacity="1" d="M 253.433594 0.300781 L 156.34375 0.300781 L 153.578125 1.621094 L 151.144531 2.847656 L 150.121094 3.34375 L 146.664062 5.105469 L 146.136719 5.382812 L 143.203125 6.90625 L 141.3125 7.929688 L 139.738281 8.761719 L 136.648438 10.472656 L 136.285156 10.671875 L 132.820312 12.613281 L 132.132812 13.019531 L 129.359375 14.601562 L 127.75 15.554688 L 125.898438 16.640625 L 123.5 18.101562 L 122.441406 18.734375 L 119.367188 20.648438 L 118.980469 20.878906 L 115.519531 23.070312 L 115.339844 23.1875 L 112.0625 25.292969 L 111.410156 25.726562 L 108.601562 27.578125 L 107.574219 28.273438 L 105.140625 29.902344 L 103.820312 30.816406 L 101.6875 32.28125 L 100.152344 33.359375 L 98.222656 34.710938 L 96.5625 35.90625 L 94.761719 37.1875 L 93.039062 38.445312 L 91.308594 39.710938 L 89.589844 40.988281 L 87.847656 42.285156 L 86.199219 43.53125 L 84.386719 44.90625 L 82.867188 46.078125 L 80.929688 47.570312 L 79.589844 48.617188 L 77.46875 50.285156 L 76.367188 51.160156 L 74.007812 53.050781 L 73.195312 53.707031 L 70.550781 55.863281 L 70.074219 56.25 L 67.089844 58.722656 L 67.003906 58.789062 L 63.960938 61.332031 L 63.628906 61.609375 L 60.953125 63.878906 L 60.167969 64.546875 L 57.988281 66.421875 L 56.710938 67.53125 L 55.0625 68.964844 L 53.25 70.5625 L 52.175781 71.503906 L 49.789062 73.644531 L 49.335938 74.046875 L 46.527344 76.59375 L 46.332031 76.773438 L 43.726562 79.136719 L 42.871094 79.929688 L 40.96875 81.683594 L 39.410156 83.140625 L 38.246094 84.21875 L 35.957031 86.402344 L 35.574219 86.765625 L 32.90625 89.308594 L 32.492188 89.710938 L 30.261719 91.847656 L 29.03125 93.058594 L 27.652344 94.394531 L 25.578125 96.46875 L 25.101562 96.9375 L 22.558594 99.480469 L 22.113281 99.933594 L 20.027344 102.019531 L 18.652344 103.445312 L 17.542969 104.566406 L 15.195312 107.035156 L 15.121094 107.113281 L 12.671875 109.652344 L 11.734375 110.660156 L 10.277344 112.199219 L 8.273438 114.382812 L 7.941406 114.738281 L 5.601562 117.277344 L 4.816406 118.167969 L 3.292969 119.824219 L 1.355469 122.042969 L 1.058594 122.371094 L 0 123.574219 L 0 136.15625 L 0.808594 135.078125 L 1.355469 134.394531 L 2.832031 132.542969 L 4.816406 130.0625 L 4.867188 129.996094 L 6.964844 127.453125 L 8.273438 125.917969 L 9.132812 124.914062 L 11.308594 122.371094 L 11.734375 121.890625 L 13.542969 119.824219 L 15.195312 117.996094 L 15.832031 117.277344 L 18.148438 114.738281 L 18.652344 114.199219 L 20.5 112.199219 L 22.113281 110.5 L 22.914062 109.652344 L 25.363281 107.113281 L 25.578125 106.890625 L 27.824219 104.566406 L 29.03125 103.351562 L 30.34375 102.019531 L 32.492188 99.898438 L 32.917969 99.480469 L 35.507812 96.9375 L 35.957031 96.507812 L 38.125 94.394531 L 39.410156 93.175781 L 40.804688 91.851562 L 42.871094 89.917969 L 43.519531 89.308594 L 46.277344 86.765625 L 46.332031 86.714844 L 49.050781 84.21875 L 49.789062 83.5625 L 51.890625 81.683594 L 53.25 80.460938 L 54.761719 79.136719 L 56.710938 77.433594 L 57.6875 76.59375 L 60.167969 74.453125 L 60.652344 74.046875 L 63.628906 71.53125 L 63.652344 71.503906 L 66.707031 68.964844 L 67.089844 68.648438 L 69.824219 66.421875 L 70.550781 65.828125 L 72.992188 63.878906 L 74.007812 63.0625 L 76.226562 61.332031 L 77.46875 60.351562 L 79.523438 58.789062 L 80.929688 57.699219 L 82.875 56.25 L 84.386719 55.097656 L 86.292969 53.707031 L 87.847656 52.546875 L 89.789062 51.160156 L 91.308594 50.054688 L 93.355469 48.617188 L 94.761719 47.613281 L 97.003906 46.078125 L 98.222656 45.222656 L 100.726562 43.53125 L 101.6875 42.878906 L 104.539062 40.988281 L 105.140625 40.582031 L 108.433594 38.449219 L 108.601562 38.332031 L 112.0625 36.191406 L 112.527344 35.90625 L 115.519531 34.105469 L 116.753906 33.359375 L 118.980469 32.046875 L 121.050781 30.816406 L 122.441406 30.007812 L 125.410156 28.273438 L 125.898438 27.992188 L 129.359375 26.132812 L 130.074219 25.730469 L 132.820312 24.347656 L 134.917969 23.1875 L 136.285156 22.5 L 139.714844 20.648438 L 139.738281 20.640625 L 143.203125 19.15625 L 145.207031 18.101562 L 146.664062 17.460938 L 150.121094 15.84375 L 150.65625 15.554688 L 153.578125 14.507812 L 156.570312 13.019531 L 157.042969 12.832031 L 160.496094 11.824219 L 163.207031 10.472656 L 163.960938 10.226562 L 167.417969 9.65625 L 168.6875 10.472656 L 167.417969 10.960938 L 164.355469 13.019531 L 163.960938 13.183594 L 160.496094 14.753906 L 159.53125 15.554688 L 157.042969 16.671875 L 154.882812 18.101562 L 153.578125 18.726562 L 150.453125 20.648438 L 150.121094 20.808594 L 146.664062 22.648438 L 145.90625 23.1875 L 143.203125 24.605469 L 141.523438 25.726562 L 139.738281 26.707031 L 137.328125 28.273438 L 136.285156 28.867188 L 133.25 30.816406 L 132.820312 31.074219 L 129.359375 33.273438 L 129.238281 33.359375 L 125.898438 35.429688 L 125.238281 35.90625 L 122.441406 37.6875 L 121.375 38.445312 L 118.980469 40.019531 L 117.617188 40.988281 L 115.519531 42.394531 L 113.953125 43.53125 L 112.0625 44.832031 L 110.359375 46.078125 L 108.601562 47.308594 L 106.832031 48.617188 L 105.140625 49.835938 L 103.375 51.160156 L 101.6875 52.394531 L 99.976562 53.707031 L 98.222656 55.015625 L 96.636719 56.25 L 94.761719 57.671875 L 93.347656 58.789062 L 91.308594 60.378906 L 90.113281 61.332031 L 87.847656 63.121094 L 86.917969 63.878906 L 84.386719 65.917969 L 83.777344 66.421875 L 80.929688 68.757812 L 80.683594 68.964844 L 77.628906 71.503906 L 77.46875 71.636719 L 74.605469 74.046875 L 74.007812 74.546875 L 71.621094 76.59375 L 70.550781 77.503906 L 68.671875 79.136719 L 67.089844 80.5 L 65.757812 81.683594 L 63.628906 83.546875 L 62.871094 84.21875 L 60.167969 86.632812 L 60.023438 86.765625 L 57.222656 89.308594 L 56.710938 89.769531 L 54.457031 91.847656 L 53.25 92.949219 L 51.714844 94.394531 L 49.789062 96.179688 L 48.992188 96.9375 L 46.332031 99.449219 L 46.296875 99.480469 L 43.671875 102.019531 L 42.871094 102.796875 L 41.0625 104.566406 L 39.410156 106.179688 L 38.472656 107.109375 L 35.957031 109.617188 L 35.914062 109.652344 L 33.414062 112.199219 L 32.492188 113.132812 L 30.925781 114.738281 L 29.03125 116.695312 L 28.460938 117.277344 L 26.050781 119.824219 L 25.578125 120.332031 L 23.65625 122.371094 L 22.113281 124.03125 L 21.285156 124.914062 L 18.96875 127.453125 L 18.652344 127.796875 L 16.648438 129.996094 L 15.195312 131.640625 L 14.355469 132.542969 L 12.140625 135.078125 L 11.734375 135.550781 L 9.875 137.628906 L 8.273438 139.523438 L 7.667969 140.171875 L 5.519531 142.710938 L 4.816406 143.574219 L 3.292969 145.25 L 1.355469 147.6875 L 1.242188 147.800781 L 0 149.230469 L 0 163.652344 L 0.40625 163.054688 L 1.355469 161.6875 L 2.179688 160.511719 L 3.988281 157.96875 L 4.816406 156.824219 L 5.839844 155.429688 L 7.722656 152.882812 L 8.273438 152.152344 L 9.664062 150.347656 L 11.609375 147.800781 L 11.734375 147.636719 L 13.640625 145.25 L 15.195312 143.304688 L 15.671875 142.710938 L 17.765625 140.171875 L 18.652344 139.097656 L 19.898438 137.628906 L 22.046875 135.078125 L 22.113281 135 L 24.277344 132.542969 L 25.578125 131.054688 L 26.519531 129.996094 L 28.792969 127.453125 L 29.03125 127.1875 L 31.140625 124.914062 L 32.492188 123.4375 L 33.511719 122.371094 L 35.894531 119.824219 L 35.957031 119.757812 L 38.367188 117.277344 L 39.410156 116.203125 L 40.863281 114.738281 L 42.871094 112.699219 L 43.378906 112.199219 L 45.953125 109.652344 L 46.332031 109.273438 L 48.582031 107.109375 L 49.789062 105.9375 L 51.242188 104.566406 L 53.25 102.652344 L 53.925781 102.019531 L 56.648438 99.480469 L 56.710938 99.425781 L 59.449219 96.9375 L 60.167969 96.277344 L 62.28125 94.394531 L 63.628906 93.179688 L 65.148438 91.847656 L 67.089844 90.136719 L 68.050781 89.308594 L 70.550781 87.144531 L 70.996094 86.765625 L 73.984375 84.21875 L 74.007812 84.195312 L 77.042969 81.679688 L 77.46875 81.320312 L 80.140625 79.132812 L 80.929688 78.488281 L 83.296875 76.59375 L 84.386719 75.710938 L 86.496094 74.046875 L 87.847656 72.980469 L 89.75 71.503906 L 91.308594 70.292969 L 93.058594 68.964844 L 94.761719 67.664062 L 96.429688 66.421875 L 98.226562 65.082031 L 99.875 63.878906 L 101.6875 62.550781 L 103.378906 61.332031 L 105.140625 60.066406 L 106.964844 58.789062 L 108.601562 57.640625 L 110.632812 56.25 L 112.0625 55.261719 L 114.378906 53.707031 L 115.519531 52.941406 L 118.226562 51.160156 L 118.980469 50.667969 L 122.164062 48.617188 L 122.441406 48.441406 L 125.898438 46.277344 L 126.230469 46.078125 L 129.359375 44.171875 L 130.433594 43.53125 L 132.820312 42.113281 L 134.757812 40.988281 L 136.285156 40.109375 L 139.226562 38.445312 L 139.738281 38.15625 L 143.203125 36.261719 L 143.867188 35.90625 L 146.664062 34.421875 L 148.695312 33.359375 L 150.121094 32.625 L 153.578125 30.882812 L 153.707031 30.816406 L 157.042969 29.199219 L 158.984375 28.273438 L 160.496094 27.558594 L 163.960938 25.972656 L 164.492188 25.726562 L 167.417969 24.4375 L 170.3125 23.1875 L 170.878906 22.945312 L 174.335938 21.511719 L 176.492188 20.648438 L 177.796875 20.121094 L 181.253906 18.78125 L 184.714844 17.480469 L 188.175781 16.234375 L 190.109375 15.554688 L 191.632812 15.027344 L 195.09375 13.867188 L 197.730469 13.019531 L 198.554688 12.746094 L 202.015625 11.679688 L 205.472656 10.644531 L 206.074219 10.472656 L 208.933594 9.65625 L 212.394531 8.707031 L 215.335938 7.929688 L 215.851562 7.792969 L 219.308594 6.929688 L 222.773438 6.101562 L 225.851562 5.382812 L 226.226562 5.296875 L 229.691406 4.546875 L 233.148438 3.828125 L 236.605469 3.144531 L 238.1875 2.847656 L 240.070312 2.488281 L 243.53125 1.875 L 246.984375 1.292969 L 250.449219 0.746094 Z M 170.875 7.90625 L 171.234375 7.929688 L 170.875 8.023438 L 170.777344 7.929688 Z M 167.417969 9.65625 L 163.960938 10.226562 L 163.207031 10.472656 L 160.496094 11.824219 L 157.042969 12.832031 L 156.570312 13.019531 L 153.578125 14.507812 L 150.65625 15.554688 L 150.121094 15.839844 L 146.664062 17.460938 L 145.207031 18.101562 L 143.203125 19.15625 L 139.738281 20.632812 L 139.714844 20.648438 L 136.285156 22.496094 L 134.917969 23.1875 L 132.820312 24.347656 L 130.074219 25.726562 L 129.359375 26.132812 L 125.898438 27.992188 L 125.410156 28.273438 L 122.441406 30.007812 L 121.050781 30.816406 L 118.980469 32.046875 L 116.753906 33.359375 L 115.519531 34.105469 L 112.527344 35.90625 L 112.0625 36.191406 L 108.601562 38.332031 L 108.433594 38.445312 L 105.140625 40.582031 L 104.539062 40.988281 L 101.6875 42.875 L 100.726562 43.53125 L 98.222656 45.222656 L 97.003906 46.078125 L 94.761719 47.613281 L 93.355469 48.617188 L 91.308594 50.054688 L 89.789062 51.160156 L 87.847656 52.546875 L 86.292969 53.707031 L 84.386719 55.097656 L 82.875 56.25 L 80.929688 57.695312 L 79.523438 58.789062 L 77.46875 60.351562 L 76.226562 61.332031 L 74.007812 63.058594 L 72.992188 63.878906 L 70.550781 65.828125 L 69.824219 66.421875 L 67.089844 68.648438 L 66.707031 68.964844 L 63.652344 71.503906 L 63.628906 71.53125 L 60.652344 74.046875 L 60.167969 74.453125 L 57.6875 76.59375 L 56.710938 77.433594 L 54.761719 79.136719 L 53.25 80.460938 L 51.890625 81.683594 L 49.789062 83.558594 L 49.050781 84.21875 L 46.332031 86.714844 L 46.277344 86.765625 L 43.519531 89.308594 L 42.871094 89.914062 L 40.804688 91.847656 L 39.410156 93.175781 L 38.125 94.394531 L 35.957031 96.507812 L 35.507812 96.9375 L 32.917969 99.480469 L 32.492188 99.898438 L 30.34375 102.019531 L 29.03125 103.351562 L 27.824219 104.566406 L 25.578125 106.890625 L 25.363281 107.109375 L 22.914062 109.652344 L 22.113281 110.5 L 20.5 112.199219 L 18.652344 114.199219 L 18.148438 114.738281 L 15.832031 117.277344 L 15.195312 117.996094 L 13.542969 119.824219 L 11.734375 121.886719 L 11.308594 122.371094 L 9.132812 124.914062 L 8.273438 125.917969 L 6.964844 127.453125 L 4.867188 129.996094 L 4.816406 130.0625 L 2.832031 132.542969 L 1.355469 134.394531 L 0.808594 135.078125 L 0 136.15625 L 0 149.230469 L 1.242188 147.796875 L 1.355469 147.6875 L 3.292969 145.25 L 4.816406 143.570312 L 5.519531 142.710938 L 7.667969 140.171875 L 8.273438 139.523438 L 9.875 137.628906 L 11.734375 135.550781 L 12.140625 135.078125 L 14.355469 132.542969 L 15.195312 131.640625 L 16.652344 129.996094 L 18.652344 127.796875 L 18.96875 127.453125 L 21.285156 124.914062 L 22.113281 124.03125 L 23.65625 122.371094 L 25.578125 120.328125 L 26.050781 119.824219 L 28.460938 117.277344 L 29.03125 116.695312 L 30.925781 114.738281 L 32.492188 113.132812 L 33.414062 112.199219 L 35.914062 109.652344 L 35.957031 109.617188 L 38.472656 107.109375 L 39.410156 106.179688 L 41.0625 104.566406 L 42.871094 102.796875 L 43.671875 102.019531 L 46.296875 99.480469 L 46.332031 99.449219 L 48.992188 96.9375 L 49.789062 96.179688 L 51.714844 94.394531 L 53.25 92.949219 L 54.457031 91.847656 L 56.710938 89.769531 L 57.222656 89.308594 L 60.023438 86.765625 L 60.167969 86.632812 L 62.871094 84.21875 L 63.628906 83.542969 L 65.757812 81.679688 L 67.089844 80.5 L 68.671875 79.132812 L 70.550781 77.5 L 71.621094 76.59375 L 74.007812 74.546875 L 74.605469 74.046875 L 77.46875 71.636719 L 77.628906 71.503906 L 80.683594 68.960938 L 80.929688 68.757812 L 83.777344 66.417969 L 84.386719 65.917969 L 86.917969 63.878906 L 87.847656 63.121094 L 90.113281 61.332031 L 91.308594 60.378906 L 93.347656 58.789062 L 94.761719 57.671875 L 96.636719 56.25 L 98.226562 55.011719 L 99.976562 53.707031 L 101.6875 52.394531 L 103.375 51.160156 L 105.140625 49.832031 L 106.832031 48.617188 L 108.601562 47.308594 L 110.359375 46.078125 L 112.0625 44.832031 L 113.953125 43.53125 L 115.519531 42.394531 L 117.617188 40.988281 L 118.980469 40.019531 L 121.375 38.445312 L 122.441406 37.6875 L 125.238281 35.90625 L 125.898438 35.425781 L 129.238281 33.359375 L 129.359375 33.273438 L 132.820312 31.074219 L 133.25 30.816406 L 136.285156 28.867188 L 137.328125 28.273438 L 139.738281 26.707031 L 141.523438 25.726562 L 143.203125 24.605469 L 145.90625 23.1875 L 146.664062 22.648438 L 150.121094 20.808594 L 150.453125 20.648438 L 153.578125 18.726562 L 154.882812 18.101562 L 157.042969 16.671875 L 159.53125 15.554688 L 160.496094 14.75 L 163.960938 13.183594 L 164.355469 13.019531 L 167.417969 10.957031 L 168.6875 10.472656 Z M 167.417969 9.65625 "/>
</g>
</g>
<g clip-path="url(#clip-10)">
<g clip-path="url(#clip-11)">
<path fill-rule="evenodd" fill="rgb(70.195007%, 29.411316%, 19.215393%)" fill-opacity="1" d="M 33.238281 0.300781 L 32.492188 0.914062 L 30.164062 2.847656 L 29.03125 3.789062 L 27.113281 5.382812 L 25.578125 6.6875 L 24.101562 7.929688 L 22.113281 9.644531 L 21.132812 10.472656 L 18.652344 12.640625 L 18.21875 13.019531 L 15.332031 15.554688 L 15.195312 15.675781 L 12.390625 18.101562 L 11.734375 18.679688 L 9.476562 20.648438 L 8.273438 21.71875 L 6.601562 23.1875 L 4.816406 24.808594 L 3.765625 25.726562 L 1.355469 27.964844 L 1 28.273438 L 0 29.199219 L 0 40.523438 L 1.355469 39.261719 L 2.25 38.445312 L 4.816406 36.085938 L 5.015625 35.90625 L 7.847656 33.359375 L 8.273438 32.96875 L 10.71875 30.816406 L 11.734375 29.914062 L 13.617188 28.273438 L 15.195312 26.894531 L 16.550781 25.726562 L 18.652344 23.917969 L 19.515625 23.1875 L 22.113281 20.980469 L 22.511719 20.648438 L 25.554688 18.101562 L 25.578125 18.085938 L 28.652344 15.554688 L 29.03125 15.246094 L 31.785156 13.019531 L 32.492188 12.441406 L 34.960938 10.472656 L 35.957031 9.675781 L 38.171875 7.929688 L 39.410156 6.953125 L 41.429688 5.382812 L 42.871094 4.261719 L 44.726562 2.847656 L 46.332031 1.605469 L 48.058594 0.300781 Z M 33.238281 0.300781 "/>
</g>
</g>
<g clip-path="url(#clip-12)">
<g clip-path="url(#clip-13)">
<path fill-rule="evenodd" fill="rgb(70.195007%, 29.411316%, 19.215393%)" fill-opacity="1" d="M 8.207031 0.300781 L 5.214844 2.847656 L 4.816406 3.183594 L 2.253906 5.382812 L 1.355469 6.164062 L 0 7.34375 L 0 18.808594 L 0.808594 18.101562 L 1.355469 17.613281 L 3.765625 15.554688 L 4.816406 14.640625 L 6.761719 13.019531 L 8.273438 11.707031 L 9.789062 10.472656 L 11.734375 8.816406 L 12.847656 7.929688 L 15.195312 5.964844 L 15.9375 5.382812 L 18.652344 3.148438 L 19.058594 2.847656 L 22.113281 0.375 L 22.210938 0.300781 Z M 8.207031 0.300781 "/>
</g>
</g>
<g clip-path="url(#clip-14)">
<g clip-path="url(#clip-15)">
<path fill-rule="evenodd" fill="rgb(70.195007%, 29.411316%, 19.215393%)" fill-opacity="1" d="M 240.070312 75.238281 L 236.605469 75.242188 L 233.148438 75.320312 L 229.691406 75.460938 L 226.226562 75.683594 L 222.773438 75.976562 L 219.308594 76.351562 L 217.519531 76.59375 L 215.851562 76.796875 L 212.394531 77.296875 L 208.933594 77.890625 L 205.46875 78.566406 L 202.929688 79.136719 L 202.015625 79.324219 L 198.554688 80.128906 L 195.09375 81.039062 L 192.90625 81.683594 L 191.632812 82.023438 L 188.175781 83.078125 L 184.804688 84.21875 L 184.714844 84.25 L 181.253906 85.453125 L 177.875 86.765625 L 177.796875 86.789062 L 174.335938 88.160156 L 171.714844 89.308594 L 170.875 89.660156 L 167.417969 91.226562 L 166.140625 91.847656 L 163.960938 92.878906 L 161.003906 94.394531 L 160.496094 94.648438 L 157.042969 96.480469 L 156.230469 96.9375 L 153.578125 98.40625 L 151.753906 99.480469 L 150.121094 100.429688 L 147.523438 102.019531 L 146.664062 102.546875 L 143.511719 104.566406 L 143.203125 104.761719 L 139.738281 107.066406 L 139.675781 107.109375 L 136.285156 109.449219 L 135.996094 109.652344 L 132.820312 111.933594 L 132.464844 112.199219 L 129.359375 114.5 L 129.050781 114.738281 L 125.898438 117.167969 L 125.753906 117.277344 L 122.558594 119.824219 L 122.441406 119.917969 L 119.441406 122.371094 L 118.980469 122.75 L 116.414062 124.914062 L 115.519531 125.675781 L 113.464844 127.453125 L 112.0625 128.683594 L 110.582031 129.996094 L 108.601562 131.785156 L 107.773438 132.542969 L 105.140625 134.980469 L 105.03125 135.078125 L 102.308594 137.628906 L 101.6875 138.222656 L 99.632812 140.171875 L 98.222656 141.546875 L 97.023438 142.710938 L 94.761719 144.957031 L 94.464844 145.25 L 91.917969 147.796875 L 91.308594 148.425781 L 89.398438 150.347656 L 87.847656 151.957031 L 86.941406 152.882812 L 84.527344 155.429688 L 84.386719 155.574219 L 82.085938 157.96875 L 80.929688 159.230469 L 79.710938 160.511719 L 77.46875 162.984375 L 77.398438 163.054688 L 75.042969 165.601562 L 74.007812 166.761719 L 72.746094 168.148438 L 70.550781 170.648438 L 70.515625 170.683594 L 68.238281 173.230469 L 67.089844 174.566406 L 66.015625 175.773438 L 63.851562 178.316406 L 63.628906 178.582031 L 61.648438 180.859375 L 60.167969 182.648438 L 59.523438 183.402344 L 57.410156 185.945312 L 56.710938 186.824219 L 55.316406 188.488281 L 53.316406 191.03125 L 53.25 191.109375 L 51.265625 193.578125 L 49.789062 195.53125 L 49.328125 196.117188 L 47.390625 198.660156 L 46.332031 200.144531 L 45.535156 201.207031 L 43.730469 203.742188 L 42.871094 205.046875 L 42.003906 206.289062 L 40.359375 208.832031 L 39.410156 210.464844 L 38.84375 211.375 L 37.417969 213.921875 L 36.214844 216.460938 L 35.957031 217.136719 L 35.121094 219.007812 L 34.222656 221.546875 L 33.539062 224.089844 L 33.046875 226.632812 L 32.730469 229.175781 L 32.570312 231.722656 L 32.535156 234.265625 L 32.640625 236.804688 L 32.867188 239.347656 L 33.207031 241.894531 L 33.660156 244.4375 L 34.203125 246.976562 L 34.835938 249.519531 L 35.550781 252.066406 L 35.957031 253.414062 L 36.324219 254.605469 L 37.160156 257.152344 L 38.050781 259.695312 L 38.996094 262.238281 L 39.410156 263.355469 L 39.980469 264.78125 L 41.007812 267.324219 L 42.070312 269.871094 L 42.871094 271.753906 L 43.164062 272.40625 L 44.292969 274.953125 L 45.449219 277.496094 L 46.332031 279.398438 L 46.636719 280.042969 L 47.851562 282.578125 L 49.085938 285.125 L 49.789062 286.574219 L 50.34375 287.671875 L 51.628906 290.207031 L 52.921875 292.753906 L 53.25 293.402344 L 54.242188 295.296875 L 55.582031 297.839844 L 56.710938 299.972656 L 56.933594 300.382812 L 58.308594 302.925781 L 59.695312 305.472656 L 60.167969 306.34375 L 61.101562 308.011719 L 62.519531 310.558594 L 63.628906 312.542969 L 63.953125 313.101562 L 65.402344 315.640625 L 66.859375 318.183594 L 67.089844 318.585938 L 68.339844 320.730469 L 69.828125 323.265625 L 70.550781 324.507812 L 71.332031 325.8125 L 72.851562 328.355469 L 74.007812 330.300781 L 74.375 330.902344 L 77.46875 335.980469 L 77.46875 335.984375 L 79.039062 338.53125 L 80.617188 341.070312 L 80.929688 341.570312 L 82.214844 343.613281 L 83.820312 346.15625 L 84.386719 347.0625 L 85.441406 348.703125 L 87.070312 351.246094 L 87.847656 352.457031 L 88.714844 353.789062 L 90.371094 356.328125 L 91.308594 357.777344 L 92.035156 358.871094 L 93.714844 361.417969 L 94.761719 363.027344 L 95.394531 363.960938 L 97.089844 366.5 L 98.222656 368.214844 L 98.785156 369.042969 L 100.5 371.589844 L 101.6875 373.359375 L 102.210938 374.132812 L 103.929688 376.675781 L 105.140625 378.476562 L 105.652344 379.21875 L 194.761719 379.21875 L 191.632812 376.6875 L 191.617188 376.675781 L 188.492188 374.132812 L 188.175781 373.882812 L 185.382812 371.589844 L 184.714844 371.054688 L 182.292969 369.042969 L 181.253906 368.199219 L 179.246094 366.5 L 177.796875 365.300781 L 176.226562 363.960938 L 174.335938 362.367188 L 173.242188 361.417969 L 170.875 359.386719 L 170.296875 358.871094 L 167.417969 356.359375 L 167.390625 356.328125 L 164.53125 353.789062 L 163.960938 353.289062 L 161.695312 351.246094 L 160.496094 350.1875 L 158.875 348.703125 L 157.042969 347.054688 L 156.066406 346.15625 L 153.578125 343.902344 L 153.273438 343.613281 L 150.492188 341.070312 L 150.121094 340.738281 L 147.722656 338.53125 L 146.664062 337.570312 L 144.945312 335.984375 L 143.203125 334.410156 L 142.15625 333.445312 L 139.738281 331.253906 L 139.363281 330.902344 L 136.5625 328.355469 L 136.285156 328.109375 L 133.761719 325.8125 L 132.820312 324.976562 L 130.957031 323.265625 L 129.359375 321.855469 L 128.128906 320.730469 L 125.898438 318.738281 L 125.296875 318.183594 L 122.453125 315.640625 L 122.441406 315.636719 L 119.625 313.101562 L 118.980469 312.535156 L 116.792969 310.558594 L 115.519531 309.4375 L 113.957031 308.011719 L 112.0625 306.332031 L 111.128906 305.472656 L 108.601562 303.214844 L 108.292969 302.925781 L 105.484375 300.382812 L 105.140625 300.089844 L 102.695312 297.839844 L 101.6875 296.945312 L 99.90625 295.296875 L 98.222656 293.78125 L 97.140625 292.753906 L 94.761719 290.578125 L 94.382812 290.207031 L 91.652344 287.671875 L 91.308594 287.355469 L 88.960938 285.125 L 87.847656 284.097656 L 86.289062 282.578125 L 84.386719 280.792969 L 83.628906 280.042969 L 80.996094 277.496094 L 80.929688 277.429688 L 78.417969 274.953125 L 77.46875 274.042969 L 75.859375 272.40625 L 74.007812 270.585938 L 73.320312 269.871094 L 70.8125 267.324219 L 70.550781 267.066406 L 68.355469 264.78125 L 67.089844 263.5 L 65.921875 262.238281 L 63.628906 259.839844 L 63.503906 259.695312 L 61.148438 257.152344 L 60.167969 256.132812 L 58.828125 254.605469 L 56.710938 252.3125 L 56.5 252.066406 L 54.253906 249.519531 L 53.25 248.449219 L 52.03125 246.976562 L 49.800781 244.4375 L 49.789062 244.425781 L 47.765625 241.894531 L 46.335938 240.132812 L 45.824219 239.347656 L 44.238281 236.804688 L 42.984375 234.265625 L 42.871094 234.015625 L 41.980469 231.722656 L 41.261719 229.175781 L 41.082031 226.632812 L 41.433594 224.089844 L 41.996094 221.546875 L 42.871094 219.300781 L 42.96875 219.007812 L 44.335938 216.460938 L 45.871094 213.921875 L 46.335938 213.175781 L 47.371094 211.375 L 49.101562 208.832031 L 49.789062 207.84375 L 50.777344 206.289062 L 52.527344 203.742188 L 53.25 202.777344 L 54.402344 201.207031 L 56.265625 198.660156 L 56.710938 198.085938 L 58.132812 196.117188 L 60.167969 193.601562 L 60.191406 193.578125 L 62.066406 191.03125 L 63.628906 189.144531 L 64.171875 188.488281 L 66.257812 185.945312 L 67.089844 184.949219 L 68.28125 183.402344 L 70.53125 180.859375 L 70.550781 180.835938 L 72.609375 178.316406 L 74.007812 176.71875 L 74.828125 175.773438 L 77.121094 173.230469 L 77.46875 172.847656 L 79.238281 170.683594 L 80.929688 168.867188 L 81.636719 168.148438 L 83.949219 165.601562 L 84.386719 165.128906 L 86.230469 163.054688 L 87.847656 161.398438 L 88.703125 160.511719 L 91.066406 157.972656 L 91.308594 157.726562 L 93.589844 155.429688 L 94.761719 154.25 L 96 152.882812 L 98.222656 150.660156 L 98.578125 150.347656 L 101.238281 147.800781 L 101.6875 147.371094 L 103.683594 145.257812 L 105.140625 143.890625 L 106.507812 142.710938 L 108.601562 140.746094 L 109.125 140.171875 L 111.964844 137.628906 L 112.0625 137.535156 L 114.8125 135.082031 L 115.519531 134.453125 L 117.652344 132.542969 L 118.980469 131.414062 L 120.695312 129.996094 L 122.441406 128.507812 L 123.667969 127.453125 L 125.898438 125.679688 L 126.921875 124.914062 L 129.359375 122.953125 L 130.078125 122.371094 L 132.820312 120.320312 L 133.542969 119.824219 L 136.285156 117.785156 L 136.933594 117.277344 L 139.742188 115.316406 L 140.660156 114.742188 L 143.203125 112.992188 L 144.339844 112.199219 L 146.664062 110.675781 L 148.425781 109.652344 L 150.121094 108.585938 L 152.488281 107.109375 L 153.578125 106.453125 L 157.042969 104.589844 L 157.070312 104.570312 L 160.496094 102.59375 L 161.753906 102.019531 L 163.960938 100.917969 L 166.8125 99.480469 L 167.417969 99.179688 L 170.875 97.625 L 172.53125 96.9375 L 174.335938 96.140625 L 177.796875 94.722656 L 178.820312 94.398438 L 181.253906 93.488281 L 184.714844 92.222656 L 186.03125 91.847656 L 188.175781 91.171875 L 191.632812 90.117188 L 194.773438 89.308594 L 195.09375 89.21875 L 198.554688 88.394531 L 202.015625 87.578125 L 205.472656 87 L 206.933594 86.765625 L 208.933594 86.410156 L 212.394531 85.890625 L 215.851562 85.535156 L 219.3125 85.171875 L 222.773438 84.992188 L 226.230469 84.871094 L 229.691406 84.816406 L 233.148438 84.910156 L 236.605469 85.03125 L 240.070312 85.257812 L 243.53125 85.578125 L 246.984375 85.941406 L 250.449219 86.429688 L 252.5625 86.765625 L 253.910156 86.972656 L 257.375 87.566406 L 260.828125 88.273438 L 264.289062 89.046875 L 265.328125 89.308594 L 267.75 89.902344 L 271.207031 90.824219 L 274.667969 91.84375 L 274.695312 91.847656 L 278.128906 92.914062 L 281.585938 94.085938 L 282.464844 94.398438 L 285.046875 95.320312 L 288.507812 96.648438 L 289.238281 96.9375 L 291.964844 98.035156 L 295.324219 99.480469 L 295.425781 99.523438 L 298.882812 101.066406 L 300.941406 102.019531 L 302.339844 102.695312 L 305.800781 104.398438 L 306.144531 104.566406 L 309.265625 106.167969 L 311.070312 107.109375 L 312.71875 108.003906 L 315.734375 109.652344 L 316.179688 109.914062 L 319.640625 111.878906 L 320.203125 112.199219 L 323.105469 113.902344 L 324.515625 114.738281 L 326.558594 115.992188 L 328.675781 117.277344 L 330.019531 118.132812 L 332.707031 119.824219 L 333.480469 120.332031 L 336.625 122.371094 L 336.941406 122.582031 L 340.398438 124.882812 L 340.4375 124.914062 L 343.859375 127.238281 L 344.179688 127.453125 L 347.3125 129.644531 L 347.832031 129.996094 L 350.78125 132.105469 L 351.394531 132.542969 L 354.238281 134.628906 L 354.875 135.082031 L 357.699219 137.199219 L 358.273438 137.628906 L 361.15625 139.835938 L 361.59375 140.171875 L 364.617188 142.535156 L 364.847656 142.710938 L 368.035156 145.25 L 368.074219 145.289062 L 371.164062 147.800781 L 371.535156 148.109375 L 374.242188 150.347656 L 374.996094 150.984375 L 377.269531 152.882812 L 378.453125 153.90625 L 380.257812 155.429688 L 381.914062 156.871094 L 383.210938 157.972656 L 385.375 159.867188 L 386.132812 160.511719 L 388.835938 162.878906 L 389.046875 163.054688 L 391.960938 165.601562 L 392.292969 165.898438 L 394.890625 168.148438 L 395.753906 168.910156 L 397.816406 170.683594 L 399.214844 171.90625 L 400.761719 173.230469 L 402.671875 174.886719 L 403.722656 175.773438 L 406.132812 177.832031 L 406.710938 178.316406 L 409.59375 180.75 L 409.722656 180.859375 L 412.773438 183.402344 L 413.046875 183.640625 L 415.851562 185.945312 L 416.511719 186.492188 L 418.953125 188.488281 L 419.972656 189.332031 L 422.066406 191.03125 L 423.429688 192.160156 L 425.179688 193.578125 L 426.886719 194.980469 L 428.289062 196.117188 L 430.347656 197.820312 L 431.386719 198.660156 L 433.804688 200.679688 L 434.453125 201.207031 L 437.265625 203.574219 L 437.480469 203.742188 L 440.472656 206.289062 L 440.726562 206.515625 L 443.421875 208.832031 L 444.183594 209.515625 L 446.320312 211.375 L 447.648438 212.574219 L 449.003906 213.777344 L 449.003906 161.046875 L 448.15625 160.511719 L 447.648438 160.191406 L 444.183594 157.988281 L 444.160156 157.96875 L 440.726562 155.765625 L 440.207031 155.429688 L 437.265625 153.539062 L 436.265625 152.882812 L 433.804688 151.300781 L 432.339844 150.347656 L 430.347656 149.058594 L 428.414062 147.800781 L 426.886719 146.820312 L 424.488281 145.25 L 423.429688 144.585938 L 420.53125 142.710938 L 419.972656 142.351562 L 416.550781 140.171875 L 416.511719 140.144531 L 413.046875 137.957031 L 412.527344 137.628906 L 409.59375 135.796875 L 408.453125 135.078125 L 406.132812 133.667969 L 404.292969 132.542969 L 402.671875 131.570312 L 400.046875 129.996094 L 399.214844 129.515625 L 395.753906 127.488281 L 395.695312 127.453125 L 392.292969 125.503906 L 391.253906 124.914062 L 388.835938 123.5625 L 386.691406 122.371094 L 385.375 121.652344 L 382 119.824219 L 381.914062 119.777344 L 378.453125 117.941406 L 377.21875 117.277344 L 374.996094 116.132812 L 372.289062 114.738281 L 371.535156 114.359375 L 368.074219 112.609375 L 367.257812 112.199219 L 364.617188 110.894531 L 362.097656 109.652344 L 361.15625 109.199219 L 357.699219 107.53125 L 356.820312 107.109375 L 354.238281 105.894531 L 351.40625 104.566406 L 350.78125 104.28125 L 347.3125 102.695312 L 345.847656 102.019531 L 343.859375 101.136719 L 340.398438 99.605469 L 340.109375 99.480469 L 336.941406 98.109375 L 334.171875 96.9375 L 333.480469 96.648438 L 330.019531 95.21875 L 327.980469 94.398438 L 326.558594 93.828125 L 323.105469 92.480469 L 321.457031 91.847656 L 319.640625 91.164062 L 316.179688 89.90625 L 314.507812 89.308594 L 312.71875 88.683594 L 309.265625 87.511719 L 306.976562 86.765625 L 305.800781 86.382812 L 302.339844 85.308594 L 298.882812 84.289062 L 298.648438 84.21875 L 295.425781 83.308594 L 291.964844 82.386719 L 289.128906 81.683594 L 288.507812 81.527344 L 285.046875 80.695312 L 281.585938 79.9375 L 278.128906 79.242188 L 277.566406 79.136719 L 274.667969 78.578125 L 271.207031 77.980469 L 267.75 77.441406 L 264.289062 76.964844 L 261.191406 76.59375 L 260.828125 76.546875 L 257.371094 76.171875 L 253.910156 75.859375 L 250.449219 75.609375 L 246.984375 75.417969 L 243.53125 75.296875 Z M 240.070312 75.238281 "/>
</g>
</g>
<g clip-path="url(#clip-16)">
<g clip-path="url(#clip-17)">
<path fill-rule="evenodd" fill="rgb(79.214478%, 22.744751%, 19.999695%)" fill-opacity="1" d="M 302.339844 149.222656 L 298.882812 148.9375 L 295.425781 149.09375 L 291.960938 149.820312 L 290.636719 150.34375 L 288.507812 151.371094 L 286.515625 152.882812 L 285.046875 154.355469 L 284.246094 155.429688 L 282.839844 157.972656 L 281.878906 160.511719 L 281.585938 161.683594 L 281.296875 163.054688 L 280.980469 165.601562 L 280.855469 168.148438 L 280.882812 170.683594 L 281.03125 173.230469 L 281.289062 175.773438 L 281.585938 177.953125 L 281.632812 178.316406 L 282.089844 180.859375 L 282.605469 183.402344 L 283.175781 185.945312 L 283.792969 188.488281 L 284.449219 191.03125 L 285.046875 193.21875 L 285.144531 193.578125 L 285.933594 196.117188 L 286.753906 198.660156 L 287.589844 201.207031 L 288.449219 203.742188 L 288.507812 203.898438 L 289.421875 206.289062 L 290.414062 208.832031 L 291.429688 211.371094 L 291.960938 212.664062 L 292.535156 213.917969 L 293.714844 216.460938 L 294.933594 219.007812 L 295.425781 220.007812 L 296.277344 221.546875 L 297.726562 224.089844 L 298.882812 226.054688 L 299.28125 226.632812 L 301.074219 229.175781 L 302.339844 230.902344 L 303.058594 231.722656 L 305.390625 234.265625 L 305.800781 234.695312 L 308.324219 236.804688 L 309.261719 237.550781 L 312.230469 239.347656 L 312.71875 239.628906 L 316.179688 241.039062 L 319.566406 241.894531 L 319.640625 241.914062 L 323.101562 242.296875 L 326.558594 242.292969 L 330.019531 241.9375 L 330.246094 241.894531 L 333.480469 241.242188 L 336.941406 240.246094 L 339.382812 239.347656 L 340.398438 238.957031 L 343.859375 237.34375 L 344.851562 236.804688 L 347.3125 235.363281 L 348.992188 234.265625 L 350.78125 232.960938 L 352.3125 231.722656 L 354.238281 229.957031 L 355.019531 229.175781 L 357.210938 226.632812 L 357.695312 225.960938 L 358.941406 224.089844 L 360.292969 221.546875 L 361.15625 219.394531 L 361.300781 219.007812 L 361.96875 216.460938 L 362.34375 213.917969 L 362.460938 211.371094 L 362.328125 208.832031 L 361.972656 206.289062 L 361.417969 203.742188 L 361.15625 202.863281 L 360.660156 201.207031 L 359.722656 198.660156 L 358.636719 196.117188 L 357.695312 194.167969 L 357.40625 193.578125 L 356 191.03125 L 354.484375 188.488281 L 354.238281 188.105469 L 352.796875 185.945312 L 351.015625 183.402344 L 350.78125 183.078125 L 349.0625 180.859375 L 347.3125 178.675781 L 347.011719 178.316406 L 344.78125 175.773438 L 343.859375 174.75 L 342.410156 173.230469 L 340.398438 171.15625 L 339.914062 170.683594 L 337.226562 168.148438 L 336.941406 167.875 L 334.308594 165.601562 L 333.480469 164.882812 L 331.175781 163.054688 L 330.019531 162.144531 L 327.757812 160.511719 L 326.558594 159.648438 L 323.980469 157.972656 L 323.101562 157.394531 L 319.738281 155.429688 L 319.640625 155.375 L 316.179688 153.609375 L 314.515625 152.882812 L 312.71875 152.089844 L 309.261719 150.828125 L 307.488281 150.34375 L 305.800781 149.863281 Z M 302.339844 149.222656 "/>
</g>
</g>
<g clip-path="url(#clip-18)">
<g clip-path="url(#clip-19)">
<path fill-rule="evenodd" fill="rgb(58.430481%, 34.509277%, 69.802856%)" fill-opacity="1" d="M 153.578125 150.335938 L 150.121094 149.917969 L 146.664062 150 L 144.1875 150.34375 L 143.203125 150.476562 L 139.742188 151.296875 L 136.285156 152.398438 L 135.058594 152.882812 L 132.820312 153.761719 L 129.359375 155.347656 L 129.214844 155.429688 L 125.898438 157.183594 L 124.570312 157.972656 L 122.441406 159.222656 L 120.460938 160.511719 L 118.980469 161.472656 L 116.761719 163.054688 L 115.519531 163.9375 L 113.378906 165.601562 L 112.0625 166.621094 L 110.253906 168.148438 L 108.601562 169.542969 L 107.34375 170.683594 L 105.140625 172.703125 L 104.609375 173.230469 L 102.058594 175.773438 L 101.6875 176.15625 L 99.691406 178.316406 L 98.222656 179.953125 L 97.449219 180.859375 L 95.359375 183.402344 L 94.761719 184.164062 L 93.425781 185.945312 L 91.609375 188.488281 L 91.308594 188.949219 L 89.972656 191.03125 L 88.453125 193.578125 L 87.847656 194.695312 L 87.09375 196.117188 L 85.90625 198.660156 L 84.871094 201.207031 L 84.382812 202.660156 L 84.023438 203.742188 L 83.375 206.289062 L 82.933594 208.832031 L 82.703125 211.371094 L 82.71875 213.917969 L 82.984375 216.460938 L 83.53125 219.007812 L 84.367188 221.546875 L 84.382812 221.59375 L 85.558594 224.089844 L 87.097656 226.632812 L 87.847656 227.648438 L 89.058594 229.175781 L 91.308594 231.582031 L 91.453125 231.722656 L 94.417969 234.265625 L 94.761719 234.53125 L 98.058594 236.804688 L 98.222656 236.910156 L 101.6875 238.839844 L 102.738281 239.347656 L 105.140625 240.433594 L 108.601562 241.734375 L 109.160156 241.894531 L 112.0625 242.703125 L 115.519531 243.394531 L 118.980469 243.777344 L 122.441406 243.816406 L 125.898438 243.476562 L 129.359375 242.699219 L 131.585938 241.894531 L 132.820312 241.417969 L 136.285156 239.523438 L 136.523438 239.347656 L 139.742188 236.90625 L 139.84375 236.804688 L 142.398438 234.265625 L 143.203125 233.425781 L 144.558594 231.722656 L 146.492188 229.175781 L 146.664062 228.945312 L 148.121094 226.632812 L 149.664062 224.089844 L 150.121094 223.3125 L 151.035156 221.546875 L 152.316406 219.007812 L 153.5625 216.460938 L 153.578125 216.421875 L 154.652344 213.917969 L 155.710938 211.371094 L 156.75 208.832031 L 157.042969 208.09375 L 157.691406 206.289062 L 158.585938 203.742188 L 159.453125 201.207031 L 160.308594 198.660156 L 160.496094 198.050781 L 161.066406 196.117188 L 161.789062 193.578125 L 162.480469 191.03125 L 163.132812 188.488281 L 163.742188 185.945312 L 163.957031 184.949219 L 164.28125 183.402344 L 164.738281 180.859375 L 165.140625 178.316406 L 165.460938 175.773438 L 165.699219 173.230469 L 165.816406 170.683594 L 165.808594 168.148438 L 165.636719 165.601562 L 165.253906 163.054688 L 164.617188 160.511719 L 163.957031 158.71875 L 163.609375 157.972656 L 161.96875 155.429688 L 160.496094 153.785156 L 159.339844 152.882812 L 157.042969 151.492188 L 153.605469 150.34375 Z M 153.578125 150.335938 "/>
</g>
</g>
<g clip-path="url(#clip-20)">
<g clip-path="url(#clip-21)">
<path fill-rule="evenodd" fill="rgb(21.960449%, 59.606934%, 14.901733%)" fill-opacity="1" d="M 229.6875 180.292969 L 226.226562 179.582031 L 222.773438 179.410156 L 219.3125 179.773438 L 215.851562 180.675781 L 215.417969 180.859375 L 212.394531 182.144531 L 210.25 183.402344 L 208.933594 184.195312 L 206.652344 185.945312 L 205.472656 186.875 L 203.792969 188.488281 L 202.015625 190.246094 L 201.339844 191.03125 L 199.21875 193.578125 L 198.554688 194.398438 L 197.34375 196.117188 L 195.609375 198.660156 L 195.09375 199.449219 L 194.074219 201.207031 L 192.636719 203.742188 L 191.632812 205.613281 L 191.300781 206.289062 L 190.121094 208.832031 L 188.984375 211.371094 L 188.175781 213.300781 L 187.933594 213.917969 L 187.011719 216.460938 L 186.140625 219.007812 L 185.335938 221.546875 L 184.714844 223.695312 L 184.609375 224.089844 L 183.992188 226.632812 L 183.453125 229.175781 L 182.996094 231.722656 L 182.632812 234.265625 L 182.371094 236.804688 L 182.21875 239.347656 L 182.199219 241.894531 L 182.335938 244.4375 L 182.636719 246.976562 L 183.136719 249.519531 L 183.875 252.066406 L 184.714844 254.179688 L 184.90625 254.605469 L 186.34375 257.152344 L 188.175781 259.648438 L 188.214844 259.695312 L 190.792969 262.238281 L 191.632812 262.925781 L 194.292969 264.78125 L 195.09375 265.257812 L 198.554688 267 L 199.320312 267.324219 L 202.015625 268.320312 L 205.472656 269.347656 L 207.699219 269.871094 L 208.933594 270.128906 L 212.394531 270.679688 L 215.851562 271.054688 L 219.3125 271.261719 L 222.773438 271.304688 L 226.226562 271.195312 L 229.6875 270.925781 L 233.148438 270.488281 L 236.605469 269.882812 L 236.671875 269.871094 L 240.070312 269.035156 L 243.527344 267.976562 L 245.285156 267.324219 L 246.984375 266.621094 L 250.449219 264.902344 L 250.652344 264.78125 L 253.910156 262.613281 L 254.394531 262.238281 L 257.179688 259.695312 L 257.371094 259.492188 L 259.253906 257.152344 L 260.828125 254.667969 L 260.863281 254.605469 L 262.027344 252.066406 L 262.894531 249.519531 L 263.515625 246.976562 L 263.917969 244.4375 L 264.136719 241.894531 L 264.191406 239.347656 L 264.101562 236.804688 L 263.890625 234.265625 L 263.566406 231.722656 L 263.140625 229.175781 L 262.625 226.632812 L 262.023438 224.089844 L 261.34375 221.546875 L 260.828125 219.765625 L 260.585938 219.007812 L 259.714844 216.460938 L 258.773438 213.917969 L 257.769531 211.371094 L 257.371094 210.40625 L 256.652344 208.832031 L 255.433594 206.289062 L 254.15625 203.742188 L 253.910156 203.28125 L 252.695312 201.207031 L 251.152344 198.660156 L 250.449219 197.539062 L 249.433594 196.117188 L 247.554688 193.578125 L 246.984375 192.828125 L 245.40625 191.03125 L 243.527344 188.964844 L 243.015625 188.488281 L 240.183594 185.945312 L 240.070312 185.839844 L 236.625 183.402344 L 236.605469 183.394531 L 233.148438 181.554688 L 231.257812 180.859375 Z M 229.6875 180.292969 "/>
</g>
</g>
<g clip-path="url(#clip-22)">
<g clip-path="url(#clip-23)">
<path fill-rule="evenodd" fill="rgb(21.960449%, 59.606934%, 14.901733%)" fill-opacity="1" d="M 253.433594 0.300781 L 250.449219 0.746094 L 246.984375 1.296875 L 243.53125 1.875 L 240.070312 2.488281 L 238.1875 2.847656 L 236.605469 3.144531 L 233.148438 3.828125 L 229.691406 4.550781 L 226.226562 5.296875 L 225.851562 5.382812 L 222.773438 6.101562 L 219.308594 6.929688 L 215.851562 7.792969 L 215.335938 7.929688 L 212.394531 8.707031 L 208.933594 9.65625 L 206.074219 10.472656 L 205.46875 10.644531 L 202.015625 11.679688 L 198.554688 12.746094 L 197.730469 13.019531 L 195.09375 13.867188 L 191.632812 15.027344 L 190.109375 15.554688 L 188.175781 16.234375 L 184.714844 17.480469 L 181.253906 18.78125 L 177.796875 20.121094 L 176.492188 20.648438 L 174.335938 21.511719 L 170.875 22.945312 L 170.3125 23.1875 L 167.417969 24.4375 L 164.492188 25.726562 L 163.960938 25.972656 L 160.496094 27.558594 L 158.984375 28.273438 L 157.042969 29.199219 L 153.707031 30.816406 L 153.578125 30.882812 L 150.121094 32.625 L 148.691406 33.359375 L 146.664062 34.421875 L 143.867188 35.90625 L 143.203125 36.261719 L 139.738281 38.15625 L 139.222656 38.445312 L 136.285156 40.109375 L 134.757812 40.988281 L 132.820312 42.113281 L 130.433594 43.53125 L 129.359375 44.171875 L 126.230469 46.078125 L 125.898438 46.277344 L 122.441406 48.441406 L 122.164062 48.617188 L 118.980469 50.667969 L 118.226562 51.160156 L 115.519531 52.941406 L 114.378906 53.707031 L 112.0625 55.265625 L 110.632812 56.25 L 108.601562 57.640625 L 106.964844 58.789062 L 105.140625 60.066406 L 103.378906 61.332031 L 101.6875 62.554688 L 99.875 63.878906 L 98.222656 65.082031 L 96.429688 66.421875 L 94.761719 67.667969 L 93.058594 68.964844 L 91.308594 70.292969 L 89.75 71.503906 L 87.847656 72.980469 L 86.496094 74.046875 L 84.386719 75.710938 L 83.296875 76.59375 L 80.929688 78.488281 L 80.140625 79.136719 L 77.46875 81.320312 L 77.042969 81.683594 L 74.007812 84.195312 L 73.980469 84.21875 L 70.996094 86.765625 L 70.550781 87.144531 L 68.050781 89.308594 L 67.089844 90.136719 L 65.148438 91.847656 L 63.628906 93.179688 L 62.28125 94.398438 L 60.167969 96.277344 L 59.449219 96.9375 L 56.710938 99.425781 L 56.648438 99.480469 L 53.925781 102.019531 L 53.25 102.652344 L 51.242188 104.566406 L 49.789062 105.9375 L 48.582031 107.109375 L 46.332031 109.273438 L 45.953125 109.652344 L 43.378906 112.199219 L 42.871094 112.699219 L 40.863281 114.738281 L 39.410156 116.203125 L 38.367188 117.277344 L 35.957031 119.757812 L 35.894531 119.824219 L 33.511719 122.371094 L 32.492188 123.441406 L 31.140625 124.914062 L 29.03125 127.1875 L 28.792969 127.453125 L 26.519531 129.996094 L 25.578125 131.054688 L 24.277344 132.542969 L 22.113281 135 L 22.046875 135.078125 L 19.898438 137.628906 L 18.652344 139.097656 L 17.765625 140.171875 L 15.671875 142.710938 L 15.195312 143.304688 L 13.640625 145.25 L 11.734375 147.636719 L 11.609375 147.800781 L 9.664062 150.347656 L 8.273438 152.152344 L 7.722656 152.882812 L 5.84375 155.429688 L 4.816406 156.824219 L 3.988281 157.972656 L 2.179688 160.511719 L 1.355469 161.6875 L 0.40625 163.054688 L 0 163.652344 L 0 186.535156 L 0.269531 185.945312 L 1.355469 183.589844 L 1.445312 183.402344 L 2.765625 180.859375 L 4.066406 178.316406 L 4.816406 176.894531 L 5.433594 175.773438 L 6.875 173.230469 L 8.273438 170.738281 L 8.308594 170.683594 L 9.878906 168.148438 L 11.425781 165.601562 L 11.734375 165.113281 L 13.09375 163.054688 L 14.753906 160.511719 L 15.195312 159.84375 L 16.503906 157.96875 L 18.265625 155.429688 L 18.652344 154.875 L 20.132812 152.882812 L 21.972656 150.347656 L 22.113281 150.160156 L 23.949219 147.800781 L 25.578125 145.679688 L 25.910156 145.25 L 27.972656 142.710938 L 29.03125 141.398438 L 30.066406 140.171875 L 32.1875 137.628906 L 32.492188 137.261719 L 34.410156 135.078125 L 35.957031 133.296875 L 36.640625 132.542969 L 38.929688 129.996094 L 39.410156 129.464844 L 41.300781 127.453125 L 42.871094 125.75 L 43.683594 124.914062 L 46.109375 122.371094 L 46.332031 122.132812 L 48.640625 119.824219 L 49.789062 118.652344 L 51.195312 117.277344 L 53.25 115.242188 L 53.777344 114.738281 L 56.414062 112.199219 L 56.710938 111.914062 L 59.144531 109.652344 L 60.167969 108.6875 L 61.910156 107.109375 L 63.628906 105.527344 L 64.714844 104.566406 L 67.089844 102.429688 L 67.558594 102.019531 L 70.449219 99.480469 L 70.550781 99.394531 L 73.4375 96.9375 L 74.007812 96.445312 L 76.472656 94.398438 L 77.46875 93.558594 L 79.558594 91.847656 L 80.929688 90.722656 L 82.691406 89.308594 L 84.386719 87.941406 L 85.882812 86.765625 L 87.847656 85.214844 L 89.132812 84.21875 L 91.308594 82.542969 L 92.449219 81.683594 L 94.761719 79.925781 L 95.832031 79.136719 L 98.222656 77.359375 L 99.285156 76.59375 L 101.6875 74.851562 L 102.8125 74.046875 L 105.140625 72.390625 L 106.414062 71.503906 L 108.601562 69.988281 L 110.109375 68.964844 L 112.0625 67.644531 L 113.890625 66.421875 L 115.519531 65.34375 L 117.769531 63.878906 L 118.980469 63.09375 L 121.746094 61.332031 L 122.441406 60.894531 L 125.828125 58.789062 L 125.898438 58.746094 L 129.359375 56.683594 L 130.097656 56.25 L 132.820312 54.667969 L 134.5 53.707031 L 136.285156 52.699219 L 139.03125 51.160156 L 139.738281 50.773438 L 143.203125 48.910156 L 143.753906 48.617188 L 146.664062 47.132812 L 148.710938 46.078125 L 150.121094 45.375 L 153.578125 43.667969 L 153.859375 43.53125 L 157.042969 42.054688 L 159.328125 40.988281 L 160.496094 40.460938 L 163.960938 38.9375 L 165.089844 38.445312 L 167.417969 37.476562 L 170.875 36.035156 L 171.203125 35.90625 L 174.335938 34.695312 L 177.769531 33.359375 L 177.796875 33.347656 L 181.253906 32.121094 L 184.714844 30.886719 L 184.914062 30.816406 L 188.175781 29.757812 L 191.632812 28.632812 L 192.777344 28.273438 L 195.09375 27.585938 L 198.554688 26.578125 L 201.511719 25.726562 L 202.015625 25.597656 L 205.46875 24.707031 L 208.933594 23.835938 L 211.570312 23.1875 L 212.394531 22.996094 L 215.851562 22.246094 L 219.308594 21.507812 L 222.773438 20.800781 L 223.582031 20.648438 L 226.226562 20.167969 L 229.691406 19.574219 L 233.148438 19.011719 L 236.605469 18.480469 L 239.226562 18.101562 L 240.070312 17.988281 L 243.53125 17.566406 L 246.984375 17.167969 L 250.449219 16.816406 L 253.910156 16.492188 L 257.371094 16.195312 L 260.828125 15.9375 L 264.289062 15.714844 L 267.226562 15.554688 L 267.75 15.53125 L 271.207031 15.398438 L 274.667969 15.300781 L 278.128906 15.234375 L 281.585938 15.203125 L 285.042969 15.203125 L 288.507812 15.238281 L 291.960938 15.300781 L 295.425781 15.398438 L 298.882812 15.53125 L 299.421875 15.554688 L 302.339844 15.710938 L 305.800781 15.925781 L 309.265625 16.167969 L 312.71875 16.441406 L 316.179688 16.746094 L 319.640625 17.070312 L 323.101562 17.425781 L 326.558594 17.808594 L 329.109375 18.101562 L 330.019531 18.21875 L 333.480469 18.691406 L 336.941406 19.175781 L 340.398438 19.679688 L 343.859375 20.203125 L 346.738281 20.648438 L 347.3125 20.742188 L 350.78125 21.347656 L 354.238281 21.964844 L 357.695312 22.585938 L 361.011719 23.1875 L 361.15625 23.214844 L 364.617188 23.921875 L 368.074219 24.625 L 371.535156 25.328125 L 373.523438 25.726562 L 374.996094 26.058594 L 378.453125 26.839844 L 381.914062 27.605469 L 384.921875 28.273438 L 385.375 28.386719 L 388.835938 29.230469 L 392.292969 30.058594 L 395.492188 30.816406 L 395.753906 30.886719 L 399.214844 31.785156 L 402.671875 32.675781 L 405.378906 33.359375 L 406.132812 33.570312 L 409.59375 34.523438 L 413.046875 35.464844 L 414.683594 35.90625 L 416.507812 36.441406 L 419.972656 37.445312 L 423.425781 38.433594 L 423.484375 38.445312 L 426.886719 39.503906 L 430.347656 40.558594 L 431.777344 40.988281 L 433.804688 41.652344 L 437.265625 42.773438 L 439.652344 43.53125 L 440.726562 43.902344 L 444.183594 45.089844 L 447.140625 46.078125 L 447.648438 46.257812 L 449.003906 46.746094 L 449.003906 0.300781 Z M 260.828125 59.972656 L 257.371094 59.988281 L 253.910156 60.046875 L 250.449219 60.148438 L 246.984375 60.296875 L 243.53125 60.5 L 240.070312 60.75 L 236.605469 61.058594 L 234.027344 61.332031 L 233.148438 61.417969 L 229.691406 61.804688 L 226.226562 62.253906 L 222.773438 62.765625 L 219.308594 63.359375 L 216.625 63.878906 L 215.851562 64.011719 L 212.394531 64.679688 L 208.933594 65.441406 L 205.46875 66.296875 L 205.011719 66.421875 L 202.015625 67.15625 L 198.554688 68.105469 L 195.769531 68.964844 L 195.09375 69.152344 L 191.632812 70.210938 L 188.175781 71.40625 L 187.894531 71.503906 L 184.714844 72.59375 L 181.253906 73.925781 L 180.953125 74.046875 L 177.796875 75.261719 L 174.699219 76.59375 L 174.335938 76.734375 L 170.875 78.230469 L 168.964844 79.136719 L 167.417969 79.832031 L 163.960938 81.53125 L 163.671875 81.683594 L 160.496094 83.257812 L 158.71875 84.21875 L 157.042969 85.097656 L 154.074219 86.765625 L 153.578125 87.039062 L 150.121094 89.042969 L 149.683594 89.308594 L 146.664062 91.109375 L 145.488281 91.847656 L 143.203125 93.277344 L 141.5 94.394531 L 139.738281 95.535156 L 137.6875 96.9375 L 136.285156 97.886719 L 134.019531 99.480469 L 132.820312 100.324219 L 130.488281 102.019531 L 129.359375 102.84375 L 127.074219 104.566406 L 125.898438 105.453125 L 123.765625 107.109375 L 122.441406 108.148438 L 120.558594 109.652344 L 118.980469 110.925781 L 117.4375 112.199219 L 115.519531 113.796875 L 114.410156 114.738281 L 112.0625 116.757812 L 111.464844 117.277344 L 108.601562 119.8125 L 108.585938 119.824219 L 105.734375 122.371094 L 105.140625 122.902344 L 102.941406 124.914062 L 101.6875 126.082031 L 100.214844 127.453125 L 98.222656 129.355469 L 97.542969 129.996094 L 94.929688 132.542969 L 94.761719 132.699219 L 92.300781 135.078125 L 91.308594 136.074219 L 89.722656 137.625 L 87.847656 139.527344 L 87.203125 140.171875 L 84.710938 142.710938 L 84.386719 143.050781 L 82.203125 145.25 L 80.929688 146.597656 L 79.753906 147.796875 L 77.46875 150.230469 L 77.355469 150.34375 L 74.910156 152.882812 L 74.007812 153.867188 L 72.511719 155.429688 L 70.550781 157.574219 L 70.167969 157.96875 L 67.792969 160.511719 L 67.089844 161.296875 L 65.4375 163.054688 L 63.628906 165.078125 L 63.136719 165.601562 L 60.816406 168.148438 L 60.167969 168.882812 L 58.5 170.683594 L 56.710938 172.726562 L 56.246094 173.230469 L 53.964844 175.773438 L 53.25 176.601562 L 51.6875 178.3125 L 49.789062 180.535156 L 49.492188 180.855469 L 47.242188 183.402344 L 46.332031 184.5 L 45.039062 185.945312 L 42.925781 188.488281 L 42.871094 188.558594 L 40.726562 191.027344 L 39.410156 192.683594 L 38.644531 193.574219 L 36.59375 196.117188 L 35.957031 196.964844 L 34.558594 198.660156 L 32.667969 201.207031 L 32.492188 201.464844 L 30.734375 203.742188 L 29.03125 206.277344 L 29.027344 206.289062 L 27.234375 208.832031 L 25.699219 211.371094 L 25.578125 211.609375 L 24.105469 213.917969 L 22.730469 216.460938 L 22.113281 217.769531 L 21.414062 219.007812 L 20.152344 221.542969 L 19.082031 224.089844 L 18.652344 225.257812 L 18.023438 226.632812 L 17.011719 229.175781 L 16.148438 231.722656 L 15.394531 234.261719 L 15.195312 235.042969 L 14.605469 236.804688 L 13.875 239.347656 L 13.234375 241.894531 L 12.671875 244.4375 L 12.175781 246.976562 L 11.734375 249.519531 L 11.734375 249.523438 L 11.230469 252.066406 L 10.789062 254.601562 L 10.390625 257.148438 L 10.046875 259.695312 L 9.730469 262.238281 L 9.457031 264.773438 L 9.207031 267.320312 L 8.980469 269.867188 L 8.777344 272.40625 L 8.589844 274.953125 L 8.417969 277.492188 L 8.273438 279.835938 L 8.25 280.039062 L 8.042969 282.578125 L 7.632812 287.667969 L 7.414062 290.207031 L 7.179688 292.753906 L 6.925781 295.296875 L 6.628906 297.835938 L 6.277344 300.378906 L 5.851562 302.925781 L 5.3125 305.472656 L 4.816406 307.347656 L 3.597656 308.011719 L 1.355469 308.796875 L 0.84375 308.011719 L 0 306.941406 L 0 379.21875 L 105.652344 379.21875 L 105.140625 378.476562 L 103.929688 376.675781 L 102.210938 374.132812 L 101.6875 373.359375 L 100.5 371.589844 L 98.785156 369.042969 L 98.222656 368.214844 L 97.089844 366.5 L 95.394531 363.960938 L 94.761719 363.027344 L 93.714844 361.417969 L 92.035156 358.871094 L 91.308594 357.777344 L 90.371094 356.328125 L 88.714844 353.789062 L 87.847656 352.457031 L 87.070312 351.246094 L 85.441406 348.703125 L 84.386719 347.0625 L 83.820312 346.15625 L 82.214844 343.613281 L 80.929688 341.570312 L 80.617188 341.070312 L 79.039062 338.535156 L 77.46875 335.984375 L 77.46875 335.980469 L 74.375 330.902344 L 74.007812 330.300781 L 72.851562 328.355469 L 71.332031 325.816406 L 70.550781 324.507812 L 69.828125 323.265625 L 68.339844 320.730469 L 67.089844 318.585938 L 66.859375 318.183594 L 65.402344 315.640625 L 63.953125 313.101562 L 63.628906 312.542969 L 62.519531 310.558594 L 61.101562 308.011719 L 60.167969 306.34375 L 59.695312 305.472656 L 58.308594 302.925781 L 56.933594 300.382812 L 56.710938 299.972656 L 55.582031 297.839844 L 54.242188 295.300781 L 53.25 293.402344 L 52.921875 292.753906 L 51.628906 290.207031 L 50.34375 287.671875 L 49.789062 286.574219 L 49.085938 285.125 L 47.851562 282.578125 L 46.636719 280.042969 L 46.332031 279.398438 L 45.449219 277.496094 L 44.292969 274.953125 L 43.164062 272.40625 L 42.871094 271.753906 L 42.070312 269.871094 L 41.007812 267.324219 L 39.980469 264.78125 L 39.410156 263.355469 L 38.996094 262.238281 L 38.050781 259.695312 L 37.160156 257.152344 L 36.324219 254.605469 L 35.957031 253.414062 L 35.550781 252.066406 L 34.835938 249.519531 L 34.203125 246.976562 L 33.660156 244.4375 L 33.207031 241.894531 L 32.867188 239.347656 L 32.640625 236.804688 L 32.535156 234.265625 L 32.570312 231.722656 L 32.730469 229.175781 L 33.046875 226.632812 L 33.539062 224.089844 L 34.222656 221.546875 L 35.121094 219.007812 L 35.957031 217.136719 L 36.214844 216.460938 L 37.417969 213.921875 L 38.84375 211.375 L 39.410156 210.464844 L 40.359375 208.832031 L 42.003906 206.289062 L 42.871094 205.050781 L 43.730469 203.742188 L 45.535156 201.207031 L 46.332031 200.144531 L 47.390625 198.660156 L 49.328125 196.117188 L 49.789062 195.53125 L 51.265625 193.578125 L 53.25 191.109375 L 53.316406 191.03125 L 55.316406 188.488281 L 56.710938 186.824219 L 57.410156 185.945312 L 59.523438 183.402344 L 60.167969 182.648438 L 61.648438 180.859375 L 63.628906 178.582031 L 63.851562 178.316406 L 66.015625 175.773438 L 67.089844 174.566406 L 68.238281 173.230469 L 70.515625 170.683594 L 70.550781 170.652344 L 72.746094 168.148438 L 74.007812 166.761719 L 75.042969 165.601562 L 77.398438 163.054688 L 77.46875 162.984375 L 79.710938 160.511719 L 80.929688 159.230469 L 82.085938 157.972656 L 84.386719 155.574219 L 84.527344 155.429688 L 86.941406 152.882812 L 87.847656 151.957031 L 89.398438 150.347656 L 91.308594 148.425781 L 91.917969 147.800781 L 94.464844 145.25 L 94.761719 144.960938 L 97.023438 142.710938 L 98.222656 141.550781 L 99.632812 140.171875 L 101.6875 138.222656 L 102.308594 137.628906 L 105.03125 135.082031 L 105.140625 134.980469 L 107.773438 132.542969 L 108.601562 131.785156 L 110.582031 129.996094 L 112.0625 128.683594 L 113.464844 127.453125 L 115.519531 125.675781 L 116.414062 124.914062 L 118.980469 122.75 L 119.441406 122.371094 L 122.441406 119.917969 L 122.558594 119.824219 L 125.753906 117.277344 L 125.898438 117.167969 L 129.050781 114.738281 L 129.359375 114.5 L 132.464844 112.199219 L 132.820312 111.933594 L 135.996094 109.652344 L 136.285156 109.449219 L 139.675781 107.109375 L 139.738281 107.066406 L 143.203125 104.761719 L 143.511719 104.566406 L 146.664062 102.546875 L 147.523438 102.019531 L 150.121094 100.429688 L 151.753906 99.480469 L 153.578125 98.40625 L 156.230469 96.9375 L 157.042969 96.480469 L 160.496094 94.648438 L 161.003906 94.394531 L 163.960938 92.878906 L 166.140625 91.847656 L 167.417969 91.226562 L 170.875 89.660156 L 171.714844 89.308594 L 174.335938 88.160156 L 177.796875 86.789062 L 177.875 86.765625 L 181.253906 85.453125 L 184.714844 84.25 L 184.804688 84.21875 L 188.175781 83.078125 L 191.632812 82.023438 L 192.90625 81.683594 L 195.09375 81.039062 L 198.554688 80.128906 L 202.015625 79.324219 L 202.929688 79.136719 L 205.46875 78.566406 L 208.933594 77.890625 L 212.394531 77.296875 L 215.851562 76.796875 L 217.519531 76.59375 L 219.308594 76.351562 L 222.773438 75.976562 L 226.226562 75.683594 L 229.691406 75.460938 L 233.148438 75.320312 L 236.605469 75.242188 L 240.070312 75.238281 L 243.53125 75.296875 L 246.984375 75.417969 L 250.449219 75.609375 L 253.910156 75.859375 L 257.371094 76.171875 L 260.828125 76.546875 L 261.191406 76.59375 L 264.289062 76.964844 L 267.75 77.441406 L 271.207031 77.980469 L 274.667969 78.578125 L 277.566406 79.136719 L 278.128906 79.242188 L 281.585938 79.9375 L 285.042969 80.695312 L 288.507812 81.527344 L 289.128906 81.683594 L 291.960938 82.386719 L 295.425781 83.308594 L 298.648438 84.21875 L 298.882812 84.289062 L 302.339844 85.308594 L 305.800781 86.382812 L 306.976562 86.765625 L 309.265625 87.511719 L 312.71875 88.683594 L 314.507812 89.308594 L 316.179688 89.90625 L 319.640625 91.164062 L 321.457031 91.847656 L 323.101562 92.480469 L 326.558594 93.828125 L 327.980469 94.398438 L 330.019531 95.21875 L 333.480469 96.648438 L 334.171875 96.9375 L 336.941406 98.109375 L 340.109375 99.480469 L 340.398438 99.605469 L 343.859375 101.136719 L 345.847656 102.019531 L 347.3125 102.695312 L 350.78125 104.28125 L 351.402344 104.570312 L 354.238281 105.894531 L 356.820312 107.109375 L 357.695312 107.53125 L 361.15625 109.199219 L 362.097656 109.652344 L 364.617188 110.894531 L 367.257812 112.199219 L 368.074219 112.609375 L 371.535156 114.359375 L 372.289062 114.738281 L 374.996094 116.132812 L 377.214844 117.277344 L 378.453125 117.941406 L 381.914062 119.777344 L 382 119.824219 L 385.375 121.652344 L 386.691406 122.371094 L 388.835938 123.5625 L 391.253906 124.914062 L 392.292969 125.503906 L 395.695312 127.453125 L 395.753906 127.488281 L 399.214844 129.515625 L 400.046875 129.996094 L 402.671875 131.570312 L 404.292969 132.542969 L 406.132812 133.667969 L 408.453125 135.078125 L 409.59375 135.796875 L 412.527344 137.628906 L 413.046875 137.957031 L 416.507812 140.144531 L 416.550781 140.171875 L 419.972656 142.351562 L 420.53125 142.710938 L 423.425781 144.585938 L 424.484375 145.25 L 426.886719 146.820312 L 428.414062 147.800781 L 430.347656 149.058594 L 432.339844 150.347656 L 433.804688 151.300781 L 436.265625 152.882812 L 437.265625 153.539062 L 440.203125 155.429688 L 440.726562 155.765625 L 444.160156 157.972656 L 444.183594 157.988281 L 447.648438 160.191406 L 448.15625 160.511719 L 449.003906 161.046875 L 449.003906 102.160156 L 448.632812 102.019531 L 447.648438 101.65625 L 444.183594 100.375 L 441.6875 99.480469 L 440.726562 99.136719 L 437.265625 97.902344 L 434.441406 96.9375 L 433.804688 96.714844 L 430.347656 95.53125 L 426.898438 94.394531 L 423.429688 93.238281 L 419.972656 92.125 L 419.117188 91.847656 L 416.511719 91.011719 L 413.046875 89.925781 L 411.058594 89.308594 L 409.59375 88.851562 L 406.132812 87.777344 L 402.753906 86.765625 L 402.671875 86.738281 L 399.214844 85.675781 L 395.753906 84.652344 L 394.308594 84.21875 L 392.292969 83.621094 L 388.835938 82.597656 L 385.628906 81.683594 L 385.375 81.601562 L 381.914062 80.582031 L 378.453125 79.601562 L 376.796875 79.136719 L 374.996094 78.617188 L 371.535156 77.644531 L 368.074219 76.707031 L 367.660156 76.59375 L 364.617188 75.75 L 361.15625 74.824219 L 358.152344 74.046875 L 357.699219 73.925781 L 354.238281 73.023438 L 350.78125 72.15625 L 348.078125 71.503906 L 347.3125 71.320312 L 343.859375 70.480469 L 340.398438 69.683594 L 337.09375 68.964844 L 336.941406 68.929688 L 333.480469 68.167969 L 330.019531 67.445312 L 326.558594 66.769531 L 324.691406 66.421875 L 323.105469 66.113281 L 319.640625 65.472656 L 316.179688 64.875 L 312.71875 64.328125 L 309.730469 63.878906 L 309.265625 63.804688 L 305.800781 63.292969 L 302.339844 62.816406 L 298.882812 62.386719 L 295.425781 61.992188 L 291.964844 61.640625 L 288.65625 61.332031 L 288.507812 61.316406 L 285.046875 61.015625 L 281.585938 60.746094 L 278.128906 60.519531 L 274.667969 60.328125 L 271.207031 60.183594 L 267.75 60.070312 L 264.289062 60 Z M 260.828125 59.972656 "/>
</g>
</g>
<g clip-path="url(#clip-24)">
<g clip-path="url(#clip-25)">
<path fill-rule="evenodd" fill="rgb(21.960449%, 59.606934%, 14.901733%)" fill-opacity="1" d="M 128.523438 0.300781 L 125.898438 1.886719 L 124.402344 2.847656 L 122.441406 4.058594 L 120.390625 5.382812 L 118.980469 6.28125 L 116.496094 7.929688 L 115.519531 8.554688 L 112.675781 10.472656 L 112.0625 10.878906 L 108.949219 13.019531 L 108.601562 13.25 L 105.296875 15.554688 L 105.140625 15.660156 L 101.714844 18.101562 L 101.6875 18.128906 L 98.222656 20.625 L 98.207031 20.648438 L 94.761719 23.175781 L 94.753906 23.1875 L 91.359375 25.726562 L 91.308594 25.769531 L 88.023438 28.273438 L 87.847656 28.40625 L 84.730469 30.816406 L 84.386719 31.085938 L 81.496094 33.359375 L 80.929688 33.804688 L 78.304688 35.90625 L 77.46875 36.574219 L 75.152344 38.445312 L 74.007812 39.382812 L 72.050781 40.988281 L 70.550781 42.234375 L 68.988281 43.53125 L 67.089844 45.132812 L 65.964844 46.078125 L 63.628906 48.078125 L 62.992188 48.617188 L 60.167969 51.066406 L 60.058594 51.160156 L 57.113281 53.707031 L 56.710938 54.058594 L 54.199219 56.25 L 53.25 57.09375 L 51.328125 58.789062 L 49.789062 60.167969 L 48.480469 61.332031 L 46.335938 63.292969 L 45.683594 63.878906 L 42.917969 66.421875 L 42.871094 66.457031 L 40.117188 68.964844 L 39.410156 69.617188 L 37.351562 71.503906 L 35.957031 72.820312 L 34.621094 74.046875 L 32.492188 76.074219 L 31.9375 76.59375 L 29.265625 79.136719 L 29.03125 79.363281 L 26.574219 81.683594 L 25.578125 82.652344 L 23.914062 84.21875 L 22.113281 85.992188 L 21.308594 86.765625 L 18.730469 89.308594 L 18.652344 89.382812 L 16.109375 91.847656 L 15.195312 92.773438 L 13.527344 94.394531 L 11.734375 96.21875 L 11 96.9375 L 8.5 99.480469 L 8.273438 99.714844 L 5.957031 102.019531 L 4.816406 103.214844 L 3.464844 104.566406 L 1.355469 106.789062 L 1.035156 107.109375 L 0 108.179688 L 0 123.574219 L 1.0625 122.371094 L 1.355469 122.042969 L 3.296875 119.824219 L 4.816406 118.167969 L 5.601562 117.277344 L 7.941406 114.738281 L 8.273438 114.382812 L 10.277344 112.199219 L 11.734375 110.660156 L 12.671875 109.652344 L 15.121094 107.109375 L 15.195312 107.035156 L 17.546875 104.566406 L 18.652344 103.445312 L 20.027344 102.019531 L 22.113281 99.933594 L 22.558594 99.480469 L 25.101562 96.9375 L 25.578125 96.46875 L 27.652344 94.394531 L 29.03125 93.058594 L 30.261719 91.847656 L 32.492188 89.710938 L 32.910156 89.308594 L 35.574219 86.765625 L 35.957031 86.402344 L 38.246094 84.21875 L 39.410156 83.140625 L 40.96875 81.683594 L 42.871094 79.929688 L 43.726562 79.136719 L 46.335938 76.773438 L 46.53125 76.59375 L 49.335938 74.046875 L 49.789062 73.644531 L 52.175781 71.503906 L 53.25 70.5625 L 55.0625 68.964844 L 56.710938 67.53125 L 57.988281 66.421875 L 60.167969 64.546875 L 60.953125 63.878906 L 63.628906 61.609375 L 63.960938 61.332031 L 67.003906 58.789062 L 67.089844 58.722656 L 70.074219 56.25 L 70.550781 55.863281 L 73.195312 53.707031 L 74.007812 53.050781 L 76.367188 51.160156 L 77.46875 50.285156 L 79.59375 48.617188 L 80.929688 47.570312 L 82.867188 46.078125 L 84.386719 44.90625 L 86.199219 43.53125 L 87.847656 42.285156 L 89.589844 40.988281 L 91.308594 39.710938 L 93.039062 38.445312 L 94.765625 37.1875 L 96.5625 35.90625 L 98.222656 34.710938 L 100.152344 33.359375 L 101.6875 32.28125 L 103.820312 30.816406 L 105.140625 29.902344 L 107.574219 28.273438 L 108.601562 27.578125 L 111.410156 25.726562 L 112.0625 25.296875 L 115.339844 23.1875 L 115.519531 23.070312 L 118.980469 20.878906 L 119.367188 20.648438 L 122.441406 18.734375 L 123.5 18.101562 L 125.898438 16.640625 L 127.75 15.554688 L 129.359375 14.601562 L 132.132812 13.019531 L 132.820312 12.613281 L 136.285156 10.671875 L 136.648438 10.472656 L 139.742188 8.761719 L 141.3125 7.929688 L 143.203125 6.90625 L 146.136719 5.382812 L 146.664062 5.105469 L 150.121094 3.34375 L 151.144531 2.847656 L 153.582031 1.621094 L 156.34375 0.300781 Z M 128.523438 0.300781 "/>
</g>
</g>
<g clip-path="url(#clip-26)">
<g clip-path="url(#clip-27)">
<path fill-rule="evenodd" fill="rgb(31.764221%, 53.72467%, 15.686035%)" fill-opacity="1" d="M 0 0.300781 L 0 7.34375 L 1.355469 6.164062 L 2.253906 5.382812 L 4.816406 3.183594 L 5.214844 2.847656 L 8.207031 0.300781 Z M 0 0.300781 "/>
</g>
</g>
<g clip-path="url(#clip-28)">
<g clip-path="url(#clip-29)">
<path fill-rule="evenodd" fill="rgb(58.430481%, 34.509277%, 69.802856%)" fill-opacity="1" d="M 67.621094 0.300781 L 67.089844 0.660156 L 63.886719 2.847656 L 63.628906 3.023438 L 60.210938 5.382812 L 60.167969 5.414062 L 56.710938 7.859375 L 56.617188 7.929688 L 53.25 10.347656 L 53.078125 10.472656 L 49.789062 12.875 L 49.601562 13.019531 L 46.332031 15.4375 L 46.175781 15.554688 L 42.871094 18.046875 L 42.804688 18.101562 L 39.484375 20.648438 L 39.410156 20.699219 L 36.238281 23.1875 L 35.957031 23.410156 L 33.046875 25.726562 L 32.492188 26.167969 L 29.910156 28.273438 L 29.03125 28.976562 L 26.8125 30.816406 L 25.578125 31.832031 L 23.765625 33.359375 L 22.113281 34.742188 L 20.761719 35.90625 L 18.652344 37.695312 L 17.800781 38.445312 L 15.195312 40.703125 L 14.875 40.988281 L 12.015625 43.53125 L 11.734375 43.78125 L 9.230469 46.078125 L 8.273438 46.9375 L 6.480469 48.617188 L 4.816406 50.152344 L 3.757812 51.160156 L 1.355469 53.414062 L 1.058594 53.707031 L 0 54.734375 L 0 108.179688 L 1.035156 107.109375 L 1.355469 106.789062 L 3.464844 104.566406 L 4.816406 103.214844 L 5.957031 102.019531 L 8.273438 99.714844 L 8.5 99.480469 L 11 96.9375 L 11.734375 96.21875 L 13.527344 94.394531 L 15.195312 92.773438 L 16.109375 91.847656 L 18.652344 89.382812 L 18.730469 89.308594 L 21.308594 86.765625 L 22.113281 85.992188 L 23.914062 84.21875 L 25.578125 82.652344 L 26.574219 81.683594 L 29.03125 79.363281 L 29.265625 79.136719 L 31.9375 76.59375 L 32.492188 76.074219 L 34.621094 74.046875 L 35.957031 72.820312 L 37.351562 71.503906 L 39.410156 69.617188 L 40.117188 68.964844 L 42.871094 66.457031 L 42.917969 66.421875 L 45.683594 63.878906 L 46.332031 63.292969 L 48.480469 61.332031 L 49.789062 60.167969 L 51.328125 58.789062 L 53.25 57.09375 L 54.199219 56.25 L 56.710938 54.058594 L 57.113281 53.707031 L 60.058594 51.160156 L 60.167969 51.066406 L 62.992188 48.617188 L 63.628906 48.078125 L 65.964844 46.078125 L 67.089844 45.132812 L 68.988281 43.53125 L 70.550781 42.234375 L 72.050781 40.988281 L 74.007812 39.378906 L 75.152344 38.445312 L 77.46875 36.574219 L 78.304688 35.90625 L 80.929688 33.804688 L 81.496094 33.359375 L 84.386719 31.085938 L 84.730469 30.816406 L 87.847656 28.40625 L 88.019531 28.273438 L 91.308594 25.769531 L 91.359375 25.726562 L 94.753906 23.1875 L 94.761719 23.175781 L 98.203125 20.648438 L 98.222656 20.625 L 101.6875 18.128906 L 101.714844 18.101562 L 105.140625 15.660156 L 105.296875 15.554688 L 108.601562 13.25 L 108.949219 13.019531 L 112.0625 10.878906 L 112.675781 10.472656 L 115.519531 8.554688 L 116.492188 7.929688 L 118.980469 6.28125 L 120.390625 5.382812 L 122.441406 4.058594 L 124.402344 2.847656 L 125.894531 1.886719 L 128.523438 0.300781 Z M 48.058594 0.300781 L 46.332031 1.605469 L 44.726562 2.847656 L 42.871094 4.261719 L 41.429688 5.382812 L 39.410156 6.953125 L 38.171875 7.929688 L 35.957031 9.675781 L 34.960938 10.472656 L 32.492188 12.441406 L 31.789062 13.019531 L 29.03125 15.246094 L 28.652344 15.554688 L 25.578125 18.085938 L 25.554688 18.101562 L 22.511719 20.648438 L 22.113281 20.980469 L 19.515625 23.1875 L 18.652344 23.917969 L 16.550781 25.726562 L 15.195312 26.894531 L 13.617188 28.273438 L 11.734375 29.914062 L 10.71875 30.816406 L 8.273438 32.96875 L 7.847656 33.359375 L 5.015625 35.90625 L 4.816406 36.085938 L 2.25 38.445312 L 1.355469 39.261719 L 0 40.523438 L 0 54.734375 L 1.058594 53.707031 L 1.355469 53.414062 L 3.757812 51.160156 L 4.816406 50.152344 L 6.480469 48.617188 L 8.273438 46.9375 L 9.230469 46.078125 L 11.734375 43.78125 L 12.015625 43.53125 L 14.875 40.988281 L 15.195312 40.703125 L 17.800781 38.445312 L 18.652344 37.695312 L 20.761719 35.90625 L 22.113281 34.742188 L 23.765625 33.359375 L 25.578125 31.832031 L 26.8125 30.816406 L 29.03125 28.976562 L 29.90625 28.273438 L 32.492188 26.167969 L 33.046875 25.726562 L 35.957031 23.410156 L 36.238281 23.1875 L 39.410156 20.699219 L 39.484375 20.648438 L 42.804688 18.101562 L 42.871094 18.046875 L 46.175781 15.554688 L 46.332031 15.4375 L 49.601562 13.019531 L 49.789062 12.875 L 53.078125 10.472656 L 53.25 10.347656 L 56.617188 7.929688 L 56.710938 7.859375 L 60.167969 5.414062 L 60.210938 5.382812 L 63.628906 3.023438 L 63.886719 2.847656 L 67.089844 0.660156 L 67.621094 0.300781 Z M 48.058594 0.300781 "/>
</g>
</g>
<g clip-path="url(#clip-30)">
<g clip-path="url(#clip-31)">
<path fill-rule="evenodd" fill="rgb(58.430481%, 34.509277%, 69.802856%)" fill-opacity="1" d="M 281.585938 15.203125 L 278.128906 15.234375 L 274.667969 15.300781 L 271.207031 15.398438 L 267.75 15.53125 L 267.226562 15.554688 L 264.289062 15.714844 L 260.828125 15.9375 L 257.371094 16.195312 L 253.910156 16.488281 L 250.449219 16.816406 L 246.984375 17.167969 L 243.53125 17.566406 L 240.070312 17.988281 L 239.226562 18.101562 L 236.605469 18.480469 L 233.148438 19.011719 L 229.691406 19.574219 L 226.226562 20.167969 L 223.582031 20.648438 L 222.773438 20.800781 L 219.308594 21.507812 L 215.851562 22.246094 L 212.394531 22.996094 L 211.570312 23.1875 L 208.933594 23.835938 L 205.46875 24.707031 L 202.015625 25.597656 L 201.511719 25.726562 L 198.554688 26.578125 L 195.09375 27.585938 L 192.777344 28.273438 L 191.632812 28.632812 L 188.175781 29.757812 L 184.914062 30.816406 L 184.714844 30.886719 L 181.253906 32.121094 L 177.796875 33.347656 L 177.769531 33.359375 L 174.335938 34.695312 L 171.203125 35.90625 L 170.875 36.035156 L 167.417969 37.476562 L 165.089844 38.445312 L 163.960938 38.9375 L 160.496094 40.460938 L 159.328125 40.988281 L 157.042969 42.054688 L 153.859375 43.53125 L 153.578125 43.667969 L 150.121094 45.371094 L 148.710938 46.078125 L 146.664062 47.132812 L 143.753906 48.617188 L 143.203125 48.910156 L 139.738281 50.773438 L 139.03125 51.160156 L 136.285156 52.699219 L 134.5 53.707031 L 132.820312 54.664062 L 130.097656 56.25 L 129.359375 56.683594 L 125.898438 58.746094 L 125.828125 58.789062 L 122.441406 60.894531 L 121.746094 61.332031 L 118.980469 63.089844 L 117.769531 63.878906 L 115.519531 65.34375 L 113.890625 66.421875 L 112.0625 67.640625 L 110.109375 68.964844 L 108.601562 69.988281 L 106.414062 71.503906 L 105.140625 72.390625 L 102.8125 74.046875 L 101.6875 74.851562 L 99.285156 76.59375 L 98.222656 77.359375 L 95.832031 79.136719 L 94.761719 79.925781 L 92.449219 81.683594 L 91.308594 82.542969 L 89.132812 84.21875 L 87.847656 85.214844 L 85.882812 86.765625 L 84.386719 87.941406 L 82.691406 89.308594 L 80.929688 90.722656 L 79.558594 91.847656 L 77.46875 93.558594 L 76.472656 94.394531 L 74.007812 96.445312 L 73.4375 96.9375 L 70.550781 99.390625 L 70.449219 99.480469 L 67.558594 102.019531 L 67.089844 102.429688 L 64.714844 104.566406 L 63.628906 105.527344 L 61.910156 107.109375 L 60.167969 108.6875 L 59.144531 109.652344 L 56.710938 111.910156 L 56.414062 112.199219 L 53.777344 114.738281 L 53.25 115.242188 L 51.195312 117.277344 L 49.789062 118.652344 L 48.640625 119.824219 L 46.332031 122.132812 L 46.109375 122.371094 L 43.683594 124.914062 L 42.871094 125.75 L 41.300781 127.453125 L 39.410156 129.464844 L 38.929688 129.996094 L 36.640625 132.542969 L 35.957031 133.296875 L 34.410156 135.078125 L 32.492188 137.261719 L 32.1875 137.625 L 30.066406 140.171875 L 29.03125 141.398438 L 27.972656 142.710938 L 25.910156 145.25 L 25.578125 145.679688 L 23.949219 147.796875 L 22.113281 150.160156 L 21.972656 150.34375 L 20.132812 152.882812 L 18.652344 154.875 L 18.265625 155.429688 L 16.503906 157.96875 L 15.195312 159.84375 L 14.753906 160.511719 L 13.09375 163.054688 L 11.734375 165.113281 L 11.425781 165.601562 L 9.878906 168.148438 L 8.308594 170.683594 L 8.273438 170.738281 L 6.875 173.230469 L 5.433594 175.773438 L 4.816406 176.894531 L 4.066406 178.3125 L 2.765625 180.859375 L 1.445312 183.402344 L 1.355469 183.589844 L 0.269531 185.945312 L 0 186.535156 L 0 306.941406 L 0.84375 308.011719 L 1.355469 308.800781 L 3.597656 308.011719 L 4.816406 307.347656 L 5.3125 305.472656 L 5.851562 302.925781 L 6.277344 300.382812 L 6.628906 297.839844 L 6.925781 295.296875 L 7.179688 292.753906 L 7.414062 290.207031 L 7.632812 287.671875 L 8.042969 282.578125 L 8.25 280.042969 L 8.273438 279.835938 L 8.417969 277.496094 L 8.589844 274.953125 L 8.777344 272.40625 L 8.980469 269.871094 L 9.207031 267.324219 L 9.457031 264.78125 L 9.730469 262.238281 L 10.046875 259.695312 L 10.390625 257.152344 L 10.789062 254.605469 L 11.230469 252.066406 L 11.734375 249.523438 L 11.734375 249.519531 L 12.175781 246.976562 L 12.671875 244.4375 L 13.234375 241.894531 L 13.875 239.347656 L 14.605469 236.804688 L 15.195312 235.042969 L 15.394531 234.265625 L 16.148438 231.722656 L 17.011719 229.175781 L 18.023438 226.632812 L 18.652344 225.257812 L 19.082031 224.089844 L 20.152344 221.546875 L 21.414062 219.007812 L 22.113281 217.769531 L 22.730469 216.460938 L 24.105469 213.921875 L 25.578125 211.609375 L 25.699219 211.375 L 27.234375 208.832031 L 29.027344 206.289062 L 29.03125 206.28125 L 30.734375 203.742188 L 32.492188 201.464844 L 32.671875 201.207031 L 34.558594 198.660156 L 35.957031 196.96875 L 36.59375 196.117188 L 38.644531 193.578125 L 39.410156 192.683594 L 40.726562 191.03125 L 42.871094 188.558594 L 42.925781 188.488281 L 45.039062 185.945312 L 46.332031 184.5 L 47.242188 183.402344 L 49.492188 180.859375 L 49.789062 180.535156 L 51.6875 178.316406 L 53.25 176.601562 L 53.964844 175.773438 L 56.246094 173.230469 L 56.710938 172.730469 L 58.5 170.683594 L 60.167969 168.882812 L 60.816406 168.148438 L 63.136719 165.601562 L 63.628906 165.078125 L 65.4375 163.054688 L 67.089844 161.296875 L 67.792969 160.511719 L 70.167969 157.972656 L 70.550781 157.574219 L 72.511719 155.429688 L 74.007812 153.867188 L 74.910156 152.882812 L 77.355469 150.347656 L 77.46875 150.230469 L 79.753906 147.800781 L 80.929688 146.597656 L 82.203125 145.257812 L 84.386719 143.050781 L 84.710938 142.710938 L 87.203125 140.171875 L 87.847656 139.53125 L 89.722656 137.628906 L 91.308594 136.074219 L 92.300781 135.082031 L 94.761719 132.699219 L 94.929688 132.542969 L 97.542969 129.996094 L 98.222656 129.359375 L 100.214844 127.453125 L 101.6875 126.085938 L 102.941406 124.914062 L 105.140625 122.902344 L 105.734375 122.371094 L 108.585938 119.824219 L 108.601562 119.816406 L 111.464844 117.277344 L 112.0625 116.761719 L 114.410156 114.742188 L 115.519531 113.796875 L 117.4375 112.199219 L 118.980469 110.925781 L 120.558594 109.652344 L 122.441406 108.148438 L 123.765625 107.109375 L 125.898438 105.453125 L 127.074219 104.570312 L 129.359375 102.847656 L 130.488281 102.023438 L 132.820312 100.324219 L 134.019531 99.480469 L 136.285156 97.886719 L 137.6875 96.9375 L 139.738281 95.539062 L 141.5 94.398438 L 143.203125 93.277344 L 145.488281 91.851562 L 146.664062 91.109375 L 149.683594 89.308594 L 150.121094 89.042969 L 153.578125 87.039062 L 154.074219 86.765625 L 157.042969 85.097656 L 158.71875 84.21875 L 160.496094 83.257812 L 163.671875 81.683594 L 163.960938 81.53125 L 167.417969 79.832031 L 168.964844 79.136719 L 170.875 78.230469 L 174.335938 76.734375 L 174.699219 76.59375 L 177.796875 75.265625 L 180.953125 74.046875 L 181.253906 73.925781 L 184.714844 72.59375 L 187.894531 71.507812 L 188.175781 71.40625 L 191.632812 70.210938 L 195.09375 69.15625 L 195.769531 68.964844 L 198.554688 68.105469 L 202.015625 67.15625 L 205.011719 66.421875 L 205.46875 66.296875 L 208.933594 65.441406 L 212.394531 64.679688 L 215.851562 64.011719 L 216.625 63.878906 L 219.308594 63.359375 L 222.773438 62.765625 L 226.226562 62.253906 L 229.691406 61.808594 L 233.148438 61.417969 L 234.027344 61.335938 L 236.605469 61.0625 L 240.070312 60.75 L 243.53125 60.5 L 246.984375 60.300781 L 250.449219 60.148438 L 253.910156 60.046875 L 257.371094 59.988281 L 260.828125 59.972656 L 264.289062 60.003906 L 267.75 60.070312 L 271.207031 60.183594 L 274.667969 60.328125 L 278.128906 60.519531 L 281.585938 60.746094 L 285.042969 61.015625 L 288.507812 61.316406 L 288.65625 61.335938 L 291.960938 61.640625 L 295.425781 61.992188 L 298.882812 62.386719 L 302.339844 62.816406 L 305.800781 63.292969 L 309.265625 63.804688 L 309.730469 63.878906 L 312.71875 64.328125 L 316.179688 64.875 L 319.640625 65.472656 L 323.101562 66.113281 L 324.6875 66.421875 L 326.558594 66.769531 L 330.019531 67.445312 L 333.480469 68.167969 L 336.941406 68.929688 L 337.09375 68.964844 L 340.398438 69.6875 L 343.859375 70.480469 L 347.3125 71.320312 L 348.078125 71.507812 L 350.78125 72.15625 L 354.238281 73.023438 L 357.695312 73.925781 L 358.152344 74.046875 L 361.15625 74.824219 L 364.617188 75.75 L 367.660156 76.59375 L 368.074219 76.707031 L 371.535156 77.644531 L 374.996094 78.621094 L 376.796875 79.136719 L 378.453125 79.605469 L 381.914062 80.582031 L 385.375 81.601562 L 385.628906 81.683594 L 388.835938 82.597656 L 392.292969 83.621094 L 394.304688 84.21875 L 395.753906 84.652344 L 399.214844 85.675781 L 402.671875 86.738281 L 402.753906 86.765625 L 406.132812 87.777344 L 409.59375 88.851562 L 411.058594 89.308594 L 413.046875 89.925781 L 416.507812 91.011719 L 419.117188 91.851562 L 419.972656 92.125 L 423.425781 93.238281 L 426.886719 94.390625 L 426.898438 94.398438 L 430.347656 95.53125 L 433.804688 96.714844 L 434.441406 96.9375 L 437.265625 97.902344 L 440.726562 99.140625 L 441.6875 99.480469 L 444.183594 100.375 L 447.648438 101.65625 L 448.632812 102.023438 L 449.003906 102.160156 L 449.003906 46.746094 L 447.648438 46.257812 L 447.140625 46.078125 L 444.183594 45.089844 L 440.726562 43.902344 L 439.652344 43.53125 L 437.265625 42.773438 L 433.804688 41.652344 L 431.777344 40.988281 L 430.347656 40.558594 L 426.886719 39.503906 L 423.480469 38.445312 L 423.425781 38.433594 L 419.972656 37.445312 L 416.507812 36.441406 L 414.683594 35.90625 L 413.046875 35.464844 L 409.59375 34.523438 L 406.132812 33.570312 L 405.378906 33.359375 L 402.667969 32.675781 L 399.214844 31.785156 L 395.753906 30.886719 L 395.492188 30.816406 L 392.292969 30.058594 L 388.835938 29.230469 L 385.375 28.386719 L 384.921875 28.273438 L 381.914062 27.605469 L 378.453125 26.839844 L 374.996094 26.058594 L 373.523438 25.726562 L 371.535156 25.328125 L 368.074219 24.625 L 364.617188 23.921875 L 361.15625 23.21875 L 361.011719 23.1875 L 357.695312 22.585938 L 354.238281 21.964844 L 350.78125 21.347656 L 347.3125 20.742188 L 346.738281 20.648438 L 343.859375 20.203125 L 340.398438 19.679688 L 336.941406 19.175781 L 333.480469 18.691406 L 330.019531 18.21875 L 329.109375 18.101562 L 326.558594 17.808594 L 323.101562 17.425781 L 319.640625 17.070312 L 316.179688 16.746094 L 312.71875 16.441406 L 309.261719 16.167969 L 305.800781 15.925781 L 302.339844 15.710938 L 299.421875 15.554688 L 298.882812 15.53125 L 295.425781 15.398438 L 291.960938 15.300781 L 288.507812 15.238281 L 285.042969 15.203125 Z M 281.585938 15.203125 "/>
</g>
</g>
</svg>
