<?xml version="1.0" encoding="UTF-8" standalone="no"?>
<!-- Created with Inkscape (http://www.inkscape.org/) -->

<svg
   width="215.73959mm"
   height="82.229225mm"
   viewBox="0 0 215.73958 82.229226"
   version="1.1"
   id="svg1"
   xml:space="preserve"
   inkscape:version="1.4 (e7c3feb1, 2024-10-09)"
   sodipodi:docname="overlap.svg"
   inkscape:export-filename="overlap.pdf"
   inkscape:export-xdpi="96"
   inkscape:export-ydpi="96"
   xmlns:inkscape="http://www.inkscape.org/namespaces/inkscape"
   xmlns:sodipodi="http://sodipodi.sourceforge.net/DTD/sodipodi-0.dtd"
   xmlns="http://www.w3.org/2000/svg"
   xmlns:svg="http://www.w3.org/2000/svg"><sodipodi:namedview
     id="namedview1"
     pagecolor="#ffffff"
     bordercolor="#000000"
     borderopacity="0.25"
     inkscape:showpageshadow="2"
     inkscape:pageopacity="0.0"
     inkscape:pagecheckerboard="0"
     inkscape:deskcolor="#d1d1d1"
     inkscape:document-units="mm"
     inkscape:zoom="0.66908886"
     inkscape:cx="370.65331"
     inkscape:cy="285.46283"
     inkscape:window-width="1440"
     inkscape:window-height="807"
     inkscape:window-x="0"
     inkscape:window-y="115"
     inkscape:window-maximized="0"
     inkscape:current-layer="layer1" /><defs
     id="defs1"><defs
   id="id-c110a2ba-b272-4623-a679-86a03dee0313">
    <g
   id="id-8b2788d3-dae8-4c25-9c61-43442c379fb7">
      <g
   id="id-9e5bfbb4-c1cf-4024-8efb-e22d4a020164">
        <path
   d="M 2.953125,-4.265625 H 2.15625 l 0.28125,-1.03125 c 0,-0.015625 0,-0.03125 0,-0.046875 0,-0.0625 -0.03125,-0.09375 -0.078125,-0.09375 -0.0625,0 -0.09375,0 -0.140625,0.078125 -0.953125,1.25 -1.65625,1.03125 -1.65625,1.359375 0,0 0,0.015625 0.015625,0.046875 H 1.3125 l -0.71875,2.75 c -0.03125,0.125 -0.21875,0.75 -0.21875,0.9375 0,0.21875 0.203125,0.375 0.46875,0.375 0.46875,0 0.796875,-0.28125 1.421875,-1.203125 l -0.125,-0.078125 c -0.5,0.640625 -0.65625,0.796875 -0.8125,0.796875 -0.09375,0 -0.15625,-0.078125 -0.15625,-0.203125 0,-0.015625 0,-0.015625 0.015625,-0.046875 l 0.875,-3.328125 h 0.84375 z m 0,0"
   id="id-c962b532-498c-4b6f-87ea-a9ba71cf0956" />
      </g>
      <g
   id="id-1e866ab0-4244-485b-af2e-53855222c48b">
        <path
   d="m 5.71875,-2.46875 v -0.1875 L 0.625,-5.0625 V -4.5 L 4.765625,-2.5625 0.625,-0.625 v 0.5625 z m 0,0"
   id="id-c3760005-23cf-4ebb-b801-1545aa1e6fde" />
      </g>
      <g
   id="id-bf9c3f90-2f4d-4bdb-88a2-08b4d9852d7f">
        <path
   d="m 4.75,-3.296875 c 0,-2.03125 -0.90625,-3.4375 -2.21875,-3.4375 -0.546875,0 -0.96875,0.171875 -1.328125,0.515625 -0.578125,0.5625 -0.96875,1.703125 -0.96875,2.875 0,1.078125 0.328125,2.25 0.796875,2.8125 0.375,0.4375 0.875,0.671875 1.46875,0.671875 0.5,0 0.921875,-0.171875 1.28125,-0.515625 C 4.359375,-0.921875 4.75,-2.078125 4.75,-3.296875 Z m -0.96875,0.03125 C 3.78125,-1.1875 3.34375,-0.125 2.5,-0.125 c -0.859375,0 -1.296875,-1.0625 -1.296875,-3.140625 0,-2.109375 0.4375,-3.21875 1.296875,-3.21875 0.84375,0 1.28125,1.125 1.28125,3.21875 z m 0,0"
   id="id-a07c0e09-a6c8-4267-86d9-98082fba2f58" />
      </g>
      <g
   id="id-449567d0-43c3-4955-bbe1-6ce2d4ce52aa">
        <path
   d="M 5.796875,-3.265625 5.59375,-3.34375 c -0.15625,0.578125 -0.484375,1.078125 -1.140625,1.078125 -0.78125,0 -1.4375,-1.09375 -2.328125,-1.09375 -0.875,0 -1.34375,0.515625 -1.5625,1.3125 L 0.75,-1.96875 c 0.234375,-0.5 0.59375,-0.875 1.1875,-0.875 0.78125,0 1.359375,1.078125 2.3125,1.078125 0.96875,0 1.40625,-0.609375 1.546875,-1.5 z m 0,0"
   id="id-11b4ace9-ffcf-4020-ba46-7e0bc38b9f8e" />
      </g>
    </g>
  </defs>
  
  
  
  
  
  
</defs><g
     inkscape:label="Layer 1"
     inkscape:groupmode="layer"
     id="layer1"
     transform="translate(-75.869718,-26.759278)"><path
       style="fill:#6b6eff;fill-opacity:1;stroke:none;stroke-width:0.499999;stroke-linejoin:round;stroke-dashoffset:0.486425;stroke-opacity:1"
       d="m 228.58185,78.748965 c 0.22273,3.6812 1.42922,6.95023 6.83162,7.4383 -1.39503,-1.97884 -3.64026,-4.25305 -6.83162,-7.4383 z"
       id="path53" /><path
       style="fill:#ff6b6b;fill-opacity:1;stroke:none;stroke-width:0.499999;stroke-linejoin:round;stroke-dashoffset:0.486425;stroke-opacity:1"
       d="m 235.33131,67.799765 c -5.36685,0.48661 -6.51837,3.69404 -6.74171,7.31893 3.1279,-3.12195 5.34407,-5.36906 6.74171,-7.31893 z"
       id="path39" /><path
       id="path38"
       style="fill:none;stroke:#000000;stroke-width:0.499999;stroke-linejoin:round;stroke-dashoffset:0.486425;stroke-opacity:1"
       d="m 283.02528,86.254055 c 7.58672,0 8.33403,-4.56443 8.33403,-9.20141 0,-4.66783 -0.55213,-9.32072 -8.27232,-9.32072 -4.59723,0 -15.50401,1.54969 -23.13929,9.18497 7.11245,7.11245 18.75758,9.33716 23.07758,9.33716 z m -46.15516,0 c -7.58672,0 -8.33403,-4.56443 -8.33403,-9.20141 0,-4.66783 0.55213,-9.32072 8.27232,-9.32072 4.59723,0 15.50401,1.54969 23.13929,9.18497 -7.11245,7.11245 -18.75758,9.33716 -23.07758,9.33716 z m 13.74042,-32.41475 c 0,-7.58673 4.56443,-8.33404 9.20141,-8.33404 4.66783,0 9.32071,0.55213 9.32071,8.27233 0,4.59723 -1.54968,15.50402 -9.18496,23.1393 -7.11245,-7.11245 -9.33716,-18.75759 -9.33716,-23.07759 z m 0,46.155185 c 0,7.58672 4.56443,8.33403 9.20141,8.33403 4.66783,0 9.32071,-0.55213 9.32071,-8.27232 0,-4.59723 -1.54968,-15.504025 -9.18496,-23.139305 -7.11245,7.11245 -9.33716,18.757595 -9.33716,23.077595 z" /><path
       id="path36"
       style="fill:#706bff;fill-opacity:1;stroke:none;stroke-width:0.499999;stroke-linejoin:round;stroke-dashoffset:0.486425;stroke-opacity:1"
       d="m 123.53871,68.640255 c -4.17419,1.316599 -4.53926,5.06226 -4.53926,8.8222 0,3.597828 0.46567,7.142226 4.21112,8.554517 6.20432,-3.901304 6.68012,-13.50431 0.32814,-17.376717 z" /><path
       id="path31"
       style="fill:none;stroke:#000000;stroke-width:0.499999;stroke-linejoin:round;stroke-dashoffset:0.486425;stroke-opacity:1"
       d="m 116.9896,87.711705 c 14.14419,0 15.45107,-20.728477 0,-20.728477 -4.59723,0 -7.24785,2.949752 -14.88313,10.585032 7.11245,7.112451 10.56313,10.143445 14.88313,10.143445 z m -29.766255,0 c -14.144195,0 -15.451076,-20.728477 0,-20.728477 4.597226,0 7.247845,2.949752 14.883125,10.585032 -7.112451,7.112451 -10.563126,10.143445 -14.883125,10.143445 z" /><path
       id="path35"
       style="fill:none;stroke:#000000;stroke-width:0.499999;stroke-linejoin:round;stroke-dashoffset:0.486425;stroke-opacity:1"
       d="m 173.48888,86.664054 c 7.58672,0 8.33403,-4.56443 8.33403,-9.20141 0,-4.66783 -0.55213,-9.32071 -8.27232,-9.32071 -4.59723,0 -15.50401,1.54968 -23.13929,9.18496 7.11245,7.11245 18.75758,9.33716 23.07758,9.33716 z m -46.15516,0 c -7.58672,0 -8.33403,-4.56443 -8.33403,-9.20141 0,-4.66783 0.55213,-9.32071 8.27232,-9.32071 4.59723,0 15.50401,1.54968 23.13929,9.18496 -7.11245,7.11245 -18.75758,9.33716 -23.07758,9.33716 z m 13.74042,-32.414738 c 0,-7.58672 4.56443,-8.33403 9.20141,-8.33403 4.66783,0 9.32071,0.55213 9.32071,8.27232 0,4.59723 -1.54968,15.504008 -9.18496,23.139288 -7.11245,-7.11245 -9.33716,-18.757578 -9.33716,-23.077578 z m 0,46.155154 c 0,7.58672 4.56443,8.33403 9.20141,8.33403 4.66783,0 9.32071,-0.55213 9.32071,-8.27232 0,-4.597228 -1.54968,-15.504006 -9.18496,-23.139286 -7.11245,7.11245 -9.33716,18.757578 -9.33716,23.077576 z" /><path
       id="path37"
       style="fill:none;stroke:#000000;stroke-width:0.499999;stroke-linejoin:round;stroke-dashoffset:0.486425;stroke-opacity:1"
       d="m 216.62446,91.820595 c 0,14.144195 20.7285,15.451075 20.7285,0 0,-4.59723 -2.94975,-7.24785 -10.58503,-14.88313 -7.11247,7.11245 -10.14347,10.56313 -10.14347,14.88313 z m 0,-29.76625 c 0,-14.1442 20.7285,-15.45108 20.7285,0 0,4.59723 -2.94975,7.24784 -10.58503,14.88312 -7.11247,-7.11245 -10.14347,-10.56312 -10.14347,-14.88312 z" /><text
       xml:space="preserve"
       style="font-size:8.97382px;line-height:1.1;font-family:Helvetica;-inkscape-font-specification:Helvetica;text-align:start;letter-spacing:0px;writing-mode:lr-tb;direction:ltr;text-anchor:start;fill:#b5b5b5;fill-opacity:1;stroke:none;stroke-width:0.908482;stroke-linejoin:round;stroke-dashoffset:0.486425;stroke-opacity:1"
       x="147.56577"
       y="54.869663"
       id="text40"><tspan
         sodipodi:role="line"
         id="tspan40"
         style="fill:#000000;fill-opacity:1;stroke-width:0.908484"
         x="147.56577"
         y="54.869663">+</tspan></text><text
       xml:space="preserve"
       style="font-size:8.97382px;line-height:1.1;font-family:Helvetica;-inkscape-font-specification:Helvetica;text-align:start;letter-spacing:0px;writing-mode:lr-tb;direction:ltr;text-anchor:start;fill:#b5b5b5;fill-opacity:1;stroke:none;stroke-width:0.908482;stroke-linejoin:round;stroke-dashoffset:0.486425;stroke-opacity:1"
       x="147.56577"
       y="103.67344"
       id="text41"><tspan
         sodipodi:role="line"
         id="tspan41"
         style="fill:#000000;fill-opacity:1;stroke-width:0.908484"
         x="147.56577"
         y="103.67344">+</tspan></text><text
       xml:space="preserve"
       style="font-size:8.97382px;line-height:1.1;font-family:Helvetica;-inkscape-font-specification:Helvetica;text-align:start;letter-spacing:0px;writing-mode:lr-tb;direction:ltr;text-anchor:start;fill:#b5b5b5;fill-opacity:1;stroke:none;stroke-width:0.908482;stroke-linejoin:round;stroke-dashoffset:0.486425;stroke-opacity:1"
       x="173.45746"
       y="79.939392"
       id="text42"><tspan
         sodipodi:role="line"
         id="tspan42"
         style="fill:#000000;fill-opacity:1;stroke-width:0.908484"
         x="173.45746"
         y="79.939392">-</tspan></text><text
       xml:space="preserve"
       style="font-size:4.9389px;line-height:1.1;font-family:Helvetica;-inkscape-font-specification:Helvetica;text-align:start;letter-spacing:0px;writing-mode:lr-tb;direction:ltr;text-anchor:start;fill:#000000;fill-opacity:1;stroke:none;stroke-width:0.499999;stroke-linejoin:round;stroke-dashoffset:0.486425;stroke-opacity:1"
       x="176.51555"
       y="90.620903"
       id="text43"><tspan
         sodipodi:role="line"
         id="tspan43"
         style="stroke-width:0.5"
         x="176.51555"
         y="90.620903" /></text><text
       xml:space="preserve"
       style="font-size:8.97382px;line-height:1.1;font-family:Helvetica;-inkscape-font-specification:Helvetica;text-align:start;letter-spacing:0px;writing-mode:lr-tb;direction:ltr;text-anchor:start;fill:#b5b5b5;fill-opacity:1;stroke:none;stroke-width:0.908482;stroke-linejoin:round;stroke-dashoffset:0.486425;stroke-opacity:1"
       x="131.12408"
       y="79.939392"
       id="text44"><tspan
         sodipodi:role="line"
         id="tspan44"
         style="fill:#000000;fill-opacity:1;stroke-width:0.908484"
         x="131.12408"
         y="79.939392">-</tspan></text><text
       xml:space="preserve"
       style="font-size:8.97382px;line-height:1.1;font-family:Helvetica;-inkscape-font-specification:Helvetica;text-align:start;letter-spacing:0px;writing-mode:lr-tb;direction:ltr;text-anchor:start;fill:#b5b5b5;fill-opacity:1;stroke:none;stroke-width:0.908482;stroke-linejoin:round;stroke-dashoffset:0.486425;stroke-opacity:1"
       x="112.60326"
       y="79.939392"
       id="text45"><tspan
         sodipodi:role="line"
         id="tspan45"
         style="fill:#000000;fill-opacity:1;stroke-width:0.908484"
         x="112.60326"
         y="79.939392">-</tspan></text><text
       xml:space="preserve"
       style="font-size:8.97382px;line-height:1.1;font-family:Helvetica;-inkscape-font-specification:Helvetica;text-align:start;letter-spacing:0px;writing-mode:lr-tb;direction:ltr;text-anchor:start;fill:#b5b5b5;fill-opacity:1;stroke:none;stroke-width:0.908482;stroke-linejoin:round;stroke-dashoffset:0.486425;stroke-opacity:1"
       x="81.483887"
       y="79.939392"
       id="text46"><tspan
         sodipodi:role="line"
         id="tspan46"
         style="fill:#000000;fill-opacity:1;stroke-width:0.908484"
         x="81.483887"
         y="79.939392">+</tspan></text><text
       xml:space="preserve"
       style="font-size:8.97382px;line-height:1.1;font-family:Helvetica;-inkscape-font-specification:Helvetica;text-align:start;letter-spacing:0px;writing-mode:lr-tb;direction:ltr;text-anchor:start;fill:#b5b5b5;fill-opacity:1;stroke:none;stroke-width:0.908482;stroke-linejoin:round;stroke-dashoffset:0.486425;stroke-opacity:1"
       x="224.53957"
       y="60.87513"
       id="text47"><tspan
         sodipodi:role="line"
         id="tspan47"
         style="fill:#000000;fill-opacity:1;stroke-width:0.908484"
         x="224.53957"
         y="60.87513">+</tspan></text><text
       xml:space="preserve"
       style="font-size:8.97382px;line-height:1.1;font-family:Helvetica;-inkscape-font-specification:Helvetica;text-align:start;letter-spacing:0px;writing-mode:lr-tb;direction:ltr;text-anchor:start;fill:#b5b5b5;fill-opacity:1;stroke:none;stroke-width:0.908482;stroke-linejoin:round;stroke-dashoffset:0.486425;stroke-opacity:1"
       x="226.12708"
       y="95.271027"
       id="text48"><tspan
         sodipodi:role="line"
         id="tspan48"
         style="fill:#000000;fill-opacity:1;stroke-width:0.908484"
         x="226.12708"
         y="95.271027">-</tspan></text><text
       xml:space="preserve"
       style="font-size:8.97382px;line-height:1.1;font-family:Helvetica;-inkscape-font-specification:Helvetica;text-align:start;letter-spacing:0px;writing-mode:lr-tb;direction:ltr;text-anchor:start;fill:#b5b5b5;fill-opacity:1;stroke:none;stroke-width:0.908482;stroke-linejoin:round;stroke-dashoffset:0.486425;stroke-opacity:1"
       x="257.10217"
       y="54.459599"
       id="text49"><tspan
         sodipodi:role="line"
         id="tspan49"
         style="fill:#000000;fill-opacity:1;stroke-width:0.908484"
         x="257.10217"
         y="54.459599">+</tspan></text><text
       xml:space="preserve"
       style="font-size:8.97382px;line-height:1.1;font-family:Helvetica;-inkscape-font-specification:Helvetica;text-align:start;letter-spacing:0px;writing-mode:lr-tb;direction:ltr;text-anchor:start;fill:#b5b5b5;fill-opacity:1;stroke:none;stroke-width:0.908482;stroke-linejoin:round;stroke-dashoffset:0.486425;stroke-opacity:1"
       x="257.10217"
       y="103.26345"
       id="text50"><tspan
         sodipodi:role="line"
         id="tspan50"
         style="fill:#000000;fill-opacity:1;stroke-width:0.908484"
         x="257.10217"
         y="103.26345">+</tspan></text><text
       xml:space="preserve"
       style="font-size:8.97382px;line-height:1.1;font-family:Helvetica;-inkscape-font-specification:Helvetica;text-align:start;letter-spacing:0px;writing-mode:lr-tb;direction:ltr;text-anchor:start;fill:#b5b5b5;fill-opacity:1;stroke:none;stroke-width:0.908482;stroke-linejoin:round;stroke-dashoffset:0.486425;stroke-opacity:1"
       x="282.99387"
       y="79.529366"
       id="text51"><tspan
         sodipodi:role="line"
         id="tspan51"
         style="fill:#000000;fill-opacity:1;stroke-width:0.908484"
         x="282.99387"
         y="79.529366">-</tspan></text><text
       xml:space="preserve"
       style="font-size:8.97382px;line-height:1.1;font-family:Helvetica;-inkscape-font-specification:Helvetica;text-align:start;letter-spacing:0px;writing-mode:lr-tb;direction:ltr;text-anchor:start;fill:#b5b5b5;fill-opacity:1;stroke:none;stroke-width:0.908482;stroke-linejoin:round;stroke-dashoffset:0.486425;stroke-opacity:1"
       x="235.36882"
       y="79.529366"
       id="text52"><tspan
         sodipodi:role="line"
         id="tspan52"
         style="fill:#000000;fill-opacity:1;stroke-width:0.908484"
         x="235.36882"
         y="79.529366">-</tspan></text><g
       id="g11"
       transform="matrix(2.1937639,0,0,2.1937639,-127.70089,-5.051818)"><g
         fill="#000000"
         fill-opacity="1"
         id="id-98893c9f-beab-4ed2-bad2-e1fed7ad67c6"
         transform="matrix(0.548913,0,0,0.548913,27.147004,-55.776982)">
    <g
   transform="translate(148.672,134.765)"
   id="g4"><path
   d="M 2.953125,-4.265625 H 2.15625 l 0.28125,-1.03125 c 0,-0.015625 0,-0.03125 0,-0.046875 0,-0.0625 -0.03125,-0.09375 -0.078125,-0.09375 -0.0625,0 -0.09375,0 -0.140625,0.078125 -0.953125,1.25 -1.65625,1.03125 -1.65625,1.359375 0,0 0,0.015625 0.015625,0.046875 H 1.3125 l -0.71875,2.75 c -0.03125,0.125 -0.21875,0.75 -0.21875,0.9375 0,0.21875 0.203125,0.375 0.46875,0.375 0.46875,0 0.796875,-0.28125 1.421875,-1.203125 l -0.125,-0.078125 c -0.5,0.640625 -0.65625,0.796875 -0.8125,0.796875 -0.09375,0 -0.15625,-0.078125 -0.15625,-0.203125 0,-0.015625 0,-0.015625 0.015625,-0.046875 l 0.875,-3.328125 h 0.84375 z m 0,0"
   id="id-8aa93110-a2b1-4c13-839d-b485c5f8a394" />
      </g></g><g
         fill="#000000"
         fill-opacity="1"
         id="id-08851ca2-21a4-45cb-bdd9-866ba168fa4d"
         transform="matrix(0.548913,0,0,0.548913,27.147004,-55.776982)">
    <g
   transform="translate(154.789,134.765)"
   id="g5"><path
   d="m 5.71875,-2.46875 v -0.1875 L 0.625,-5.0625 V -4.5 L 4.765625,-2.5625 0.625,-0.625 v 0.5625 z m 0,0"
   id="id-99cafae9-af0e-44d5-86ac-74cfd911c9f7" />
      </g></g><g
         fill="#000000"
         fill-opacity="1"
         id="id-8f76652b-7f23-4c4f-9c19-35ebf3b7d1f5"
         transform="matrix(0.548913,0,0,0.548913,27.147004,-55.776982)">
    <g
   transform="translate(163.895,134.765)"
   id="g6"><path
   d="m 4.75,-3.296875 c 0,-2.03125 -0.90625,-3.4375 -2.21875,-3.4375 -0.546875,0 -0.96875,0.171875 -1.328125,0.515625 -0.578125,0.5625 -0.96875,1.703125 -0.96875,2.875 0,1.078125 0.328125,2.25 0.796875,2.8125 0.375,0.4375 0.875,0.671875 1.46875,0.671875 0.5,0 0.921875,-0.171875 1.28125,-0.515625 C 4.359375,-0.921875 4.75,-2.078125 4.75,-3.296875 Z m -0.96875,0.03125 C 3.78125,-1.1875 3.34375,-0.125 2.5,-0.125 c -0.859375,0 -1.296875,-1.0625 -1.296875,-3.140625 0,-2.109375 0.4375,-3.21875 1.296875,-3.21875 0.84375,0 1.28125,1.125 1.28125,3.21875 z m 0,0"
   id="id-91c9e5a8-2fc4-4cb5-9067-2b25d0afdf2c" />
      </g></g></g><g
       id="g10"
       transform="matrix(2.1937639,0,0,2.1937639,-27.655011,-4.6563798)"><g
         fill="#000000"
         fill-opacity="1"
         id="id-7f78672e-7b34-403e-bf73-6ca5ccb8d41e"
         transform="matrix(0.548913,0,0,0.548913,27.147004,-55.776982)">
    <g
   transform="translate(171.327,134.765)"
   id="g7"><path
   d="M 2.953125,-4.265625 H 2.15625 l 0.28125,-1.03125 c 0,-0.015625 0,-0.03125 0,-0.046875 0,-0.0625 -0.03125,-0.09375 -0.078125,-0.09375 -0.0625,0 -0.09375,0 -0.140625,0.078125 -0.953125,1.25 -1.65625,1.03125 -1.65625,1.359375 0,0 0,0.015625 0.015625,0.046875 H 1.3125 l -0.71875,2.75 c -0.03125,0.125 -0.21875,0.75 -0.21875,0.9375 0,0.21875 0.203125,0.375 0.46875,0.375 0.46875,0 0.796875,-0.28125 1.421875,-1.203125 l -0.125,-0.078125 c -0.5,0.640625 -0.65625,0.796875 -0.8125,0.796875 -0.09375,0 -0.15625,-0.078125 -0.15625,-0.203125 0,-0.015625 0,-0.015625 0.015625,-0.046875 l 0.875,-3.328125 h 0.84375 z m 0,0"
   id="id-6e84baa5-e958-472f-8ec0-536bd0d03f9e" />
      </g></g><g
         fill="#000000"
         fill-opacity="1"
         id="id-12aca68b-4f0b-4b7b-8fab-7ee2b363c9ba"
         transform="matrix(0.548913,0,0,0.548913,27.147004,-55.776982)">
    <g
   transform="translate(177.434,134.765)"
   id="g8"><path
   d="M 5.796875,-3.265625 5.59375,-3.34375 c -0.15625,0.578125 -0.484375,1.078125 -1.140625,1.078125 -0.78125,0 -1.4375,-1.09375 -2.328125,-1.09375 -0.875,0 -1.34375,0.515625 -1.5625,1.3125 L 0.75,-1.96875 c 0.234375,-0.5 0.59375,-0.875 1.1875,-0.875 0.78125,0 1.359375,1.078125 2.3125,1.078125 0.96875,0 1.40625,-0.609375 1.546875,-1.5 z m 0,0"
   id="id-841e006d-7cf1-4d69-877d-00678ab3b6e3" />
      </g></g><g
         fill="#000000"
         fill-opacity="1"
         id="id-bcf3dd07-994d-48ef-975b-5c9a643f88aa"
         transform="matrix(0.548913,0,0,0.548913,27.147004,-55.776982)">
    <g
   transform="translate(186.54,134.765)"
   id="g9"><path
   d="m 4.75,-3.296875 c 0,-2.03125 -0.90625,-3.4375 -2.21875,-3.4375 -0.546875,0 -0.96875,0.171875 -1.328125,0.515625 -0.578125,0.5625 -0.96875,1.703125 -0.96875,2.875 0,1.078125 0.328125,2.25 0.796875,2.8125 0.375,0.4375 0.875,0.671875 1.46875,0.671875 0.5,0 0.921875,-0.171875 1.28125,-0.515625 C 4.359375,-0.921875 4.75,-2.078125 4.75,-3.296875 Z m -0.96875,0.03125 C 3.78125,-1.1875 3.34375,-0.125 2.5,-0.125 c -0.859375,0 -1.296875,-1.0625 -1.296875,-3.140625 0,-2.109375 0.4375,-3.21875 1.296875,-3.21875 0.84375,0 1.28125,1.125 1.28125,3.21875 z m 0,0"
   id="id-8efaaabc-68df-4000-8dbd-c7ae5d2471cc" />
      </g></g></g></g></svg>
