<?xml version="1.0" encoding="UTF-8" standalone="no"?>
<!-- Created with Inkscape (http://www.inkscape.org/) -->

<svg
   version="1.1"
   id="svg1"
   width="119.55966"
   height="100.29599"
   viewBox="0 0 119.55966 100.296"
   sodipodi:docname="heatmap_layout.svg"
   inkscape:version="1.3.2 (091e20ef0f, 2023-11-25)"
   xmlns:inkscape="http://www.inkscape.org/namespaces/inkscape"
   xmlns:sodipodi="http://sodipodi.sourceforge.net/DTD/sodipodi-0.dtd"
   xmlns="http://www.w3.org/2000/svg"
   xmlns:svg="http://www.w3.org/2000/svg">
  <defs
     id="defs1">
    <clipPath
       clipPathUnits="userSpaceOnUse"
       id="clipPath20">
      <path
         d="M 72.75,12 H 249 V 149.25 H 72.75 Z"
         transform="matrix(0.00567376,0,0,-0.00728597,-0.41276596,1.0874313)"
         id="path20" />
    </clipPath>
    <clipPath
       clipPathUnits="userSpaceOnUse"
       id="clipPath22">
      <path
         d="M 72.75,12 H 249 V 149.25 H 72.75 Z"
         id="path22" />
    </clipPath>
    <clipPath
       clipPathUnits="userSpaceOnUse"
       id="clipPath24">
      <path
         d="M 72.75,12 H 249 V 149.25 H 72.75 Z"
         transform="translate(-112.1814,-135.49833)"
         id="path24" />
    </clipPath>
    <clipPath
       clipPathUnits="userSpaceOnUse"
       id="clipPath26">
      <path
         d="M 72.75,12 H 249 V 149.25 H 72.75 Z"
         transform="translate(-120.95639,-127.41702)"
         id="path26" />
    </clipPath>
    <clipPath
       clipPathUnits="userSpaceOnUse"
       id="clipPath28">
      <path
         d="M 72.75,12 H 249 V 149.25 H 72.75 Z"
         transform="translate(-126.58139,-127.41709)"
         id="path28" />
    </clipPath>
    <clipPath
       clipPathUnits="userSpaceOnUse"
       id="clipPath30">
      <path
         d="M 72.75,12 H 249 V 149.25 H 72.75 Z"
         transform="translate(-129.7089,-127.41702)"
         id="path30" />
    </clipPath>
    <clipPath
       clipPathUnits="userSpaceOnUse"
       id="clipPath32">
      <path
         d="M 72.75,12 H 249 V 149.25 H 72.75 Z"
         id="path32" />
    </clipPath>
    <clipPath
       clipPathUnits="userSpaceOnUse"
       id="clipPath34">
      <path
         d="M 72.75,12 H 249 V 149.25 H 72.75 Z"
         id="path34" />
    </clipPath>
    <clipPath
       clipPathUnits="userSpaceOnUse"
       id="clipPath36">
      <path
         d="M 72.75,12 H 249 V 149.25 H 72.75 Z"
         id="path36" />
    </clipPath>
    <clipPath
       clipPathUnits="userSpaceOnUse"
       id="clipPath38">
      <path
         d="M 72.75,12 H 249 V 149.25 H 72.75 Z"
         id="path38" />
    </clipPath>
    <clipPath
       clipPathUnits="userSpaceOnUse"
       id="clipPath40">
      <path
         d="M 72.75,12 H 249 V 149.25 H 72.75 Z"
         transform="translate(-86.860727,-140.37405)"
         id="path40" />
    </clipPath>
    <clipPath
       clipPathUnits="userSpaceOnUse"
       id="clipPath42">
      <path
         d="M 72.75,12 H 249 V 149.25 H 72.75 Z"
         transform="translate(-229.04604,-32.898182)"
         id="path42" />
    </clipPath>
    <clipPath
       clipPathUnits="userSpaceOnUse"
       id="clipPath44">
      <path
         d="M 72.75,12 H 249 V 149.25 H 72.75 Z"
         id="path44" />
    </clipPath>
    <clipPath
       clipPathUnits="userSpaceOnUse"
       id="clipPath46">
      <path
         d="M 72.75,12 H 249 V 149.25 H 72.75 Z"
         id="path46" />
    </clipPath>
    <clipPath
       clipPathUnits="userSpaceOnUse"
       id="clipPath49">
      <path
         d="M 72.75,12 H 249 V 149.25 H 72.75 Z"
         transform="translate(-121.92012,-42.856185)"
         id="path49" />
    </clipPath>
    <clipPath
       clipPathUnits="userSpaceOnUse"
       id="clipPath50">
      <path
         d="M 72.75,156.75 H 249 v 136.5 H 72.75 Z"
         transform="matrix(0.00567376,0,0,-0.007326,-0.41276596,2.1483509)"
         id="path50" />
    </clipPath>
    <clipPath
       clipPathUnits="userSpaceOnUse"
       id="clipPath52">
      <path
         d="M 72.75,156.75 H 249 v 136.5 H 72.75 Z"
         id="path52" />
    </clipPath>
    <clipPath
       clipPathUnits="userSpaceOnUse"
       id="clipPath54">
      <path
         d="M 72.75,156.75 H 249 v 136.5 H 72.75 Z"
         transform="translate(-112.1814,-279.5535)"
         id="path54" />
    </clipPath>
    <clipPath
       clipPathUnits="userSpaceOnUse"
       id="clipPath56">
      <path
         d="M 72.75,156.75 H 249 v 136.5 H 72.75 Z"
         transform="translate(-120.95639,-271.47202)"
         id="path56" />
    </clipPath>
    <clipPath
       clipPathUnits="userSpaceOnUse"
       id="clipPath58">
      <path
         d="M 72.75,156.75 H 249 v 136.5 H 72.75 Z"
         transform="translate(-126.58139,-271.47216)"
         id="path58" />
    </clipPath>
    <clipPath
       clipPathUnits="userSpaceOnUse"
       id="clipPath60">
      <path
         d="M 72.75,156.75 H 249 v 136.5 H 72.75 Z"
         transform="translate(-129.7089,-271.47202)"
         id="path60" />
    </clipPath>
    <clipPath
       clipPathUnits="userSpaceOnUse"
       id="clipPath61">
      <path
         d="M 72.75,300.75 H 249 V 438 H 72.75 Z"
         transform="matrix(0.00567376,0,0,-0.00728597,-0.41276596,3.1912558)"
         id="path61" />
    </clipPath>
    <clipPath
       clipPathUnits="userSpaceOnUse"
       id="clipPath63">
      <path
         d="M 72.75,300.75 H 249 V 438 H 72.75 Z"
         id="path63" />
    </clipPath>
    <clipPath
       clipPathUnits="userSpaceOnUse"
       id="clipPath65">
      <path
         d="M 72.75,300.75 H 249 V 438 H 72.75 Z"
         transform="translate(-112.1814,-424.24845)"
         id="path65" />
    </clipPath>
    <clipPath
       clipPathUnits="userSpaceOnUse"
       id="clipPath67">
      <path
         d="M 72.75,300.75 H 249 V 438 H 72.75 Z"
         transform="translate(-120.95639,-416.16703)"
         id="path67" />
    </clipPath>
    <clipPath
       clipPathUnits="userSpaceOnUse"
       id="clipPath69">
      <path
         d="M 72.75,300.75 H 249 V 438 H 72.75 Z"
         transform="translate(-126.58139,-416.16725)"
         id="path69" />
    </clipPath>
    <clipPath
       clipPathUnits="userSpaceOnUse"
       id="clipPath71">
      <path
         d="M 72.75,300.75 H 249 V 438 H 72.75 Z"
         transform="translate(-129.7089,-416.16703)"
         id="path71" />
    </clipPath>
    <clipPath
       clipPathUnits="userSpaceOnUse"
       id="clipPath72">
      <path
         d="M 256.5,12 H 432 V 149.25 H 256.5 Z"
         transform="matrix(0.00569801,0,0,-0.00728597,-1.4615385,1.0874313)"
         id="path72" />
    </clipPath>
    <clipPath
       clipPathUnits="userSpaceOnUse"
       id="clipPath74">
      <path
         d="M 256.5,12 H 432 V 149.25 H 256.5 Z"
         id="path74" />
    </clipPath>
    <clipPath
       clipPathUnits="userSpaceOnUse"
       id="clipPath76">
      <path
         d="M 256.5,12 H 432 V 149.25 H 256.5 Z"
         transform="translate(-295.76361,-135.49833)"
         id="path76" />
    </clipPath>
    <clipPath
       clipPathUnits="userSpaceOnUse"
       id="clipPath78">
      <path
         d="M 256.5,12 H 432 V 149.25 H 256.5 Z"
         transform="translate(-305.34487,-127.41702)"
         id="path78" />
    </clipPath>
    <clipPath
       clipPathUnits="userSpaceOnUse"
       id="clipPath79">
      <path
         d="M 256.5,156.75 H 432 v 136.5 H 256.5 Z"
         transform="matrix(0.00569801,0,0,-0.007326,-1.4615385,2.1483509)"
         id="path79" />
    </clipPath>
    <clipPath
       clipPathUnits="userSpaceOnUse"
       id="clipPath81">
      <path
         d="M 256.5,156.75 H 432 v 136.5 H 256.5 Z"
         id="path81" />
    </clipPath>
    <clipPath
       clipPathUnits="userSpaceOnUse"
       id="clipPath83">
      <path
         d="M 256.5,156.75 H 432 v 136.5 H 256.5 Z"
         transform="translate(-295.76361,-279.5535)"
         id="path83" />
    </clipPath>
    <clipPath
       clipPathUnits="userSpaceOnUse"
       id="clipPath85">
      <path
         d="M 256.5,156.75 H 432 v 136.5 H 256.5 Z"
         transform="translate(-305.34487,-271.47202)"
         id="path85" />
    </clipPath>
    <clipPath
       clipPathUnits="userSpaceOnUse"
       id="clipPath86">
      <path
         d="M 256.5,300.75 H 432 V 438 H 256.5 Z"
         transform="matrix(0.00569801,0,0,-0.00728597,-1.4615385,3.1912558)"
         id="path86" />
    </clipPath>
    <clipPath
       clipPathUnits="userSpaceOnUse"
       id="clipPath88">
      <path
         d="M 256.5,300.75 H 432 V 438 H 256.5 Z"
         id="path88" />
    </clipPath>
    <clipPath
       clipPathUnits="userSpaceOnUse"
       id="clipPath90">
      <path
         d="M 256.5,300.75 H 432 V 438 H 256.5 Z"
         transform="translate(-295.76361,-424.24845)"
         id="path90" />
    </clipPath>
    <clipPath
       clipPathUnits="userSpaceOnUse"
       id="clipPath92">
      <path
         d="M 256.5,300.75 H 432 V 438 H 256.5 Z"
         transform="translate(-304.53861,-416.16703)"
         id="path92" />
    </clipPath>
    <clipPath
       clipPathUnits="userSpaceOnUse"
       id="clipPath94">
      <path
         d="M 256.5,300.75 H 432 V 438 H 256.5 Z"
         transform="translate(-310.16362,-416.16681)"
         id="path94" />
    </clipPath>
    <clipPath
       clipPathUnits="userSpaceOnUse"
       id="clipPath96">
      <path
         d="M 256.5,300.75 H 432 V 438 H 256.5 Z"
         transform="translate(-313.29111,-416.16703)"
         id="path96" />
    </clipPath>
    <clipPath
       clipPathUnits="userSpaceOnUse"
       id="clipPath97">
      <path
         d="M 439.5,12 H 615.75 V 149.25 H 439.5 Z"
         transform="matrix(0.00567376,0,0,-0.00728597,-2.493617,1.0874313)"
         id="path97" />
    </clipPath>
    <clipPath
       clipPathUnits="userSpaceOnUse"
       id="clipPath99">
      <path
         d="M 439.5,12 H 615.75 V 149.25 H 439.5 Z"
         id="path99" />
    </clipPath>
    <clipPath
       clipPathUnits="userSpaceOnUse"
       id="clipPath101">
      <path
         d="M 439.5,12 H 615.75 V 149.25 H 439.5 Z"
         transform="translate(-478.93141,-135.49833)"
         id="path101" />
    </clipPath>
    <clipPath
       clipPathUnits="userSpaceOnUse"
       id="clipPath103">
      <path
         d="M 439.5,12 H 615.75 V 149.25 H 439.5 Z"
         transform="translate(-487.7064,-127.41702)"
         id="path103" />
    </clipPath>
    <clipPath
       clipPathUnits="userSpaceOnUse"
       id="clipPath105">
      <path
         d="M 439.5,12 H 615.75 V 149.25 H 439.5 Z"
         transform="translate(-493.3314,-127.41709)"
         id="path105" />
    </clipPath>
    <clipPath
       clipPathUnits="userSpaceOnUse"
       id="clipPath107">
      <path
         d="M 439.5,12 H 615.75 V 149.25 H 439.5 Z"
         transform="translate(-496.4589,-127.41702)"
         id="path107" />
    </clipPath>
    <clipPath
       clipPathUnits="userSpaceOnUse"
       id="clipPath108">
      <path
         d="m 439.5,156.75 h 176.25 v 136.5 H 439.5 Z"
         transform="matrix(0.00567376,0,0,-0.007326,-2.493617,2.1483509)"
         id="path108" />
    </clipPath>
    <clipPath
       clipPathUnits="userSpaceOnUse"
       id="clipPath110">
      <path
         d="m 439.5,156.75 h 176.25 v 136.5 H 439.5 Z"
         id="path110" />
    </clipPath>
    <clipPath
       clipPathUnits="userSpaceOnUse"
       id="clipPath112">
      <path
         d="m 439.5,156.75 h 176.25 v 136.5 H 439.5 Z"
         transform="translate(-478.93141,-279.5535)"
         id="path112" />
    </clipPath>
    <clipPath
       clipPathUnits="userSpaceOnUse"
       id="clipPath114">
      <path
         d="m 439.5,156.75 h 176.25 v 136.5 H 439.5 Z"
         transform="translate(-488.51266,-271.47202)"
         id="path114" />
    </clipPath>
    <clipPath
       clipPathUnits="userSpaceOnUse"
       id="clipPath116">
      <path
         d="m 439.5,156.75 h 176.25 v 136.5 H 439.5 Z"
         transform="matrix(1,0,0,0.99999853,-497.26515,-271.47188)"
         id="path116" />
    </clipPath>
    <clipPath
       clipPathUnits="userSpaceOnUse"
       id="clipPath117">
      <path
         d="M 439.5,300.75 H 615.75 V 438 H 439.5 Z"
         transform="matrix(0.00567376,0,0,-0.00728597,-2.493617,3.1912558)"
         id="path117" />
    </clipPath>
    <clipPath
       clipPathUnits="userSpaceOnUse"
       id="clipPath119">
      <path
         d="M 439.5,300.75 H 615.75 V 438 H 439.5 Z"
         id="path119" />
    </clipPath>
    <clipPath
       clipPathUnits="userSpaceOnUse"
       id="clipPath121">
      <path
         d="M 439.5,300.75 H 615.75 V 438 H 439.5 Z"
         transform="translate(-478.93141,-424.24845)"
         id="path121" />
    </clipPath>
    <clipPath
       clipPathUnits="userSpaceOnUse"
       id="clipPath123">
      <path
         d="M 439.5,300.75 H 615.75 V 438 H 439.5 Z"
         transform="translate(-487.7064,-416.16703)"
         id="path123" />
    </clipPath>
    <clipPath
       clipPathUnits="userSpaceOnUse"
       id="clipPath125">
      <path
         d="M 439.5,300.75 H 615.75 V 438 H 439.5 Z"
         transform="translate(-493.3314,-416.16725)"
         id="path125" />
    </clipPath>
    <clipPath
       clipPathUnits="userSpaceOnUse"
       id="clipPath127">
      <path
         d="M 439.5,300.75 H 615.75 V 438 H 439.5 Z"
         transform="translate(-496.4589,-416.16703)"
         id="path127" />
    </clipPath>
    <clipPath
       clipPathUnits="userSpaceOnUse"
       id="clipPath128">
      <path
         d="M 633.75,12 H 810 V 149.25 H 633.75 Z"
         transform="matrix(0.00567376,0,0,-0.00728597,-3.5957447,1.0874313)"
         id="path128" />
    </clipPath>
    <clipPath
       clipPathUnits="userSpaceOnUse"
       id="clipPath130">
      <path
         d="M 633.75,12 H 810 V 149.25 H 633.75 Z"
         id="path130" />
    </clipPath>
    <clipPath
       clipPathUnits="userSpaceOnUse"
       id="clipPath132">
      <path
         d="M 633.75,12 H 810 V 149.25 H 633.75 Z"
         transform="translate(-673.18142,-135.49833)"
         id="path132" />
    </clipPath>
    <clipPath
       clipPathUnits="userSpaceOnUse"
       id="clipPath134">
      <path
         d="M 633.75,12 H 810 V 149.25 H 633.75 Z"
         transform="translate(-681.9564,-127.41702)"
         id="path134" />
    </clipPath>
    <clipPath
       clipPathUnits="userSpaceOnUse"
       id="clipPath136">
      <path
         d="M 633.75,12 H 810 V 149.25 H 633.75 Z"
         transform="translate(-687.5814,-127.41709)"
         id="path136" />
    </clipPath>
    <clipPath
       clipPathUnits="userSpaceOnUse"
       id="clipPath138">
      <path
         d="M 633.75,12 H 810 V 149.25 H 633.75 Z"
         transform="translate(-690.70891,-127.41702)"
         id="path138" />
    </clipPath>
    <clipPath
       clipPathUnits="userSpaceOnUse"
       id="clipPath139">
      <path
         d="M 633.75,12 H 810 V 149.25 H 633.75 Z"
         transform="matrix(0.00567376,0,0,-0.00728597,-3.5957447,1.0874313)"
         id="path139" />
    </clipPath>
    <clipPath
       clipPathUnits="userSpaceOnUse"
       id="clipPath141">
      <path
         d="M 633.75,12 H 810 V 149.25 H 633.75 Z"
         id="path141" />
    </clipPath>
    <clipPath
       clipPathUnits="userSpaceOnUse"
       id="clipPath143">
      <path
         d="M 633.75,12 H 810 V 149.25 H 633.75 Z"
         transform="translate(-673.18142,-135.49833)"
         id="path143" />
    </clipPath>
    <clipPath
       clipPathUnits="userSpaceOnUse"
       id="clipPath145">
      <path
         d="M 633.75,12 H 810 V 149.25 H 633.75 Z"
         transform="translate(-681.9564,-127.41702)"
         id="path145" />
    </clipPath>
    <clipPath
       clipPathUnits="userSpaceOnUse"
       id="clipPath147">
      <path
         d="M 633.75,12 H 810 V 149.25 H 633.75 Z"
         transform="translate(-687.5814,-127.41709)"
         id="path147" />
    </clipPath>
    <clipPath
       clipPathUnits="userSpaceOnUse"
       id="clipPath149">
      <path
         d="M 633.75,12 H 810 V 149.25 H 633.75 Z"
         transform="translate(-690.70891,-127.41702)"
         id="path149" />
    </clipPath>
    <clipPath
       clipPathUnits="userSpaceOnUse"
       id="clipPath151">
      <path
         d="M 633.75,12 H 810 V 149.25 H 633.75 Z"
         id="path151" />
    </clipPath>
    <clipPath
       clipPathUnits="userSpaceOnUse"
       id="clipPath153">
      <path
         d="M 633.75,12 H 810 V 149.25 H 633.75 Z"
         id="path153" />
    </clipPath>
    <clipPath
       clipPathUnits="userSpaceOnUse"
       id="clipPath155">
      <path
         d="M 633.75,12 H 810 V 149.25 H 633.75 Z"
         id="path155" />
    </clipPath>
    <clipPath
       clipPathUnits="userSpaceOnUse"
       id="clipPath157">
      <path
         d="M 633.75,12 H 810 V 149.25 H 633.75 Z"
         id="path157" />
    </clipPath>
    <clipPath
       clipPathUnits="userSpaceOnUse"
       id="clipPath159">
      <path
         d="M 633.75,12 H 810 V 149.25 H 633.75 Z"
         transform="translate(-647.86074,-140.37405)"
         id="path159" />
    </clipPath>
    <clipPath
       clipPathUnits="userSpaceOnUse"
       id="clipPath161">
      <path
         d="M 633.75,12 H 810 V 149.25 H 633.75 Z"
         transform="translate(-790.04604,-32.898182)"
         id="path161" />
    </clipPath>
    <clipPath
       clipPathUnits="userSpaceOnUse"
       id="clipPath163">
      <path
         d="M 633.75,12 H 810 V 149.25 H 633.75 Z"
         id="path163" />
    </clipPath>
    <clipPath
       clipPathUnits="userSpaceOnUse"
       id="clipPath165">
      <path
         d="M 633.75,12 H 810 V 149.25 H 633.75 Z"
         id="path165" />
    </clipPath>
    <clipPath
       clipPathUnits="userSpaceOnUse"
       id="clipPath168">
      <path
         d="M 633.75,12 H 810 V 149.25 H 633.75 Z"
         transform="translate(-682.92014,-42.856185)"
         id="path168" />
    </clipPath>
    <clipPath
       clipPathUnits="userSpaceOnUse"
       id="clipPath169">
      <path
         d="M 633.75,156.75 H 810 v 136.5 H 633.75 Z"
         transform="matrix(0.00567376,0,0,-0.007326,-3.5957447,2.1483509)"
         id="path169" />
    </clipPath>
    <clipPath
       clipPathUnits="userSpaceOnUse"
       id="clipPath171">
      <path
         d="M 633.75,156.75 H 810 v 136.5 H 633.75 Z"
         id="path171" />
    </clipPath>
    <clipPath
       clipPathUnits="userSpaceOnUse"
       id="clipPath173">
      <path
         d="M 633.75,156.75 H 810 v 136.5 H 633.75 Z"
         transform="translate(-673.18142,-279.5535)"
         id="path173" />
    </clipPath>
    <clipPath
       clipPathUnits="userSpaceOnUse"
       id="clipPath175">
      <path
         d="M 633.75,156.75 H 810 v 136.5 H 633.75 Z"
         transform="translate(-681.9564,-271.47202)"
         id="path175" />
    </clipPath>
    <clipPath
       clipPathUnits="userSpaceOnUse"
       id="clipPath177">
      <path
         d="M 633.75,156.75 H 810 v 136.5 H 633.75 Z"
         transform="translate(-687.5814,-271.47216)"
         id="path177" />
    </clipPath>
    <clipPath
       clipPathUnits="userSpaceOnUse"
       id="clipPath179">
      <path
         d="M 633.75,156.75 H 810 v 136.5 H 633.75 Z"
         transform="translate(-690.70891,-271.47202)"
         id="path179" />
    </clipPath>
    <clipPath
       clipPathUnits="userSpaceOnUse"
       id="clipPath180">
      <path
         d="M 633.75,300.75 H 810 V 438 H 633.75 Z"
         transform="matrix(0.00567376,0,0,-0.00728597,-3.5957447,3.1912558)"
         id="path180" />
    </clipPath>
    <clipPath
       clipPathUnits="userSpaceOnUse"
       id="clipPath182">
      <path
         d="M 633.75,300.75 H 810 V 438 H 633.75 Z"
         id="path182" />
    </clipPath>
    <clipPath
       clipPathUnits="userSpaceOnUse"
       id="clipPath184">
      <path
         d="M 633.75,300.75 H 810 V 438 H 633.75 Z"
         transform="translate(-673.18142,-424.24845)"
         id="path184" />
    </clipPath>
    <clipPath
       clipPathUnits="userSpaceOnUse"
       id="clipPath186">
      <path
         d="M 633.75,300.75 H 810 V 438 H 633.75 Z"
         transform="translate(-681.9564,-416.16703)"
         id="path186" />
    </clipPath>
    <clipPath
       clipPathUnits="userSpaceOnUse"
       id="clipPath188">
      <path
         d="M 633.75,300.75 H 810 V 438 H 633.75 Z"
         transform="translate(-687.5814,-416.16725)"
         id="path188" />
    </clipPath>
    <clipPath
       clipPathUnits="userSpaceOnUse"
       id="clipPath190">
      <path
         d="M 633.75,300.75 H 810 V 438 H 633.75 Z"
         transform="translate(-690.70891,-416.16703)"
         id="path190" />
    </clipPath>
    <clipPath
       clipPathUnits="userSpaceOnUse"
       id="clipPath191">
      <path
         d="M 817.5,12 H 993 V 149.25 H 817.5 Z"
         transform="matrix(0.00569801,0,0,-0.00728597,-4.6581197,1.0874313)"
         id="path191" />
    </clipPath>
    <clipPath
       clipPathUnits="userSpaceOnUse"
       id="clipPath193">
      <path
         d="M 817.5,12 H 993 V 149.25 H 817.5 Z"
         id="path193" />
    </clipPath>
    <clipPath
       clipPathUnits="userSpaceOnUse"
       id="clipPath195">
      <path
         d="M 817.5,12 H 993 V 149.25 H 817.5 Z"
         transform="translate(-856.76365,-135.49833)"
         id="path195" />
    </clipPath>
    <clipPath
       clipPathUnits="userSpaceOnUse"
       id="clipPath197">
      <path
         d="M 817.5,12 H 993 V 149.25 H 817.5 Z"
         transform="translate(-866.3449,-127.41702)"
         id="path197" />
    </clipPath>
    <clipPath
       clipPathUnits="userSpaceOnUse"
       id="clipPath198">
      <path
         d="M 817.5,156.75 H 993 v 136.5 H 817.5 Z"
         transform="matrix(0.00569801,0,0,-0.007326,-4.6581197,2.1483509)"
         id="path198" />
    </clipPath>
    <clipPath
       clipPathUnits="userSpaceOnUse"
       id="clipPath200">
      <path
         d="M 817.5,156.75 H 993 v 136.5 H 817.5 Z"
         id="path200" />
    </clipPath>
    <clipPath
       clipPathUnits="userSpaceOnUse"
       id="clipPath202">
      <path
         d="M 817.5,156.75 H 993 v 136.5 H 817.5 Z"
         transform="translate(-856.76365,-279.5535)"
         id="path202" />
    </clipPath>
    <clipPath
       clipPathUnits="userSpaceOnUse"
       id="clipPath204">
      <path
         d="M 817.5,156.75 H 993 v 136.5 H 817.5 Z"
         transform="translate(-866.3449,-271.47202)"
         id="path204" />
    </clipPath>
    <clipPath
       clipPathUnits="userSpaceOnUse"
       id="clipPath205">
      <path
         d="M 817.5,300.75 H 993 V 438 H 817.5 Z"
         transform="matrix(0.00569801,0,0,-0.00728597,-4.6581197,3.1912558)"
         id="path205" />
    </clipPath>
    <clipPath
       clipPathUnits="userSpaceOnUse"
       id="clipPath207">
      <path
         d="M 817.5,300.75 H 993 V 438 H 817.5 Z"
         id="path207" />
    </clipPath>
    <clipPath
       clipPathUnits="userSpaceOnUse"
       id="clipPath209">
      <path
         d="M 817.5,300.75 H 993 V 438 H 817.5 Z"
         transform="translate(-856.76365,-424.24845)"
         id="path209" />
    </clipPath>
    <clipPath
       clipPathUnits="userSpaceOnUse"
       id="clipPath211">
      <path
         d="M 817.5,300.75 H 993 V 438 H 817.5 Z"
         transform="translate(-865.53865,-416.16703)"
         id="path211" />
    </clipPath>
    <clipPath
       clipPathUnits="userSpaceOnUse"
       id="clipPath213">
      <path
         d="M 817.5,300.75 H 993 V 438 H 817.5 Z"
         transform="translate(-871.16365,-416.16681)"
         id="path213" />
    </clipPath>
    <clipPath
       clipPathUnits="userSpaceOnUse"
       id="clipPath215">
      <path
         d="M 817.5,300.75 H 993 V 438 H 817.5 Z"
         transform="translate(-874.29115,-416.16703)"
         id="path215" />
    </clipPath>
    <clipPath
       clipPathUnits="userSpaceOnUse"
       id="clipPath216">
      <path
         d="m 1000.5,12 h 176.25 V 149.25 H 1000.5 Z"
         transform="matrix(0.00567376,0,0,-0.00728597,-5.6765957,1.0874313)"
         id="path216" />
    </clipPath>
    <clipPath
       clipPathUnits="userSpaceOnUse"
       id="clipPath218">
      <path
         d="m 1000.5,12 h 176.25 V 149.25 H 1000.5 Z"
         id="path218" />
    </clipPath>
    <clipPath
       clipPathUnits="userSpaceOnUse"
       id="clipPath220">
      <path
         d="m 1000.5,12 h 176.25 V 149.25 H 1000.5 Z"
         transform="translate(-1039.9314,-135.49833)"
         id="path220" />
    </clipPath>
    <clipPath
       clipPathUnits="userSpaceOnUse"
       id="clipPath222">
      <path
         d="m 1000.5,12 h 176.25 V 149.25 H 1000.5 Z"
         transform="translate(-1048.7064,-127.41702)"
         id="path222" />
    </clipPath>
    <clipPath
       clipPathUnits="userSpaceOnUse"
       id="clipPath224">
      <path
         d="m 1000.5,12 h 176.25 V 149.25 H 1000.5 Z"
         transform="translate(-1054.3314,-127.41709)"
         id="path224" />
    </clipPath>
    <clipPath
       clipPathUnits="userSpaceOnUse"
       id="clipPath226">
      <path
         d="m 1000.5,12 h 176.25 V 149.25 H 1000.5 Z"
         transform="translate(-1057.4589,-127.41702)"
         id="path226" />
    </clipPath>
    <clipPath
       clipPathUnits="userSpaceOnUse"
       id="clipPath227">
      <path
         d="m 1000.5,156.75 h 176.25 v 136.5 H 1000.5 Z"
         transform="matrix(0.00567376,0,0,-0.007326,-5.6765957,2.1483509)"
         id="path227" />
    </clipPath>
    <clipPath
       clipPathUnits="userSpaceOnUse"
       id="clipPath229">
      <path
         d="m 1000.5,156.75 h 176.25 v 136.5 H 1000.5 Z"
         id="path229" />
    </clipPath>
    <clipPath
       clipPathUnits="userSpaceOnUse"
       id="clipPath231">
      <path
         d="m 1000.5,156.75 h 176.25 v 136.5 H 1000.5 Z"
         transform="translate(-1039.9314,-279.5535)"
         id="path231" />
    </clipPath>
    <clipPath
       clipPathUnits="userSpaceOnUse"
       id="clipPath233">
      <path
         d="m 1000.5,156.75 h 176.25 v 136.5 H 1000.5 Z"
         transform="translate(-1049.5127,-271.47202)"
         id="path233" />
    </clipPath>
    <clipPath
       clipPathUnits="userSpaceOnUse"
       id="clipPath235">
      <path
         d="m 1000.5,156.75 h 176.25 v 136.5 H 1000.5 Z"
         transform="matrix(1,0,0,0.99999853,-1058.2652,-271.47188)"
         id="path235" />
    </clipPath>
    <clipPath
       clipPathUnits="userSpaceOnUse"
       id="clipPath236">
      <path
         d="m 1000.5,300.75 h 176.25 V 438 H 1000.5 Z"
         transform="matrix(0.00567376,0,0,-0.00728597,-5.6765957,3.1912558)"
         id="path236" />
    </clipPath>
    <clipPath
       clipPathUnits="userSpaceOnUse"
       id="clipPath238">
      <path
         d="m 1000.5,300.75 h 176.25 V 438 H 1000.5 Z"
         id="path238" />
    </clipPath>
    <clipPath
       clipPathUnits="userSpaceOnUse"
       id="clipPath240">
      <path
         d="m 1000.5,300.75 h 176.25 V 438 H 1000.5 Z"
         transform="translate(-1039.9314,-424.24845)"
         id="path240" />
    </clipPath>
    <clipPath
       clipPathUnits="userSpaceOnUse"
       id="clipPath242">
      <path
         d="m 1000.5,300.75 h 176.25 V 438 H 1000.5 Z"
         transform="translate(-1048.7064,-416.16703)"
         id="path242" />
    </clipPath>
    <clipPath
       clipPathUnits="userSpaceOnUse"
       id="clipPath244">
      <path
         d="m 1000.5,300.75 h 176.25 V 438 H 1000.5 Z"
         transform="translate(-1054.3314,-416.16725)"
         id="path244" />
    </clipPath>
    <clipPath
       clipPathUnits="userSpaceOnUse"
       id="clipPath246">
      <path
         d="m 1000.5,300.75 h 176.25 V 438 H 1000.5 Z"
         transform="translate(-1057.4589,-416.16703)"
         id="path246" />
    </clipPath>
    <clipPath
       clipPathUnits="userSpaceOnUse"
       id="clipPath247">
      <path
         d="m 42.75,12 h 12 v 426 h -12 z"
         transform="matrix(0.08333335,0,0,-0.00234742,-3.5625011,1.028169)"
         id="path247" />
    </clipPath>
    <clipPath
       clipPathUnits="userSpaceOnUse"
       id="clipPath265">
      <path
         d="m 1194.75,12 h 12 v 426 h -12 z"
         transform="matrix(0.08333269,0,0,-0.00234742,-99.561735,1.028169)"
         id="path265" />
    </clipPath>
    <clipPath
       clipPathUnits="userSpaceOnUse"
       id="clipPath2">
      <rect
         style="fill:none;stroke:#e69f00;stroke-width:5.43549;stroke-linecap:square;stroke-miterlimit:4.1;paint-order:stroke fill markers"
         id="rect2"
         width="119.55966"
         height="100.29599"
         x="247.25217"
         y="218.72713" />
    </clipPath>
  </defs>
  <sodipodi:namedview
     id="namedview1"
     pagecolor="#505050"
     bordercolor="#eeeeee"
     borderopacity="1"
     inkscape:showpageshadow="0"
     inkscape:pageopacity="0"
     inkscape:pagecheckerboard="0"
     inkscape:deskcolor="#505050"
     inkscape:zoom="4"
     inkscape:cx="74.375"
     inkscape:cy="76.75"
     inkscape:window-width="1920"
     inkscape:window-height="1003"
     inkscape:window-x="0"
     inkscape:window-y="0"
     inkscape:window-maximized="1"
     inkscape:current-layer="g1"
     showgrid="false"
     showguides="true">
    <inkscape:page
       x="0"
       y="0"
       inkscape:label="1"
       id="page1"
       width="119.55966"
       height="100.296"
       margin="0"
       bleed="0"
       inkscape:export-filename="wave_inv.png"
       inkscape:export-xdpi="96"
       inkscape:export-ydpi="96" />
    <inkscape:grid
       id="grid306"
       units="px"
       originx="-90.220159"
       originy="-36.352009"
       spacingx="1"
       spacingy="1"
       empcolor="#0099e5"
       empopacity="0.30196078"
       color="#0099e5"
       opacity="0.14901961"
       empspacing="5"
       dotted="false"
       gridanglex="30"
       gridanglez="30"
       visible="false" />
  </sodipodi:namedview>
  <g
     id="g1"
     inkscape:groupmode="layer"
     inkscape:label="1"
     transform="translate(-247.25217,-218.72713)">
    <path
       id="rect3"
       style="fill:#fbfff8;stroke-width:2;stroke-miterlimit:2;paint-order:markers fill stroke;fill-opacity:1"
       d="M 247.25217 218.72713 L 247.25217 319.024 L 366.81272 319.024 L 366.81272 218.72713 L 247.25217 218.72713 z M 307.03147 239.21736 C 315.60352 239.21736 323.02228 242.90083 326.45725 244.55135 C 333.43829 248.12923 341.72799 254.13199 343.98069 258.03377 C 346.7946 262.90766 333.83342 274.06774 328.69553 270.48299 C 323.99966 266.8328 315.97882 249.61841 307.03147 249.50252 C 298.08412 249.61841 290.06327 266.8328 285.3674 270.48299 C 280.22951 274.06774 267.26637 262.90766 270.08029 258.03377 C 272.33298 254.13199 280.62462 248.12923 287.60569 244.55135 C 291.04063 242.90083 298.45942 239.21736 307.03147 239.21736 z M 307.03147 254.50643 C 311.14604 254.61641 315.01698 257.81797 318.28733 261.73104 C 322.34157 267.53202 323.58187 271.00692 320.40451 274.19002 C 317.78764 276.81164 311.52234 276.85096 307.03147 276.84822 C 302.54057 276.85122 296.27532 276.81162 293.65842 274.19002 C 290.48106 271.00692 291.72134 267.53202 295.77561 261.73104 C 299.04593 257.81797 302.91687 254.61641 307.03147 254.50643 z M 266.72287 265.22518 C 269.51927 265.43189 272.22111 267.88817 276.62131 271.49471 C 282.85688 275.71464 281.54291 279.33753 276.60764 287.51815 C 273.99588 292.04184 270.34175 290.64862 264.42014 287.84627 C 263.827 287.2198 249.42626 281.1823 259.18576 269.34236 C 262.31529 266.26324 264.54792 265.06441 266.72287 265.22518 z M 347.34006 265.22518 C 349.51504 265.06441 351.7457 266.26324 354.87522 269.34236 C 364.63472 281.1823 350.23398 287.2198 349.64084 287.84627 C 343.71923 290.64862 340.06704 292.04184 337.45529 287.51815 C 332.52004 279.33753 331.20408 275.71464 337.43967 271.49471 C 341.8399 267.88817 344.54366 265.43189 347.34006 265.22518 z M 321.16819 278.95369 C 328.18178 278.89913 328.97279 287.37389 328.92014 291.70565 C 327.74883 298.24833 312.51757 298.53572 307.03147 298.53572 C 301.54534 298.53572 286.31215 298.24833 285.14084 291.70565 C 285.08814 287.37389 285.88109 278.90103 292.89475 278.95565 C 293.36233 278.95965 293.85661 278.99934 294.38108 279.0826 C 298.61802 279.32134 299.24711 280.37361 307.03147 280.37361 C 314.81581 280.37361 315.44296 279.32134 319.6799 279.0826 C 320.20437 278.9994 320.70061 278.95733 321.16819 278.95369 z "
       inkscape:export-filename="./inverse.pdf"
       inkscape:export-xdpi="96"
       inkscape:export-ydpi="96" />
  </g>
</svg>
