<?xml version="1.0" encoding="UTF-8" standalone="no"?>
<!-- Created with Inkscape (http://www.inkscape.org/) -->

<svg
   version="1.1"
   id="svg1"
   width="382.50781"
   height="374.96094"
   viewBox="0 0 382.50781 374.96094"
   sodipodi:docname="wos_visual.pdf"
   xmlns:inkscape="http://www.inkscape.org/namespaces/inkscape"
   xmlns:sodipodi="http://sodipodi.sourceforge.net/DTD/sodipodi-0.dtd"
   xmlns="http://www.w3.org/2000/svg"
   xmlns:svg="http://www.w3.org/2000/svg">
  <defs
     id="defs1" />
  <sodipodi:namedview
     id="namedview1"
     pagecolor="#ffffff"
     bordercolor="#000000"
     borderopacity="0.25"
     inkscape:showpageshadow="2"
     inkscape:pageopacity="0.0"
     inkscape:pagecheckerboard="0"
     inkscape:deskcolor="#d1d1d1">
    <inkscape:page
       x="0"
       y="0"
       width="382.50781"
       height="374.96094"
       id="page2"
       margin="0"
       bleed="0" />
  </sodipodi:namedview>
  <g
     id="g1"
     inkscape:groupmode="layer"
     inkscape:label="1"
     transform="translate(-108.9922,-15.5)">
    <path
       id="path1"
       d="M 0,0 H 450 V 306 H 0 Z"
       style="fill:#ffffff;fill-opacity:1;fill-rule:nonzero;stroke:none"
       transform="scale(1.3333333)" />
    <path
       id="path2"
       d="m 96.75,12 h 271.5 V 280.5 H 96.75 Z"
       style="fill:#ffffff;fill-opacity:1;fill-rule:nonzero;stroke:none"
       transform="scale(1.3333333)" />
    <g
       id="g2"
       aria-label="−101&#10;−"
       transform="matrix(1.3333333,0,0,1.3333333,185.67876,390.258)">
      <path
         id="path3"
         d="m 5.4147601,-2.2735781 c 0,0 -4.69921872,0 -4.69921872,0 0,0 0,-0.703125 0,-0.703125 0,0 4.69921872,0 4.69921872,0 z m 0,0"
         style="fill:#000000;fill-opacity:1;fill-rule:nonzero;stroke:none" />
      <path
         id="path4"
         d="m 9.7770648,-1.40625e-4 c 0,0 -0.9257812,0 -0.9257812,0 0,0 0,-5.296874975 0,-5.296874975 0,0 -1.6523438,0 -1.6523438,0 0,0 0,-0.6679688 0,-0.6679688 1.4296875,-0.1757812 1.640625,-0.3398437 1.96875,-1.4765625 0,0 0.609375,0 0.609375,0 z M 91.673549,-3.5860781 c 0,2.4492187 -0.855469,3.73828123 -2.4375,3.73828123 -1.59375,0 -2.425781,-1.28906253 -2.425781,-3.79687503 0,-2.4960937 0.820312,-3.796875 2.425781,-3.796875 1.617188,0 2.4375,1.2773438 2.4375,3.8554688 z m -0.9375,-0.082031 c 0,-1.9921875 -0.492187,-2.953125 -1.5,-2.953125 -0.996094,0 -1.488281,0.9492188 -1.488281,2.9882813 0,2.0390625 0.492187,3.02343748 1.476562,3.02343748 1.019532,0 1.511719,-0.94921878 1.511719,-3.05859378 z m 82.543941,3.667968775 c 0,0 -0.92578,0 -0.92578,0 0,0 0,-5.296874975 0,-5.296874975 0,0 -1.65234,0 -1.65234,0 0,0 0,-0.6679688 0,-0.6679688 1.42969,-0.1757812 1.64062,-0.3398437 1.96875,-1.4765625 0,0 0.60937,0 0.60937,0 z m 0,0"
         style="fill:#000000;fill-opacity:1;fill-rule:nonzero;stroke:none" />
      <path
         id="path5"
         d="m -52.815709,-68.44057 c 0,0 -4.699218,0 -4.699218,0 0,0 0,-0.703125 0,-0.703125 0,0 4.699218,0 4.699218,0 z m 0,0"
         style="fill:#000000;fill-opacity:1;fill-rule:nonzero;stroke:none" />
    </g>
    <path
       id="path6"
       d="m 3.6436611,-0.00105781 c 0,0 -0.9257813,0 -0.9257813,0 0,0 0,-5.29687499 0,-5.29687499 0,0 -1.6523437,0 -1.6523437,0 0,0 0,-0.6679688 0,-0.6679688 1.4296875,-0.1757812 1.640625,-0.3398437 1.96875,-1.4765625 0,0 0.609375,0 0.609375,0 z m 0,0"
       style="fill:#000000;fill-opacity:1;fill-rule:nonzero;stroke:none"
       aria-label="1"
       transform="matrix(1.3333333,0,0,1.3333333,116.216,302.03657)" />
    <path
       id="path7"
       d="m 5.3194433,-3.5851559 c 0,2.4492188 -0.8554687,3.73828128 -2.4375,3.73828128 -1.59375,0 -2.42578124,-1.28906248 -2.42578124,-3.79687498 0,-2.4960938 0.82031254,-3.796875 2.42578124,-3.796875 1.6171875,0 2.4375,1.2773437 2.4375,3.8554687 z m -0.9375,-0.082031 c 0,-1.9921875 -0.4921875,-2.953125 -1.5,-2.953125 -0.9960937,0 -1.4882812,0.9492187 -1.4882812,2.9882812 0,2.0390625 0.4921875,3.02343753 1.4765625,3.02343753 1.0195312,0 1.5117187,-0.94921873 1.5117187,-3.05859373 z M 3.6436621,-83.284375 c 0,0 -0.9257813,0 -0.9257813,0 0,0 0,-5.296875 0,-5.296875 0,0 -1.6523437,0 -1.6523437,0 0,0 0,-0.667968 0,-0.667968 1.4296875,-0.175782 1.640625,-0.339844 1.96875,-1.476563 0,0 0.609375,0 0.609375,0 z m 0,0"
       style="fill:#000000;fill-opacity:1;fill-rule:nonzero;stroke:none"
       aria-label="0&#10;1"
       transform="matrix(1.3333333,0,0,1.3333333,116.216,190.99115)" />
    <path
       id="path8"
       d="m 343.461,139.418 -24.52,-14.695 -20.796,-8.547 -6.305,-9.988 6.308,-19.09 6.977,-27.426 -4.156,-25.207 -17.774,-10.262 -23.902,9.008 -20.266,19.754 -13.379,15.008 -11.8,-0.465 -17.801,-13.738 -24.985,-13.887 -24.152,-0.43 -12.156,16.887 4.238,26.457 13.262,24.121 7.973,15.664 -7.426,10.723 -20.289,13.863 -19.43,20.703 -3.992,22.434 16,14.519 27.726,1.664 25.641,-5.746 15.094,-0.738 6.902,13.437 7.844,25.079 15.305,23.179 20.574,6.598 17.433,-14.672 8.215,-27.184 1.86,-24.5 5.574,-11.789 17.551,-0.929 27.523,-0.575 25.031,-9.558 8.547,-18.973 z"
       style="fill:#9fb6cd;fill-opacity:1;fill-rule:evenodd;stroke:#4d4d4d;stroke-width:1.125;stroke-linecap:butt;stroke-linejoin:miter;stroke-miterlimit:2;stroke-dasharray:none;stroke-opacity:1"
       transform="scale(1.3333333)" />
    <path
       id="path9"
       d="m 266.766,106.102 -0.301,-4.793 -0.899,-4.715 -1.484,-4.567 -2.047,-4.347 -2.57,-4.055 -3.063,-3.699 -3.5,-3.285 -3.886,-2.825 -4.207,-2.312 -4.465,-1.77 -4.649,-1.191 -4.765,-0.605 h -4.801 l -4.766,0.605 -4.652,1.191 -4.465,1.77 -4.207,2.312 -3.887,2.825 -3.5,3.285 -3.058,3.699 -2.574,4.055 -2.043,4.347 -1.485,4.567 -0.902,4.715 -0.301,4.793 0.301,4.793 0.902,4.718 1.485,4.567 2.043,4.343 2.574,4.055 3.058,3.699 3.5,3.289 3.887,2.821 4.207,2.316 4.465,1.766 4.652,1.195 4.766,0.602 h 4.801 l 4.765,-0.602 4.649,-1.195 4.465,-1.766 4.207,-2.316 3.886,-2.821 3.5,-3.289 3.063,-3.699 2.57,-4.055 2.047,-4.343 1.484,-4.567 0.899,-4.718 z"
       style="fill:none;stroke:#008000;stroke-width:1.125;stroke-linecap:butt;stroke-linejoin:miter;stroke-miterlimit:2;stroke-dasharray:none;stroke-opacity:1"
       transform="scale(1.3333333)" />
    <path
       id="path10"
       d="m 301.152,142.211 -0.476,-7.523 -1.41,-7.407 -2.332,-7.172 -3.211,-6.82 -4.039,-6.367 -4.805,-5.813 -5.496,-5.16 -6.102,-4.429 -6.609,-3.633 -7.008,-2.778 -7.305,-1.875 -7.48,-0.945 h -7.539 l -7.481,0.945 -7.304,1.875 -7.008,2.778 -6.609,3.633 -6.098,4.429 -5.5,5.16 -4.805,5.813 -4.039,6.367 -3.211,6.82 -2.332,7.172 -1.41,7.407 -0.473,7.523 0.473,7.527 1.41,7.407 2.332,7.171 3.211,6.821 4.039,6.367 4.805,5.808 5.5,5.161 6.098,4.433 6.609,3.633 7.008,2.773 7.304,1.876 7.481,0.945 h 7.539 l 7.48,-0.945 7.305,-1.876 7.008,-2.773 6.609,-3.633 6.102,-4.433 5.496,-5.161 4.805,-5.808 4.039,-6.367 3.211,-6.821 2.332,-7.171 1.41,-7.407 z"
       style="fill:none;stroke:#008000;stroke-width:1.125;stroke-linecap:butt;stroke-linejoin:miter;stroke-miterlimit:2;stroke-dasharray:none;stroke-opacity:1"
       transform="scale(1.3333333)" />
    <path
       id="path11"
       d="m 238.332,85.945 -0.144,-2.277 -0.426,-2.242 -0.707,-2.172 -0.969,-2.063 -1.227,-1.929 -1.453,-1.758 -1.664,-1.563 -1.847,-1.343 -2,-1.098 -2.122,-0.84 -2.211,-0.57 -2.265,-0.285 h -2.281 l -2.266,0.285 -2.211,0.57 -2.121,0.84 -2,1.098 -1.848,1.343 -1.664,1.563 -1.457,1.758 -1.222,1.929 -0.969,2.063 -0.707,2.172 -0.43,2.242 -0.141,2.277 0.141,2.278 0.43,2.242 0.707,2.172 0.969,2.066 1.222,1.926 1.457,1.762 1.664,1.562 1.848,1.34 2,1.102 2.121,0.839 2.211,0.567 2.266,0.285 h 2.281 l 2.265,-0.285 2.211,-0.567 2.122,-0.839 2,-1.102 1.847,-1.34 1.664,-1.562 1.453,-1.762 1.227,-1.926 0.969,-2.066 0.707,-2.172 0.426,-2.242 z"
       style="fill:none;stroke:#008000;stroke-width:1.125;stroke-linecap:butt;stroke-linejoin:miter;stroke-miterlimit:2;stroke-dasharray:none;stroke-opacity:1"
       transform="scale(1.3333333)" />
    <path
       id="path12"
       d="m 217.332,76.414 -0.098,-1.586 -0.296,-1.558 -0.493,-1.512 -0.675,-1.438 -0.852,-1.343 -1.016,-1.223 -1.156,-1.09 -1.285,-0.934 -1.395,-0.765 -1.476,-0.586 -1.539,-0.395 -1.578,-0.199 h -1.59 l -1.574,0.199 -1.539,0.395 -1.481,0.586 -1.391,0.765 -1.285,0.934 -1.16,1.09 -1.012,1.223 -0.851,1.343 -0.676,1.438 -0.492,1.512 -0.297,1.558 -0.102,1.586 0.102,1.586 0.297,1.562 0.492,1.512 0.676,1.438 0.851,1.34 1.012,1.226 1.16,1.086 1.285,0.938 1.391,0.765 1.481,0.582 1.539,0.399 1.574,0.199 h 1.59 l 1.578,-0.199 1.539,-0.399 1.476,-0.582 1.395,-0.765 1.285,-0.938 1.156,-1.086 1.016,-1.226 0.852,-1.34 0.675,-1.438 0.493,-1.512 0.296,-1.562 z"
       style="fill:none;stroke:#008000;stroke-width:1.125;stroke-linecap:butt;stroke-linejoin:miter;stroke-miterlimit:2;stroke-dasharray:none;stroke-opacity:1"
       transform="scale(1.3333333)" />
    <path
       id="path13"
       d="m 208.004,69.992 -0.109,-1.785 -0.336,-1.754 -0.551,-1.699 -0.762,-1.617 -0.957,-1.508 -1.141,-1.379 -1.3,-1.223 -1.446,-1.05 -1.566,-0.86 -1.664,-0.66 -1.731,-0.445 -1.773,-0.223 h -1.785 l -1.774,0.223 -1.73,0.445 -1.66,0.66 -1.567,0.86 -1.445,1.05 -1.305,1.223 -1.136,1.379 -0.961,1.508 -0.758,1.617 -0.555,1.699 -0.332,1.754 -0.113,1.785 0.113,1.781 0.332,1.758 0.555,1.699 0.758,1.618 0.961,1.507 1.136,1.375 1.305,1.227 1.445,1.047 1.567,0.863 1.66,0.656 1.73,0.446 1.774,0.222 h 1.785 l 1.773,-0.222 1.731,-0.446 1.664,-0.656 1.566,-0.863 1.446,-1.047 1.3,-1.227 1.141,-1.375 0.957,-1.507 0.762,-1.618 0.551,-1.699 0.336,-1.758 z"
       style="fill:none;stroke:#008000;stroke-width:1.125;stroke-linecap:butt;stroke-linejoin:miter;stroke-miterlimit:2;stroke-dasharray:none;stroke-opacity:1"
       transform="scale(1.3333333)" />
    <path
       id="path14"
       d="m 194.988,56.43 -0.043,-0.692 -0.129,-0.683 -0.214,-0.657 -0.293,-0.628 -0.375,-0.586 -0.442,-0.536 -0.504,-0.472 -0.558,-0.406 -0.61,-0.336 -0.644,-0.254 -0.672,-0.172 -0.688,-0.086 h -0.691 l -0.687,0.086 -0.672,0.172 -0.645,0.254 -0.609,0.336 -0.559,0.406 -0.504,0.472 -0.445,0.536 -0.371,0.586 -0.293,0.628 -0.215,0.657 -0.129,0.683 -0.043,0.692 0.043,0.691 0.129,0.68 0.215,0.66 0.293,0.625 0.371,0.586 0.445,0.535 0.504,0.473 0.559,0.41 0.609,0.332 0.645,0.254 0.672,0.172 0.687,0.09 h 0.691 l 0.688,-0.09 0.672,-0.172 0.644,-0.254 0.61,-0.332 0.558,-0.41 0.504,-0.473 0.442,-0.535 0.375,-0.586 0.293,-0.625 0.214,-0.66 0.129,-0.68 z"
       style="fill:none;stroke:#008000;stroke-width:1.125;stroke-linecap:butt;stroke-linejoin:miter;stroke-miterlimit:2;stroke-dasharray:none;stroke-opacity:1"
       transform="scale(1.3333333)" />
    <path
       id="path15"
       d="m 194.125,58.457 -0.078,-1.227 -0.231,-1.207 -0.378,-1.168 -0.524,-1.113 -0.656,-1.035 -0.785,-0.949 -0.895,-0.84 -0.996,-0.723 -1.078,-0.593 -1.141,-0.45 -1.191,-0.308 -1.219,-0.153 h -1.23 l -1.219,0.153 -1.192,0.308 -1.14,0.45 -1.078,0.593 -0.992,0.723 -0.899,0.84 -0.781,0.949 -0.66,1.035 -0.524,1.113 -0.379,1.168 -0.23,1.207 -0.078,1.227 0.078,1.227 0.23,1.211 0.379,1.167 0.524,1.11 0.66,1.039 0.781,0.949 0.899,0.84 0.992,0.723 1.078,0.589 1.14,0.454 1.192,0.308 1.219,0.153 h 1.23 l 1.219,-0.153 1.191,-0.308 1.141,-0.454 1.078,-0.589 0.996,-0.723 0.895,-0.84 0.785,-0.949 0.656,-1.039 0.524,-1.11 0.378,-1.167 0.231,-1.211 z"
       style="fill:none;stroke:#008000;stroke-width:1.125;stroke-linecap:butt;stroke-linejoin:miter;stroke-miterlimit:2;stroke-dasharray:none;stroke-opacity:1"
       transform="scale(1.3333333)" />
    <path
       id="path16"
       d="m 184.523,49.043 -0.023,-0.359 -0.066,-0.352 -0.11,-0.34 -0.152,-0.324 -0.195,-0.301 -0.227,-0.277 -0.262,-0.246 -0.289,-0.211 -0.312,-0.172 -0.336,-0.133 -0.348,-0.09 -0.355,-0.043 h -0.356 l -0.355,0.043 -0.348,0.09 -0.332,0.133 -0.316,0.172 -0.289,0.211 -0.262,0.246 -0.227,0.277 -0.195,0.301 -0.152,0.324 -0.11,0.34 -0.066,0.352 -0.024,0.359 0.024,0.355 0.066,0.356 0.11,0.34 0.152,0.324 0.195,0.301 0.227,0.277 0.262,0.246 0.289,0.211 0.316,0.172 0.332,0.133 0.348,0.086 0.355,0.047 h 0.356 l 0.355,-0.047 0.348,-0.086 0.336,-0.133 0.312,-0.172 0.289,-0.211 0.262,-0.246 0.227,-0.277 0.195,-0.301 0.152,-0.324 0.11,-0.34 0.066,-0.356 z"
       style="fill:none;stroke:#008000;stroke-width:1.125;stroke-linecap:butt;stroke-linejoin:miter;stroke-miterlimit:2;stroke-dasharray:none;stroke-opacity:1"
       transform="scale(1.3333333)" />
    <path
       id="path17"
       d="M 182.996,46.516 V 46.52 Z"
       style="fill:none;stroke:#008000;stroke-width:1.125;stroke-linecap:butt;stroke-linejoin:miter;stroke-miterlimit:2;stroke-dasharray:none;stroke-opacity:1"
       transform="scale(1.3333333)" />
    <path
       id="path18"
       d="m 231.699,106.102 c 0,-4.231 -6.344,-4.231 -6.344,0 0,4.23 6.344,4.23 6.344,0 z"
       style="fill:#008000;fill-opacity:1;fill-rule:nonzero;stroke:none"
       transform="scale(1.3333333)" />
    <path
       id="path19"
       d="m 244.281,142.211 c 0,-4.231 -6.343,-4.231 -6.343,0 0,4.23 6.343,4.23 6.343,0 z"
       style="fill:#008000;fill-opacity:1;fill-rule:nonzero;stroke:none"
       transform="scale(1.3333333)" />
    <path
       id="path20"
       d="m 223.328,85.945 c 0,-4.23 -6.344,-4.23 -6.344,0 0,4.231 6.344,4.231 6.344,0 z"
       style="fill:#008000;fill-opacity:1;fill-rule:nonzero;stroke:none"
       transform="scale(1.3333333)" />
    <path
       id="path21"
       d="m 207.852,76.414 c 0,-4.23 -6.344,-4.23 -6.344,0 0,4.231 6.344,4.231 6.344,0 z"
       style="fill:#008000;fill-opacity:1;fill-rule:nonzero;stroke:none"
       transform="scale(1.3333333)" />
    <path
       id="path22"
       d="m 196.949,69.992 c 0,-4.23 -6.347,-4.23 -6.347,0 0,4.231 6.347,4.231 6.347,0 z"
       style="fill:#008000;fill-opacity:1;fill-rule:nonzero;stroke:none"
       transform="scale(1.3333333)" />
    <path
       id="path23"
       d="m 192.645,56.43 c 0,-4.231 -6.348,-4.231 -6.348,0 0,4.23 6.348,4.23 6.348,0 z"
       style="fill:#008000;fill-opacity:1;fill-rule:nonzero;stroke:none"
       transform="scale(1.3333333)" />
    <path
       id="path24"
       d="m 187.512,58.457 c 0,-4.227 -6.344,-4.227 -6.344,0 0,4.231 6.344,4.231 6.344,0 z"
       style="fill:#008000;fill-opacity:1;fill-rule:nonzero;stroke:none"
       transform="scale(1.3333333)" />
    <path
       id="path25"
       d="m 184.844,49.043 c 0,-4.231 -6.348,-4.231 -6.348,0 0,4.23 6.348,4.23 6.348,0 z"
       style="fill:#008000;fill-opacity:1;fill-rule:nonzero;stroke:none"
       transform="scale(1.3333333)" />
    <path
       id="path26"
       d="m 186.168,46.516 c 0,-4.231 -6.344,-4.231 -6.344,0 0,4.23 6.344,4.23 6.344,0 z"
       style="fill:#008000;fill-opacity:1;fill-rule:nonzero;stroke:none"
       transform="scale(1.3333333)" />
    <path
       id="path27"
       d="m 228.527,106.102 12.582,36.109 -20.953,-56.266 -15.476,-9.531 -10.903,-6.422 -4.308,-13.562 -5.129,2.027 -2.668,-9.414 1.324,-2.527"
       style="fill:none;stroke:#000000;stroke-width:1.125;stroke-linecap:butt;stroke-linejoin:miter;stroke-miterlimit:2;stroke-dasharray:none;stroke-opacity:1"
       transform="scale(1.3333333)" />
    <path
       id="path28"
       d="m 282.555,188.473 c 0,-4.227 -6.348,-4.227 -6.348,0 0,4.23 6.348,4.23 6.348,0 z"
       style="fill:#4c72b0;fill-opacity:1;fill-rule:nonzero;stroke:none"
       transform="scale(1.3333333)" />
    <path
       id="path29"
       d="m 224.469,67.805 c 0,-4.231 -6.344,-4.231 -6.344,0 0,4.23 6.344,4.23 6.344,0 z"
       style="fill:#4c72b0;fill-opacity:1;fill-rule:nonzero;stroke:none"
       transform="scale(1.3333333)" />
    <path
       id="path30"
       d="m 215.918,66.664 c 0,-4.23 -6.344,-4.23 -6.344,0 0,4.231 6.344,4.231 6.344,0 z"
       style="fill:#4c72b0;fill-opacity:1;fill-rule:nonzero;stroke:none"
       transform="scale(1.3333333)" />
    <path
       id="path31"
       d="m 206.02,59.027 c 0,-4.23 -6.348,-4.23 -6.348,0 0,4.231 6.348,4.231 6.348,0 z"
       style="fill:#4c72b0;fill-opacity:1;fill-rule:nonzero;stroke:none"
       transform="scale(1.3333333)" />
    <path
       id="path32"
       d="m 195.602,51.77 c 0,-4.231 -6.348,-4.231 -6.348,0 0,4.23 6.348,4.23 6.348,0 z"
       style="fill:#4c72b0;fill-opacity:1;fill-rule:nonzero;stroke:none"
       transform="scale(1.3333333)" />
    <path
       id="path33"
       d="m 192.754,50.195 c 0,-4.23 -6.344,-4.23 -6.344,0 0,4.231 6.344,4.231 6.344,0 z"
       style="fill:#4c72b0;fill-opacity:1;fill-rule:nonzero;stroke:none"
       transform="scale(1.3333333)" />
    <path
       id="path34"
       d="m 186.371,46.633 c 0,-4.231 -6.344,-4.231 -6.344,0 0,4.23 6.344,4.23 6.344,0 z"
       style="fill:#4c72b0;fill-opacity:1;fill-rule:nonzero;stroke:none"
       transform="scale(1.3333333)" />
    <path
       id="path35"
       d="m 186.172,46.516 c 0,-4.231 -6.348,-4.231 -6.348,0 0,4.23 6.348,4.23 6.348,0 z"
       style="fill:#4c72b0;fill-opacity:1;fill-rule:nonzero;stroke:none"
       transform="scale(1.3333333)" />
    <path
       id="path36"
       d="m 145.242,277.125 v 3.75"
       style="fill:none;stroke:#000000;stroke-width:0.75;stroke-linecap:butt;stroke-linejoin:miter;stroke-miterlimit:1.1547;stroke-dasharray:none;stroke-opacity:1"
       transform="scale(1.3333333)" />
    <path
       id="path37"
       d="m 228.527,277.125 v 3.75"
       style="fill:none;stroke:#000000;stroke-width:0.75;stroke-linecap:butt;stroke-linejoin:miter;stroke-miterlimit:1.1547;stroke-dasharray:none;stroke-opacity:1"
       transform="scale(1.3333333)" />
    <path
       id="path38"
       d="m 311.812,277.125 v 3.75"
       style="fill:none;stroke:#000000;stroke-width:0.75;stroke-linecap:butt;stroke-linejoin:miter;stroke-miterlimit:1.1547;stroke-dasharray:none;stroke-opacity:1"
       transform="scale(1.3333333)" />
    <path
       id="path39"
       d="m 128.586,278.625 v 2.25"
       style="fill:none;stroke:#000000;stroke-width:0.75;stroke-linecap:butt;stroke-linejoin:miter;stroke-miterlimit:1.1547;stroke-dasharray:none;stroke-opacity:1"
       transform="scale(1.3333333)" />
    <path
       id="path40"
       d="m 111.93,278.625 v 2.25"
       style="fill:none;stroke:#000000;stroke-width:0.75;stroke-linecap:butt;stroke-linejoin:miter;stroke-miterlimit:1.1547;stroke-dasharray:none;stroke-opacity:1"
       transform="scale(1.3333333)" />
    <path
       id="path41"
       d="m 161.902,278.625 v 2.25"
       style="fill:none;stroke:#000000;stroke-width:0.75;stroke-linecap:butt;stroke-linejoin:miter;stroke-miterlimit:1.1547;stroke-dasharray:none;stroke-opacity:1"
       transform="scale(1.3333333)" />
    <path
       id="path42"
       d="m 178.559,278.625 v 2.25"
       style="fill:none;stroke:#000000;stroke-width:0.75;stroke-linecap:butt;stroke-linejoin:miter;stroke-miterlimit:1.1547;stroke-dasharray:none;stroke-opacity:1"
       transform="scale(1.3333333)" />
    <path
       id="path43"
       d="m 195.215,278.625 v 2.25"
       style="fill:none;stroke:#000000;stroke-width:0.75;stroke-linecap:butt;stroke-linejoin:miter;stroke-miterlimit:1.1547;stroke-dasharray:none;stroke-opacity:1"
       transform="scale(1.3333333)" />
    <path
       id="path44"
       d="m 211.871,278.625 v 2.25"
       style="fill:none;stroke:#000000;stroke-width:0.75;stroke-linecap:butt;stroke-linejoin:miter;stroke-miterlimit:1.1547;stroke-dasharray:none;stroke-opacity:1"
       transform="scale(1.3333333)" />
    <path
       id="path45"
       d="m 245.184,278.625 v 2.25"
       style="fill:none;stroke:#000000;stroke-width:0.75;stroke-linecap:butt;stroke-linejoin:miter;stroke-miterlimit:1.1547;stroke-dasharray:none;stroke-opacity:1"
       transform="scale(1.3333333)" />
    <path
       id="path46"
       d="m 261.844,278.625 v 2.25"
       style="fill:none;stroke:#000000;stroke-width:0.75;stroke-linecap:butt;stroke-linejoin:miter;stroke-miterlimit:1.1547;stroke-dasharray:none;stroke-opacity:1"
       transform="scale(1.3333333)" />
    <path
       id="path47"
       d="m 278.5,278.625 v 2.25"
       style="fill:none;stroke:#000000;stroke-width:0.75;stroke-linecap:butt;stroke-linejoin:miter;stroke-miterlimit:1.1547;stroke-dasharray:none;stroke-opacity:1"
       transform="scale(1.3333333)" />
    <path
       id="path48"
       d="m 295.156,278.625 v 2.25"
       style="fill:none;stroke:#000000;stroke-width:0.75;stroke-linecap:butt;stroke-linejoin:miter;stroke-miterlimit:1.1547;stroke-dasharray:none;stroke-opacity:1"
       transform="scale(1.3333333)" />
    <path
       id="path49"
       d="m 328.469,278.625 v 2.25"
       style="fill:none;stroke:#000000;stroke-width:0.75;stroke-linecap:butt;stroke-linejoin:miter;stroke-miterlimit:1.1547;stroke-dasharray:none;stroke-opacity:1"
       transform="scale(1.3333333)" />
    <path
       id="path50"
       d="m 345.125,278.625 v 2.25"
       style="fill:none;stroke:#000000;stroke-width:0.75;stroke-linecap:butt;stroke-linejoin:miter;stroke-miterlimit:1.1547;stroke-dasharray:none;stroke-opacity:1"
       transform="scale(1.3333333)" />
    <path
       id="path51"
       d="m 361.781,278.625 v 2.25"
       style="fill:none;stroke:#000000;stroke-width:0.75;stroke-linecap:butt;stroke-linejoin:miter;stroke-miterlimit:1.1547;stroke-dasharray:none;stroke-opacity:1"
       transform="scale(1.3333333)" />
    <path
       id="path52"
       d="m 100.125,222.699 h -3.75"
       style="fill:none;stroke:#000000;stroke-width:0.75;stroke-linecap:butt;stroke-linejoin:miter;stroke-miterlimit:1.1547;stroke-dasharray:none;stroke-opacity:1"
       transform="scale(1.3333333)" />
    <path
       id="path53"
       d="m 100.125,139.418 h -3.75"
       style="fill:none;stroke:#000000;stroke-width:0.75;stroke-linecap:butt;stroke-linejoin:miter;stroke-miterlimit:1.1547;stroke-dasharray:none;stroke-opacity:1"
       transform="scale(1.3333333)" />
    <path
       id="path54"
       d="m 100.125,56.133 h -3.75"
       style="fill:none;stroke:#000000;stroke-width:0.75;stroke-linecap:butt;stroke-linejoin:miter;stroke-miterlimit:1.1547;stroke-dasharray:none;stroke-opacity:1"
       transform="scale(1.3333333)" />
    <path
       id="path55"
       d="m 98.625,239.355 h -2.25"
       style="fill:none;stroke:#000000;stroke-width:0.75;stroke-linecap:butt;stroke-linejoin:miter;stroke-miterlimit:1.1547;stroke-dasharray:none;stroke-opacity:1"
       transform="scale(1.3333333)" />
    <path
       id="path56"
       d="m 98.625,256.016 h -2.25"
       style="fill:none;stroke:#000000;stroke-width:0.75;stroke-linecap:butt;stroke-linejoin:miter;stroke-miterlimit:1.1547;stroke-dasharray:none;stroke-opacity:1"
       transform="scale(1.3333333)" />
    <path
       id="path57"
       d="m 98.625,272.672 h -2.25"
       style="fill:none;stroke:#000000;stroke-width:0.75;stroke-linecap:butt;stroke-linejoin:miter;stroke-miterlimit:1.1547;stroke-dasharray:none;stroke-opacity:1"
       transform="scale(1.3333333)" />
    <path
       id="path58"
       d="m 98.625,206.043 h -2.25"
       style="fill:none;stroke:#000000;stroke-width:0.75;stroke-linecap:butt;stroke-linejoin:miter;stroke-miterlimit:1.1547;stroke-dasharray:none;stroke-opacity:1"
       transform="scale(1.3333333)" />
    <path
       id="path59"
       d="m 98.625,189.387 h -2.25"
       style="fill:none;stroke:#000000;stroke-width:0.75;stroke-linecap:butt;stroke-linejoin:miter;stroke-miterlimit:1.1547;stroke-dasharray:none;stroke-opacity:1"
       transform="scale(1.3333333)" />
    <path
       id="path60"
       d="m 98.625,172.73 h -2.25"
       style="fill:none;stroke:#000000;stroke-width:0.75;stroke-linecap:butt;stroke-linejoin:miter;stroke-miterlimit:1.1547;stroke-dasharray:none;stroke-opacity:1"
       transform="scale(1.3333333)" />
    <path
       id="path61"
       d="m 98.625,156.074 h -2.25"
       style="fill:none;stroke:#000000;stroke-width:0.75;stroke-linecap:butt;stroke-linejoin:miter;stroke-miterlimit:1.1547;stroke-dasharray:none;stroke-opacity:1"
       transform="scale(1.3333333)" />
    <path
       id="path62"
       d="m 98.625,122.758 h -2.25"
       style="fill:none;stroke:#000000;stroke-width:0.75;stroke-linecap:butt;stroke-linejoin:miter;stroke-miterlimit:1.1547;stroke-dasharray:none;stroke-opacity:1"
       transform="scale(1.3333333)" />
    <path
       id="path63"
       d="m 98.625,106.102 h -2.25"
       style="fill:none;stroke:#000000;stroke-width:0.75;stroke-linecap:butt;stroke-linejoin:miter;stroke-miterlimit:1.1547;stroke-dasharray:none;stroke-opacity:1"
       transform="scale(1.3333333)" />
    <path
       id="path64"
       d="m 98.625,89.445 h -2.25"
       style="fill:none;stroke:#000000;stroke-width:0.75;stroke-linecap:butt;stroke-linejoin:miter;stroke-miterlimit:1.1547;stroke-dasharray:none;stroke-opacity:1"
       transform="scale(1.3333333)" />
    <path
       id="path65"
       d="m 98.625,72.789 h -2.25"
       style="fill:none;stroke:#000000;stroke-width:0.75;stroke-linecap:butt;stroke-linejoin:miter;stroke-miterlimit:1.1547;stroke-dasharray:none;stroke-opacity:1"
       transform="scale(1.3333333)" />
    <path
       id="path66"
       d="m 98.625,39.477 h -2.25"
       style="fill:none;stroke:#000000;stroke-width:0.75;stroke-linecap:butt;stroke-linejoin:miter;stroke-miterlimit:1.1547;stroke-dasharray:none;stroke-opacity:1"
       transform="scale(1.3333333)" />
    <path
       id="path67"
       d="m 98.625,22.82 h -2.25"
       style="fill:none;stroke:#000000;stroke-width:0.75;stroke-linecap:butt;stroke-linejoin:miter;stroke-miterlimit:1.1547;stroke-dasharray:none;stroke-opacity:1"
       transform="scale(1.3333333)" />
    <path
       id="path68"
       d="m 96.375,280.5 h 272.25"
       style="fill:none;stroke:#000000;stroke-width:0.75;stroke-linecap:butt;stroke-linejoin:miter;stroke-miterlimit:1.1547;stroke-dasharray:none;stroke-opacity:1"
       transform="scale(1.3333333)" />
    <path
       id="path69"
       d="M 96.75,280.875 V 11.625"
       style="fill:none;stroke:#000000;stroke-width:0.75;stroke-linecap:butt;stroke-linejoin:miter;stroke-miterlimit:1.1547;stroke-dasharray:none;stroke-opacity:1"
       transform="scale(1.3333333)" />
    <path
       id="path70"
       d="m 96.375,12 h 272.25"
       style="fill:none;stroke:#000000;stroke-width:0.75;stroke-linecap:butt;stroke-linejoin:miter;stroke-miterlimit:1.1547;stroke-dasharray:none;stroke-opacity:1"
       transform="scale(1.3333333)" />
    <path
       id="path71"
       d="M 368.25,280.875 V 11.625"
       style="fill:none;stroke:#000000;stroke-width:0.75;stroke-linecap:butt;stroke-linejoin:miter;stroke-miterlimit:1.1547;stroke-dasharray:none;stroke-opacity:1"
       transform="scale(1.3333333)" />
  </g>
</svg>
