<svg width="450" height="306" version="1.1" xmlns="http://www.w3.org/2000/svg" desc="Created with imagetracer.js version 0.2.1" ><path fill="rgb(81,116,96)" stroke="rgb(81,116,96)" stroke-width="1" opacity="1" d="M 96 11 L 369 11 L 369 281 L 96 281 L 96 11 Z M 97 13 L 97 22 L 99 22 L 97 25 L 97 39 L 99 39 L 99 40 L 97 41 L 97 55 L 100 56 L 100 57 L 97 58 L 97 72 L 99 73 L 97 75 L 97 89 L 99 90 L 97 90 L 97 105 L 99 107 L 97 107 L 97 122 L 99 122 L 99 123 L 97 124 L 97 139 L 100 140 L 97 140 L 97 155 L 99 157 L 97 157 L 97 172 L 99 172 L 99 173 L 97 174 L 97 189 L 99 190 L 97 190 L 97 205 L 99 205 Q 100 208 97 207 L 97 222 L 100 222 L 100 223 L 97 224 L 97 239 L 99 240 L 97 240 L 97 255 L 99 255 Q 100 258 97 258 L 97 272 L 99 273 L 97 273 L 97 280 L 111 280 L 113 280 L 128 280 L 129 279 L 130 280 L 145 280 L 146 277 L 146 280 L 161 280 L 162 279 L 163 280 L 178 280 L 180 280 L 195 280 L 196 279 L 197 280 L 211 280 L 213 280 L 228 280 L 228 278 L 229 278 L 230 280 L 245 280 L 247 280 L 261 280 L 262 279 L 263 280 L 278 280 L 280 280 L 295 280 L 296 279 L 297 280 L 311 280 L 312 277 L 312 280 L 328 280 L 329 279 L 330 280 L 345 280 L 347 280 L 361 280 L 362 279 L 368 280 L 368 13 L 97 13 Z " /><path fill="rgb(81,116,96)" stroke="rgb(81,116,96)" stroke-width="1" opacity="1" d="M 281.5 24 L 284.5 24 L 298.5 32 L 302 35.5 L 302 40.5 L 306 59.5 L 300 83.5 L 293 103.5 L 293 107.5 L 300.5 117 L 319.5 124 L 345 140.5 L 354 155.5 L 356 161.5 L 349 177.5 L 346.5 180 L 323.5 189 L 299.5 189 L 298.5 190 L 282.5 190 L 277 191 L 272 201.5 L 271 223.5 L 268 235.5 L 263 251.5 L 257.5 258 L 243.5 269 L 225.5 263 L 222 260.5 L 208 239.5 L 200 212.5 L 192.5 200 L 190.5 201 L 177.5 201 L 154.5 207 L 146.5 207 L 145.5 206 L 124.5 205 L 109 190.5 L 113 167.5 L 134.5 145 L 153 132.5 L 158 125.5 L 159 120.5 L 139 84.5 L 134 56.5 L 146 39 L 170.5 39 L 181.5 44 L 183.5 43 Q 186.8 44.2 186 48 Q 192.5 46.8 195 50.5 Q 193.9 53.8 196.5 53 L 201.5 57 L 203.5 56 L 209.5 64 L 213.5 64 Q 214 67.5 218.5 67 L 222.5 65 L 225.5 67 L 258.5 33 L 281.5 24 Z M 282 25 L 261 33 L 246 47 L 228 67 L 245 70 L 253 75 L 260 84 L 279 94 L 291 107 L 298 87 L 302 68 L 304 64 L 304 54 L 301 41 L 301 36 Q 293 28 282 25 Z M 148 40 L 136 56 L 136 63 L 139 76 L 139 82 L 161 123 L 156 131 L 151 136 L 134 147 L 114 168 L 110 191 L 126 204 L 148 205 L 149 206 L 154 206 L 177 200 L 194 199 L 202 215 L 208 237 L 222 259 L 226 262 L 242 267 Q 246 268 248 265 L 260 255 L 262 252 L 269 229 L 271 202 L 275 195 L 275 193 L 262 200 L 249 203 L 235 203 L 219 199 Q 206 194 198 185 L 185 167 L 182 158 L 181 145 L 180 144 L 182 127 L 190 110 L 190 99 L 195 85 Q 188 86 185 82 Q 178 78 179 68 L 174 62 L 174 56 L 180 46 L 171 40 L 148 40 Z M 179 52 L 175 58 L 176 63 L 180 66 L 182 62 L 181 60 L 183 56 L 182 54 L 179 52 Z M 188 52 L 186 55 L 188 54 L 188 52 Z M 197 57 L 193 65 L 195 67 L 205 63 L 202 62 L 200 59 L 197 57 Z M 193 58 L 191 60 L 193 60 L 193 58 Z M 188 60 L 188 61 L 190 61 L 188 60 Z M 184 62 L 181 67 L 190 66 L 191 63 L 184 62 Z M 201 65 L 199 66 Q 196 67 197 71 L 202 74 L 204 73 L 207 73 L 207 67 Q 206 64 201 65 Z M 209 65 L 209 70 L 211 70 L 209 65 Z M 192 66 Q 189 70 182 69 L 180 69 L 183 79 L 190 83 L 193 83 L 191 78 L 192 75 L 190 71 L 192 68 L 192 66 Z M 225 69 L 223 71 L 217 70 L 218 73 Q 219 80 217 83 L 223 84 L 237 82 L 235 77 Q 232 71 225 69 Z M 230 69 L 231 70 Q 236 73 238 81 L 240 82 Q 251 80 257 84 L 259 84 Q 253 75 243 71 Q 238 68 230 69 Z M 215 71 L 210 74 Q 207 73 208 78 L 216 82 L 217 78 L 216 75 Q 217 70 215 71 Z M 193 73 L 194 82 L 198 83 L 202 78 L 201 76 Q 199 72 193 73 Z M 207 79 Q 202 81 203 88 Q 209 89 213 86 L 214 84 L 207 79 Z M 201 83 L 197 86 L 200 87 L 201 88 L 201 83 Z M 236 83 L 224 85 L 222 90 L 228 102 L 230 101 L 237 92 L 237 84 L 236 83 Z M 239 83 Q 240 92 236 97 L 229 103 L 231 103 L 232 106 L 231 109 L 231 112 L 240 138 L 244 140 L 252 136 Q 263 128 266 112 L 266 101 L 262 89 L 260 86 L 254 84 L 239 83 Z M 216 85 L 213 87 L 212 89 L 217 87 Q 218 84 216 85 Z M 197 87 L 193 94 L 191 102 L 192 107 L 203 95 L 202 91 L 197 87 Z M 217 88 L 208 94 Q 205 93 206 97 Q 210 105 225 103 L 221 91 L 217 88 Z M 264 88 L 267 98 Q 266 103 268 105 L 267 115 L 260 130 Q 255 138 245 141 L 244 145 L 242 146 L 239 144 L 235 145 L 219 144 L 205 137 L 194 125 L 190 113 L 186 120 L 182 135 L 183 156 Q 186 168 193 178 Q 206 195 231 201 L 252 201 Q 266 198 276 190 L 277 190 L 277 186 L 282 186 Q 296 174 300 152 L 300 133 L 299 128 L 288 106 Q 279 93 264 88 Z M 209 89 L 203 91 L 205 94 L 211 90 L 209 89 Z M 203 97 L 192 110 L 193 119 L 200 131 Q 206 137 215 141 Q 222 145 237 143 L 239 140 L 228 111 Q 229 108 227 109 L 225 106 L 226 104 L 224 105 L 214 104 L 205 97 L 203 97 Z M 294 110 L 293 112 L 295 113 L 294 110 Z M 297 115 L 302 136 L 302 150 L 298 165 L 293 175 L 282 189 L 294 189 L 295 188 L 323 188 L 347 179 L 355 162 L 353 156 L 344 141 L 323 127 L 303 119 L 297 115 Z " /><path fill="rgb(81,116,96)" stroke="rgb(81,116,96)" stroke-width="1" opacity="1" d="M 90.5 52 L 91 59.5 L 90 59.5 Q 91.9 54.1 88.5 55 L 88.5 54 Q 91 54.7 90.5 52 Z " /><path fill="rgb(81,116,96)" stroke="rgb(81,116,96)" stroke-width="1" opacity="1" d="M 90.5 135 L 93 140.5 L 92 143 L 88 141.5 Q 86.8 135.4 89.5 136 L 90.5 135 Z M 89 137 L 89 142 Q 92 143 91 141 L 91 139 Q 92 136 89 137 Z " /><path fill="rgb(81,116,96)" stroke="rgb(81,116,96)" stroke-width="1" opacity="1" d="M 90.5 219 L 91 226.5 L 90 226.5 Q 91.9 221.1 88.5 222 L 88.5 221 Q 91 221.7 90.5 219 Z " /><path fill="rgb(81,116,96)" stroke="rgb(81,116,96)" stroke-width="1" opacity="1" d="M 82.5 224 L 86 224.5 L 82.5 225 L 82.5 224 Z " /><path fill="rgb(81,116,96)" stroke="rgb(81,116,96)" stroke-width="1" opacity="1" d="M 228.5 285 Q 232 286 231 291.5 L 227.5 293 Q 225 292 226 287.5 L 228.5 285 Z M 227 287 L 227 292 L 229 292 L 230 289 L 227 287 Z " /><path fill="rgb(81,116,96)" stroke="rgb(81,116,96)" stroke-width="1" opacity="1" d="M 148.5 286 L 149 292.5 L 148 292.5 L 147 287.5 L 148.5 286 Z " /><path fill="rgb(81,116,96)" stroke="rgb(81,116,96)" stroke-width="1" opacity="1" d="M 311.5 286 Q 314.5 285.5 313 292.5 L 312 292.5 Q 313.9 287.1 310.5 288 L 311.5 286 Z " /><path fill="rgb(81,116,96)" stroke="rgb(81,116,96)" stroke-width="1" opacity="1" d="M 140.5 290 L 145 290.5 L 140.5 291 L 140.5 290 Z " /><path fill="rgb(159,182,204)" stroke="rgb(159,182,204)" stroke-width="1" opacity="1" d="M 97.5 13 L 98 21.5 L 97 21.5 L 97.5 13 Z " /><path fill="rgb(159,182,204)" stroke="rgb(159,182,204)" stroke-width="1" opacity="1" d="M 367.5 13 L 368 279.5 L 367 279.5 L 367.5 13 Z " /><path fill="rgb(159,182,204)" stroke="rgb(159,182,204)" stroke-width="1" opacity="1" d="M 98.5 23 L 98 24.5 L 97.5 39 L 97 24.5 L 98.5 23 Z " /><path fill="rgb(159,182,204)" stroke="rgb(159,182,204)" stroke-width="1" opacity="1" d="M 280.5 24 L 283 25.5 L 281.5 26 L 280.5 24 Z " /><path fill="rgb(159,182,204)" stroke="rgb(159,182,204)" stroke-width="1" opacity="1" d="M 286.5 25 L 285.5 27 L 286.5 25 Z " /><path fill="rgb(159,182,204)" stroke="rgb(159,182,204)" stroke-width="1" opacity="1" d="M 275.5 26 L 276.5 28 L 275.5 26 Z " /><path fill="rgb(159,182,204)" stroke="rgb(159,182,204)" stroke-width="1" opacity="1" d="M 288.5 26 L 287.5 28 L 288.5 26 Z " /><path fill="rgb(159,182,204)" stroke="rgb(159,182,204)" stroke-width="1" opacity="1" d="M 272.5 27 L 275 28.5 L 273.5 29 L 272.5 27 Z " /><path fill="rgb(159,182,204)" stroke="rgb(159,182,204)" stroke-width="1" opacity="1" d="M 290.5 27 L 290.5 30 Q 287.5 28.5 290.5 27 Z " /><path fill="rgb(159,182,204)" stroke="rgb(159,182,204)" stroke-width="1" opacity="1" d="M 267.5 29 L 268.5 31 L 267.5 29 Z " /><path fill="rgb(159,182,204)" stroke="rgb(159,182,204)" stroke-width="1" opacity="1" d="M 293.5 29 L 292.5 31 L 293.5 29 Z " /><path fill="rgb(159,182,204)" stroke="rgb(159,182,204)" stroke-width="1" opacity="1" d="M 264.5 30 L 267 31.5 L 265.5 32 L 264.5 30 Z " /><path fill="rgb(159,182,204)" stroke="rgb(159,182,204)" stroke-width="1" opacity="1" d="M 295.5 30 L 294.5 32 L 295.5 30 Z " /><path fill="rgb(159,182,204)" stroke="rgb(159,182,204)" stroke-width="1" opacity="1" d="M 297.5 31 L 297.5 34 Q 294.5 32.5 297.5 31 Z " /><path fill="rgb(159,182,204)" stroke="rgb(159,182,204)" stroke-width="1" opacity="1" d="M 259.5 32 L 260.5 34 L 259.5 32 Z " /><path fill="rgb(159,182,204)" stroke="rgb(159,182,204)" stroke-width="1" opacity="1" d="M 300.5 33 Q 303.3 34.3 301 35.5 L 300.5 38 L 299 34.5 L 300.5 33 Z " /><path fill="rgb(159,182,204)" stroke="rgb(159,182,204)" stroke-width="1" opacity="1" d="M 171.5 39 L 170.5 41 L 151 40.5 L 170.5 40 L 171.5 39 Z " /><path fill="rgb(159,182,204)" stroke="rgb(159,182,204)" stroke-width="1" opacity="1" d="M 302.5 39 L 303 40.5 L 301.5 44 L 301 41.5 L 302.5 39 Z " /><path fill="rgb(159,182,204)" stroke="rgb(159,182,204)" stroke-width="1" opacity="1" d="M 97.5 40 L 98 55 L 100 55.5 L 98.5 56 L 97 54.5 L 97.5 40 Z " /><path fill="rgb(159,182,204)" stroke="rgb(159,182,204)" stroke-width="1" opacity="1" d="M 145.5 40 L 146.5 42 L 144 41.5 L 145.5 40 Z " /><path fill="rgb(159,182,204)" stroke="rgb(159,182,204)" stroke-width="1" opacity="1" d="M 173.5 40 L 172.5 42 L 173.5 40 Z " /><path fill="rgb(159,182,204)" stroke="rgb(159,182,204)" stroke-width="1" opacity="1" d="M 175.5 41 L 174.5 43 L 175.5 41 Z " /><path fill="rgb(159,182,204)" stroke="rgb(159,182,204)" stroke-width="1" opacity="1" d="M 177.5 42 L 177.5 45 Q 174.5 43.5 177.5 42 Z " /><path fill="rgb(159,182,204)" stroke="rgb(159,182,204)" stroke-width="1" opacity="1" d="M 184.5 43 L 185.5 45 L 184.5 43 Z " /><path fill="rgb(159,182,204)" stroke="rgb(159,182,204)" stroke-width="1" opacity="1" d="M 142.5 44 L 145 44.5 Q 142.9 47.8 142.5 44 Z " /><path fill="rgb(159,182,204)" stroke="rgb(159,182,204)" stroke-width="1" opacity="1" d="M 303.5 45 L 304 46.5 L 302.5 50 L 302 47.5 L 303.5 45 Z " /><path fill="rgb(159,182,204)" stroke="rgb(159,182,204)" stroke-width="1" opacity="1" d="M 244.5 46 L 246 47.5 L 238.5 55 L 237 53.5 L 244.5 46 Z " /><path fill="rgb(159,182,204)" stroke="rgb(159,182,204)" stroke-width="1" opacity="1" d="M 140.5 47 Q 143.5 48.5 140.5 50 Q 137.5 48.5 140.5 47 Z " /><path fill="rgb(159,182,204)" stroke="rgb(159,182,204)" stroke-width="1" opacity="1" d="M 137.5 51 L 140 51.5 Q 137.9 54.8 137.5 51 Z " /><path fill="rgb(159,182,204)" stroke="rgb(159,182,204)" stroke-width="1" opacity="1" d="M 184.5 51 L 183.5 53 L 184.5 51 Z " /><path fill="rgb(159,182,204)" stroke="rgb(159,182,204)" stroke-width="1" opacity="1" d="M 304.5 51 L 305 52.5 L 303.5 56 L 303 53.5 L 304.5 51 Z " /><path fill="rgb(159,182,204)" stroke="rgb(159,182,204)" stroke-width="1" opacity="1" d="M 187.5 52 L 188 53.5 L 186 54.5 L 187.5 52 Z " /><path fill="rgb(159,182,204)" stroke="rgb(159,182,204)" stroke-width="1" opacity="1" d="M 135.5 54 L 136.5 56 L 134 55.5 L 135.5 54 Z " /><path fill="rgb(159,182,204)" stroke="rgb(159,182,204)" stroke-width="1" opacity="1" d="M 182.5 55 L 181.5 57 L 182.5 55 Z " /><path fill="rgb(159,182,204)" stroke="rgb(159,182,204)" stroke-width="1" opacity="1" d="M 204.5 56 L 205.5 58 L 204.5 56 Z " /><path fill="rgb(159,182,204)" stroke="rgb(159,182,204)" stroke-width="1" opacity="1" d="M 97.5 57 L 98 71.5 L 97 71.5 L 97.5 57 Z " /><path fill="rgb(159,182,204)" stroke="rgb(159,182,204)" stroke-width="1" opacity="1" d="M 198.5 57 L 200 59.5 L 199 59.5 L 198.5 57 Z " /><path fill="rgb(159,182,204)" stroke="rgb(159,182,204)" stroke-width="1" opacity="1" d="M 192.5 58 L 191.5 60 L 192.5 58 Z " /><path fill="rgb(159,182,204)" stroke="rgb(159,182,204)" stroke-width="1" opacity="1" d="M 232.5 59 L 235 59.5 L 230.5 64 L 229 62.5 L 232.5 59 Z " /><path fill="rgb(159,182,204)" stroke="rgb(159,182,204)" stroke-width="1" opacity="1" d="M 136.5 60 L 137 62.5 L 135.5 66 L 135 63.5 L 136.5 60 Z " /><path fill="rgb(159,182,204)" stroke="rgb(159,182,204)" stroke-width="1" opacity="1" d="M 202.5 62 L 204 62.5 L 201.5 64 L 202.5 62 Z " /><path fill="rgb(159,182,204)" stroke="rgb(159,182,204)" stroke-width="1" opacity="1" d="M 208.5 62 L 209.5 64 L 208.5 62 Z " /><path fill="rgb(159,182,204)" stroke="rgb(159,182,204)" stroke-width="1" opacity="1" d="M 303.5 62 L 305 64.5 L 303 63.5 L 303.5 62 Z " /><path fill="rgb(159,182,204)" stroke="rgb(159,182,204)" stroke-width="1" opacity="1" d="M 175.5 64 L 177.5 67 L 175.5 64 Z " /><path fill="rgb(159,182,204)" stroke="rgb(159,182,204)" stroke-width="1" opacity="1" d="M 214.5 64 L 215.5 66 L 214.5 64 Z " /><path fill="rgb(159,182,204)" stroke="rgb(159,182,204)" stroke-width="1" opacity="1" d="M 208.5 65 L 211 69.5 L 209 68.5 L 208.5 65 Z " /><path fill="rgb(159,182,204)" stroke="rgb(159,182,204)" stroke-width="1" opacity="1" d="M 137.5 66 L 138 68.5 L 137 68.5 L 137.5 66 Z " /><path fill="rgb(159,182,204)" stroke="rgb(159,182,204)" stroke-width="1" opacity="1" d="M 191.5 66 L 192 67.5 L 190 68.5 L 191.5 66 Z " /><path fill="rgb(159,182,204)" stroke="rgb(159,182,204)" stroke-width="1" opacity="1" d="M 180.5 68 L 181 71.5 L 180 71.5 L 180.5 68 Z " /><path fill="rgb(159,182,204)" stroke="rgb(159,182,204)" stroke-width="1" opacity="1" d="M 224.5 69 L 226 69.5 L 223.5 71 L 224.5 69 Z " /><path fill="rgb(159,182,204)" stroke="rgb(159,182,204)" stroke-width="1" opacity="1" d="M 232.5 71 L 234.5 74 L 232.5 71 Z " /><path fill="rgb(159,182,204)" stroke="rgb(159,182,204)" stroke-width="1" opacity="1" d="M 98.5 73 L 98 74.5 L 97.5 89 L 97 74.5 L 98.5 73 Z " /><path fill="rgb(159,182,204)" stroke="rgb(159,182,204)" stroke-width="1" opacity="1" d="M 250.5 73 L 251.5 75 L 250.5 73 Z " /><path fill="rgb(159,182,204)" stroke="rgb(159,182,204)" stroke-width="1" opacity="1" d="M 216.5 75 L 217 77.5 L 216 77.5 L 216.5 75 Z " /><path fill="rgb(159,182,204)" stroke="rgb(159,182,204)" stroke-width="1" opacity="1" d="M 251.5 76 L 252.5 78 L 251.5 76 Z " /><path fill="rgb(159,182,204)" stroke="rgb(159,182,204)" stroke-width="1" opacity="1" d="M 180.5 77 L 181.5 79 L 180.5 77 Z " /><path fill="rgb(159,182,204)" stroke="rgb(159,182,204)" stroke-width="1" opacity="1" d="M 255.5 77 L 257.5 80 L 255.5 77 Z " /><path fill="rgb(159,182,204)" stroke="rgb(159,182,204)" stroke-width="1" opacity="1" d="M 183.5 78 L 185.5 81 L 183.5 78 Z " /><path fill="rgb(159,182,204)" stroke="rgb(159,182,204)" stroke-width="1" opacity="1" d="M 139.5 79 L 140 81.5 L 138 82.5 L 139.5 79 Z " /><path fill="rgb(159,182,204)" stroke="rgb(159,182,204)" stroke-width="1" opacity="1" d="M 201.5 80 L 200.5 82 L 201.5 80 Z " /><path fill="rgb(159,182,204)" stroke="rgb(159,182,204)" stroke-width="1" opacity="1" d="M 239.5 81 L 246 81.5 L 239.5 82 L 239.5 81 Z " /><path fill="rgb(159,182,204)" stroke="rgb(159,182,204)" stroke-width="1" opacity="1" d="M 256.5 81 L 258.5 84 L 256 83.5 L 256.5 81 Z " /><path fill="rgb(159,182,204)" stroke="rgb(159,182,204)" stroke-width="1" opacity="1" d="M 245.5 83 L 248 83.5 L 245.5 84 L 245.5 83 Z " /><path fill="rgb(159,182,204)" stroke="rgb(159,182,204)" stroke-width="1" opacity="1" d="M 198.5 84 L 198.5 87 Q 195.5 85.5 198.5 84 Z " /><path fill="rgb(159,182,204)" stroke="rgb(159,182,204)" stroke-width="1" opacity="1" d="M 213.5 84 L 212.5 86 L 213.5 84 Z " /><path fill="rgb(159,182,204)" stroke="rgb(159,182,204)" stroke-width="1" opacity="1" d="M 141.5 85 L 140.5 87 L 141.5 85 Z " /><path fill="rgb(159,182,204)" stroke="rgb(159,182,204)" stroke-width="1" opacity="1" d="M 297.5 85 L 299 88.5 L 298 88.5 L 297.5 85 Z " /><path fill="rgb(159,182,204)" stroke="rgb(159,182,204)" stroke-width="1" opacity="1" d="M 142.5 87 L 141.5 89 L 142.5 87 Z " /><path fill="rgb(159,182,204)" stroke="rgb(159,182,204)" stroke-width="1" opacity="1" d="M 143.5 89 L 142.5 91 L 143.5 89 Z " /><path fill="rgb(159,182,204)" stroke="rgb(159,182,204)" stroke-width="1" opacity="1" d="M 200.5 89 L 201.5 91 L 200.5 89 Z " /><path fill="rgb(159,182,204)" stroke="rgb(159,182,204)" stroke-width="1" opacity="1" d="M 296.5 89 L 298 91.5 L 297 91.5 L 296.5 89 Z " /><path fill="rgb(159,182,204)" stroke="rgb(159,182,204)" stroke-width="1" opacity="1" d="M 97.5 90 L 98 104.5 L 99 105.5 L 97 104.5 L 97.5 90 Z " /><path fill="rgb(159,182,204)" stroke="rgb(159,182,204)" stroke-width="1" opacity="1" d="M 207.5 91 L 206.5 93 L 207.5 91 Z " /><path fill="rgb(159,182,204)" stroke="rgb(159,182,204)" stroke-width="1" opacity="1" d="M 295.5 92 L 297 94.5 L 296 94.5 L 295.5 92 Z " /><path fill="rgb(159,182,204)" stroke="rgb(159,182,204)" stroke-width="1" opacity="1" d="M 274.5 93 L 275.5 95 L 274.5 93 Z " /><path fill="rgb(159,182,204)" stroke="rgb(159,182,204)" stroke-width="1" opacity="1" d="M 146.5 94 L 145.5 96 L 146.5 94 Z " /><path fill="rgb(159,182,204)" stroke="rgb(159,182,204)" stroke-width="1" opacity="1" d="M 147.5 96 L 146.5 98 L 147.5 96 Z " /><path fill="rgb(159,182,204)" stroke="rgb(159,182,204)" stroke-width="1" opacity="1" d="M 278.5 96 L 279.5 98 L 278.5 96 Z " /><path fill="rgb(159,182,204)" stroke="rgb(159,182,204)" stroke-width="1" opacity="1" d="M 202.5 97 L 196.5 104 L 202.5 97 Z " /><path fill="rgb(159,182,204)" stroke="rgb(159,182,204)" stroke-width="1" opacity="1" d="M 282.5 97 L 286.5 102 L 282.5 97 Z " /><path fill="rgb(159,182,204)" stroke="rgb(159,182,204)" stroke-width="1" opacity="1" d="M 148.5 98 L 147.5 100 L 148.5 98 Z " /><path fill="rgb(159,182,204)" stroke="rgb(159,182,204)" stroke-width="1" opacity="1" d="M 205.5 98 L 207.5 101 L 205.5 98 Z " /><path fill="rgb(159,182,204)" stroke="rgb(159,182,204)" stroke-width="1" opacity="1" d="M 234.5 98 L 232.5 101 L 234.5 98 Z " /><path fill="rgb(159,182,204)" stroke="rgb(159,182,204)" stroke-width="1" opacity="1" d="M 209.5 99 L 210.5 101 L 209.5 99 Z " /><path fill="rgb(159,182,204)" stroke="rgb(159,182,204)" stroke-width="1" opacity="1" d="M 226.5 100 L 227.5 102 L 226.5 100 Z " /><path fill="rgb(159,182,204)" stroke="rgb(159,182,204)" stroke-width="1" opacity="1" d="M 191.5 101 L 192.5 105 L 194 104.5 Q 192.5 107.5 191 104.5 L 191.5 101 Z " /><path fill="rgb(159,182,204)" stroke="rgb(159,182,204)" stroke-width="1" opacity="1" d="M 267.5 101 L 268 103.5 L 267 103.5 L 267.5 101 Z " /><path fill="rgb(159,182,204)" stroke="rgb(159,182,204)" stroke-width="1" opacity="1" d="M 151.5 103 L 150.5 105 L 151.5 103 Z " /><path fill="rgb(159,182,204)" stroke="rgb(159,182,204)" stroke-width="1" opacity="1" d="M 189.5 103 L 190 108.5 L 189 108.5 L 189.5 103 Z " /><path fill="rgb(159,182,204)" stroke="rgb(159,182,204)" stroke-width="1" opacity="1" d="M 285.5 103 L 287.5 106 L 285.5 103 Z " /><path fill="rgb(159,182,204)" stroke="rgb(159,182,204)" stroke-width="1" opacity="1" d="M 152.5 105 L 151.5 107 L 152.5 105 Z " /><path fill="rgb(159,182,204)" stroke="rgb(159,182,204)" stroke-width="1" opacity="1" d="M 289.5 105 Q 291.8 109.2 294 107.5 L 293 109.5 L 296 110.5 L 293 112 L 289.5 105 Z " /><path fill="rgb(159,182,204)" stroke="rgb(159,182,204)" stroke-width="1" opacity="1" d="M 97.5 107 L 98 121.5 L 97 121.5 L 97.5 107 Z " /><path fill="rgb(159,182,204)" stroke="rgb(159,182,204)" stroke-width="1" opacity="1" d="M 153.5 107 L 152.5 109 L 153.5 107 Z " /><path fill="rgb(159,182,204)" stroke="rgb(159,182,204)" stroke-width="1" opacity="1" d="M 267.5 108 L 268 111.5 L 267 111.5 L 267.5 108 Z " /><path fill="rgb(159,182,204)" stroke="rgb(159,182,204)" stroke-width="1" opacity="1" d="M 154.5 109 L 153.5 111 L 154.5 109 Z " /><path fill="rgb(159,182,204)" stroke="rgb(159,182,204)" stroke-width="1" opacity="1" d="M 155.5 111 L 154.5 113 L 155.5 111 Z " /><path fill="rgb(159,182,204)" stroke="rgb(159,182,204)" stroke-width="1" opacity="1" d="M 296.5 112 L 295.5 114 L 296.5 112 Z " /><path fill="rgb(159,182,204)" stroke="rgb(159,182,204)" stroke-width="1" opacity="1" d="M 156.5 113 L 155.5 115 L 156.5 113 Z " /><path fill="rgb(159,182,204)" stroke="rgb(159,182,204)" stroke-width="1" opacity="1" d="M 189.5 113 L 191 115.5 L 190 115.5 L 189.5 113 Z " /><path fill="rgb(159,182,204)" stroke="rgb(159,182,204)" stroke-width="1" opacity="1" d="M 157.5 115 L 156.5 117 L 157.5 115 Z " /><path fill="rgb(159,182,204)" stroke="rgb(159,182,204)" stroke-width="1" opacity="1" d="M 300.5 116 L 299.5 118 L 300.5 116 Z " /><path fill="rgb(159,182,204)" stroke="rgb(159,182,204)" stroke-width="1" opacity="1" d="M 158.5 117 L 157.5 119 L 158.5 117 Z " /><path fill="rgb(159,182,204)" stroke="rgb(159,182,204)" stroke-width="1" opacity="1" d="M 305.5 118 L 304.5 120 L 305.5 118 Z " /><path fill="rgb(159,182,204)" stroke="rgb(159,182,204)" stroke-width="1" opacity="1" d="M 159.5 119 L 158.5 121 L 159.5 119 Z " /><path fill="rgb(159,182,204)" stroke="rgb(159,182,204)" stroke-width="1" opacity="1" d="M 310.5 120 L 309.5 122 L 310.5 120 Z " /><path fill="rgb(159,182,204)" stroke="rgb(159,182,204)" stroke-width="1" opacity="1" d="M 312.5 121 L 311.5 123 L 312.5 121 Z " /><path fill="rgb(159,182,204)" stroke="rgb(159,182,204)" stroke-width="1" opacity="1" d="M 315.5 122 L 314.5 124 L 313 123.5 L 315.5 122 Z " /><path fill="rgb(159,182,204)" stroke="rgb(159,182,204)" stroke-width="1" opacity="1" d="M 97 123 L 99 123.5 L 98 124.5 L 97.5 139 L 97 123 Z " /><path fill="rgb(159,182,204)" stroke="rgb(159,182,204)" stroke-width="1" opacity="1" d="M 317.5 123 L 316.5 125 L 317.5 123 Z " /><path fill="rgb(159,182,204)" stroke="rgb(159,182,204)" stroke-width="1" opacity="1" d="M 157.5 125 L 158.5 127 L 157.5 125 Z " /><path fill="rgb(159,182,204)" stroke="rgb(159,182,204)" stroke-width="1" opacity="1" d="M 321.5 125 L 320.5 127 L 321.5 125 Z " /><path fill="rgb(159,182,204)" stroke="rgb(159,182,204)" stroke-width="1" opacity="1" d="M 323.5 126 L 323.5 129 Q 320.5 127.5 323.5 126 Z " /><path fill="rgb(159,182,204)" stroke="rgb(159,182,204)" stroke-width="1" opacity="1" d="M 155.5 128 L 156.5 130 L 154 129.5 L 155.5 128 Z " /><path fill="rgb(159,182,204)" stroke="rgb(159,182,204)" stroke-width="1" opacity="1" d="M 196.5 128 L 197.5 130 L 196.5 128 Z " /><path fill="rgb(159,182,204)" stroke="rgb(159,182,204)" stroke-width="1" opacity="1" d="M 258.5 128 L 257.5 130 L 258.5 128 Z " /><path fill="rgb(159,182,204)" stroke="rgb(159,182,204)" stroke-width="1" opacity="1" d="M 326.5 128 L 325.5 130 L 326.5 128 Z " /><path fill="rgb(159,182,204)" stroke="rgb(159,182,204)" stroke-width="1" opacity="1" d="M 328.5 129 L 328.5 132 Q 325.5 130.5 328.5 129 Z " /><path fill="rgb(159,182,204)" stroke="rgb(159,182,204)" stroke-width="1" opacity="1" d="M 200.5 130 L 204.5 135 L 200.5 130 Z " /><path fill="rgb(159,182,204)" stroke="rgb(159,182,204)" stroke-width="1" opacity="1" d="M 331.5 131 L 330.5 133 L 331.5 131 Z " /><path fill="rgb(159,182,204)" stroke="rgb(159,182,204)" stroke-width="1" opacity="1" d="M 152.5 132 L 155 132.5 Q 153 137 151 133.5 L 152.5 132 Z " /><path fill="rgb(159,182,204)" stroke="rgb(159,182,204)" stroke-width="1" opacity="1" d="M 257.5 132 L 254.5 136 L 257.5 132 Z " /><path fill="rgb(159,182,204)" stroke="rgb(159,182,204)" stroke-width="1" opacity="1" d="M 333.5 132 L 333.5 135 Q 330.5 133.5 333.5 132 Z " /><path fill="rgb(159,182,204)" stroke="rgb(159,182,204)" stroke-width="1" opacity="1" d="M 182.5 134 L 183 137.5 L 182 137.5 L 182.5 134 Z " /><path fill="rgb(159,182,204)" stroke="rgb(159,182,204)" stroke-width="1" opacity="1" d="M 336.5 134 L 335.5 136 L 336.5 134 Z " /><path fill="rgb(159,182,204)" stroke="rgb(159,182,204)" stroke-width="1" opacity="1" d="M 148.5 135 L 149.5 137 L 148.5 135 Z " /><path fill="rgb(159,182,204)" stroke="rgb(159,182,204)" stroke-width="1" opacity="1" d="M 338.5 135 L 338.5 138 Q 335.5 136.5 338.5 135 Z " /><path fill="rgb(159,182,204)" stroke="rgb(159,182,204)" stroke-width="1" opacity="1" d="M 180.5 136 L 181 139.5 L 180 139.5 L 180.5 136 Z " /><path fill="rgb(159,182,204)" stroke="rgb(159,182,204)" stroke-width="1" opacity="1" d="M 145.5 137 Q 148.5 138.5 145.5 140 L 145.5 137 Z " /><path fill="rgb(159,182,204)" stroke="rgb(159,182,204)" stroke-width="1" opacity="1" d="M 341.5 137 L 340.5 139 L 341.5 137 Z " /><path fill="rgb(159,182,204)" stroke="rgb(159,182,204)" stroke-width="1" opacity="1" d="M 87.5 138 L 88 140.5 L 87 140.5 L 87.5 138 Z " /><path fill="rgb(159,182,204)" stroke="rgb(159,182,204)" stroke-width="1" opacity="1" d="M 343.5 138 Q 346.5 139.5 343.5 141 Q 340.5 139.5 343.5 138 Z " /><path fill="rgb(159,182,204)" stroke="rgb(159,182,204)" stroke-width="1" opacity="1" d="M 142.5 139 Q 145.5 140.5 142.5 142 L 142.5 139 Z " /><path fill="rgb(159,182,204)" stroke="rgb(159,182,204)" stroke-width="1" opacity="1" d="M 97.5 140 L 98 154.5 L 99 155.5 L 97 154.5 L 97.5 140 Z " /><path fill="rgb(159,182,204)" stroke="rgb(159,182,204)" stroke-width="1" opacity="1" d="M 89.5 141 L 88.5 143 L 89.5 141 Z " /><path fill="rgb(159,182,204)" stroke="rgb(159,182,204)" stroke-width="1" opacity="1" d="M 139.5 141 Q 142.5 142.5 139.5 144 L 139.5 141 Z " /><path fill="rgb(159,182,204)" stroke="rgb(159,182,204)" stroke-width="1" opacity="1" d="M 345.5 141 L 344.5 143 L 345.5 141 Z " /><path fill="rgb(159,182,204)" stroke="rgb(159,182,204)" stroke-width="1" opacity="1" d="M 136.5 143 Q 139.5 144.5 136.5 146 Q 133.5 144.5 136.5 143 Z " /><path fill="rgb(159,182,204)" stroke="rgb(159,182,204)" stroke-width="1" opacity="1" d="M 180.5 144 L 181 148.5 L 180 148.5 L 180.5 144 Z " /><path fill="rgb(159,182,204)" stroke="rgb(159,182,204)" stroke-width="1" opacity="1" d="M 238.5 144 L 239.5 146 L 238.5 144 Z " /><path fill="rgb(159,182,204)" stroke="rgb(159,182,204)" stroke-width="1" opacity="1" d="M 345.5 144 L 348 144.5 Q 345.9 147.8 345.5 144 Z " /><path fill="rgb(159,182,204)" stroke="rgb(159,182,204)" stroke-width="1" opacity="1" d="M 133.5 145 L 134 147.5 L 126.5 155 L 125 153.5 L 133.5 145 Z " /><path fill="rgb(159,182,204)" stroke="rgb(159,182,204)" stroke-width="1" opacity="1" d="M 348.5 146 L 347.5 148 L 348.5 146 Z " /><path fill="rgb(159,182,204)" stroke="rgb(159,182,204)" stroke-width="1" opacity="1" d="M 182.5 147 L 183 149.5 L 182 149.5 L 182.5 147 Z " /><path fill="rgb(159,182,204)" stroke="rgb(159,182,204)" stroke-width="1" opacity="1" d="M 348.5 149 L 351 149.5 Q 348.9 152.8 348.5 149 Z " /><path fill="rgb(159,182,204)" stroke="rgb(159,182,204)" stroke-width="1" opacity="1" d="M 351.5 151 L 350.5 153 L 351.5 151 Z " /><path fill="rgb(159,182,204)" stroke="rgb(159,182,204)" stroke-width="1" opacity="1" d="M 352.5 153 Q 355.5 154.5 352.5 156 Q 349.5 154.5 352.5 153 Z " /><path fill="rgb(159,182,204)" stroke="rgb(159,182,204)" stroke-width="1" opacity="1" d="M 354.5 156 L 353.5 158 L 354.5 156 Z " /><path fill="rgb(159,182,204)" stroke="rgb(159,182,204)" stroke-width="1" opacity="1" d="M 97.5 157 L 98 171.5 L 97 171.5 L 97.5 157 Z " /><path fill="rgb(159,182,204)" stroke="rgb(159,182,204)" stroke-width="1" opacity="1" d="M 355.5 158 L 357 160.5 L 356 160.5 L 355.5 159 L 354 159.5 L 355.5 158 Z " /><path fill="rgb(159,182,204)" stroke="rgb(159,182,204)" stroke-width="1" opacity="1" d="M 354.5 161 L 355.5 163 L 354.5 161 Z " /><path fill="rgb(159,182,204)" stroke="rgb(159,182,204)" stroke-width="1" opacity="1" d="M 119.5 162 L 114.5 168 L 113 167.5 L 114 171.5 L 113 171.5 L 112 167.5 L 116.5 163 Q 118 165.5 119.5 162 Z " /><path fill="rgb(159,182,204)" stroke="rgb(159,182,204)" stroke-width="1" opacity="1" d="M 353.5 163 L 354.5 165 L 353.5 163 Z " /><path fill="rgb(159,182,204)" stroke="rgb(159,182,204)" stroke-width="1" opacity="1" d="M 350.5 170 L 351.5 172 L 350.5 170 Z " /><path fill="rgb(159,182,204)" stroke="rgb(159,182,204)" stroke-width="1" opacity="1" d="M 349.5 172 L 350.5 174 L 349.5 172 Z " /><path fill="rgb(159,182,204)" stroke="rgb(159,182,204)" stroke-width="1" opacity="1" d="M 97 173 L 99 173.5 L 98 174.5 L 97.5 189 L 97 173 Z " /><path fill="rgb(159,182,204)" stroke="rgb(159,182,204)" stroke-width="1" opacity="1" d="M 348.5 174 L 349.5 176 L 348.5 174 Z " /><path fill="rgb(159,182,204)" stroke="rgb(159,182,204)" stroke-width="1" opacity="1" d="M 289.5 176 L 288.5 178 L 289.5 176 Z " /><path fill="rgb(159,182,204)" stroke="rgb(159,182,204)" stroke-width="1" opacity="1" d="M 193.5 177 L 195.5 180 L 193.5 177 Z " /><path fill="rgb(159,182,204)" stroke="rgb(159,182,204)" stroke-width="1" opacity="1" d="M 346.5 178 L 347.5 180 L 346.5 178 Z " /><path fill="rgb(159,182,204)" stroke="rgb(159,182,204)" stroke-width="1" opacity="1" d="M 289.5 179 L 287.5 182 L 289.5 179 Z " /><path fill="rgb(159,182,204)" stroke="rgb(159,182,204)" stroke-width="1" opacity="1" d="M 340.5 180 L 343 181.5 L 341.5 181 L 340.5 180 Z " /><path fill="rgb(159,182,204)" stroke="rgb(159,182,204)" stroke-width="1" opacity="1" d="M 194.5 181 L 195.5 183 L 194.5 181 Z " /><path fill="rgb(159,182,204)" stroke="rgb(159,182,204)" stroke-width="1" opacity="1" d="M 285.5 181 L 281.5 186 Q 275.2 183.8 277 189.5 L 276 189.5 Q 275.3 185.8 277.5 185 Q 284.5 186 285.5 181 Z " /><path fill="rgb(159,182,204)" stroke="rgb(159,182,204)" stroke-width="1" opacity="1" d="M 338.5 181 L 339.5 183 L 338.5 181 Z " /><path fill="rgb(159,182,204)" stroke="rgb(159,182,204)" stroke-width="1" opacity="1" d="M 333.5 183 L 334.5 185 L 333.5 183 Z " /><path fill="rgb(159,182,204)" stroke="rgb(159,182,204)" stroke-width="1" opacity="1" d="M 109.5 184 L 111 188.5 L 110 188.5 L 109.5 184 Z " /><path fill="rgb(159,182,204)" stroke="rgb(159,182,204)" stroke-width="1" opacity="1" d="M 198.5 185 L 202.5 190 L 198.5 185 Z " /><path fill="rgb(159,182,204)" stroke="rgb(159,182,204)" stroke-width="1" opacity="1" d="M 327.5 185 L 330 186.5 L 328.5 186 L 327.5 185 Z " /><path fill="rgb(159,182,204)" stroke="rgb(159,182,204)" stroke-width="1" opacity="1" d="M 325.5 186 L 326.5 188 L 325.5 186 Z " /><path fill="rgb(159,182,204)" stroke="rgb(159,182,204)" stroke-width="1" opacity="1" d="M 204.5 188 L 205.5 190 L 204.5 188 Z " /><path fill="rgb(159,182,204)" stroke="rgb(159,182,204)" stroke-width="1" opacity="1" d="M 287.5 188 L 294 188.5 L 287.5 189 L 287.5 188 Z " /><path fill="rgb(159,182,204)" stroke="rgb(159,182,204)" stroke-width="1" opacity="1" d="M 108.5 189 L 109.5 191 Q 110.8 188.8 112 191.5 Q 110 195 108 190.5 L 108.5 189 Z " /><path fill="rgb(159,182,204)" stroke="rgb(159,182,204)" stroke-width="1" opacity="1" d="M 299.5 189 L 315 189.5 L 299.5 190 L 299.5 189 Z " /><path fill="rgb(159,182,204)" stroke="rgb(159,182,204)" stroke-width="1" opacity="1" d="M 97.5 190 L 98 204.5 L 97 204.5 L 97.5 190 Z " /><path fill="rgb(159,182,204)" stroke="rgb(159,182,204)" stroke-width="1" opacity="1" d="M 274.5 194 L 275.5 196 L 274.5 194 Z " /><path fill="rgb(159,182,204)" stroke="rgb(159,182,204)" stroke-width="1" opacity="1" d="M 117.5 196 L 122 200.5 L 121.5 203 L 117 198.5 L 117.5 196 Z " /><path fill="rgb(159,182,204)" stroke="rgb(159,182,204)" stroke-width="1" opacity="1" d="M 273.5 196 L 274.5 198 L 273.5 196 Z " /><path fill="rgb(159,182,204)" stroke="rgb(159,182,204)" stroke-width="1" opacity="1" d="M 272.5 198 L 273.5 200 L 272.5 198 Z " /><path fill="rgb(159,182,204)" stroke="rgb(159,182,204)" stroke-width="1" opacity="1" d="M 181.5 199 L 189 199.5 L 181.5 200 L 181.5 199 Z " /><path fill="rgb(159,182,204)" stroke="rgb(159,182,204)" stroke-width="1" opacity="1" d="M 191.5 200 L 194 201.5 L 192.5 201 L 191.5 200 Z " /><path fill="rgb(159,182,204)" stroke="rgb(159,182,204)" stroke-width="1" opacity="1" d="M 271.5 200 L 272.5 202 L 271.5 200 Z " /><path fill="rgb(159,182,204)" stroke="rgb(159,182,204)" stroke-width="1" opacity="1" d="M 170.5 201 L 174 202.5 L 172.5 203 L 170.5 201 Z " /><path fill="rgb(159,182,204)" stroke="rgb(159,182,204)" stroke-width="1" opacity="1" d="M 231.5 202 L 234 202.5 L 231.5 203 L 231.5 202 Z " /><path fill="rgb(159,182,204)" stroke="rgb(159,182,204)" stroke-width="1" opacity="1" d="M 132.5 204 L 138 204.5 L 132.5 205 L 132.5 204 Z " /><path fill="rgb(159,182,204)" stroke="rgb(159,182,204)" stroke-width="1" opacity="1" d="M 270.5 204 L 271 209.5 L 270 209.5 L 270.5 204 Z " /><path fill="rgb(159,182,204)" stroke="rgb(159,182,204)" stroke-width="1" opacity="1" d="M 125.5 205 L 130 205.5 L 125.5 206 L 125.5 205 Z " /><path fill="rgb(159,182,204)" stroke="rgb(159,182,204)" stroke-width="1" opacity="1" d="M 148.5 205 L 154 205.5 L 148.5 206 L 148.5 205 Z " /><path fill="rgb(159,182,204)" stroke="rgb(159,182,204)" stroke-width="1" opacity="1" d="M 141.5 206 L 146 206.5 L 141.5 207 L 141.5 206 Z " /><path fill="rgb(159,182,204)" stroke="rgb(159,182,204)" stroke-width="1" opacity="1" d="M 97.5 207 L 98 221.5 L 97 221.5 L 97.5 207 Z " /><path fill="rgb(159,182,204)" stroke="rgb(159,182,204)" stroke-width="1" opacity="1" d="M 200.5 211 L 199.5 213 L 200.5 211 Z " /><path fill="rgb(159,182,204)" stroke="rgb(159,182,204)" stroke-width="1" opacity="1" d="M 271.5 211 L 272 214.5 L 271 214.5 L 271.5 211 Z " /><path fill="rgb(159,182,204)" stroke="rgb(159,182,204)" stroke-width="1" opacity="1" d="M 202.5 216 L 203 217.5 L 201 218.5 L 202.5 216 Z " /><path fill="rgb(159,182,204)" stroke="rgb(159,182,204)" stroke-width="1" opacity="1" d="M 269.5 217 L 270 222.5 L 269 222.5 L 269.5 217 Z " /><path fill="rgb(159,182,204)" stroke="rgb(159,182,204)" stroke-width="1" opacity="1" d="M 203.5 219 L 204 220.5 L 202 221.5 L 203.5 219 Z " /><path fill="rgb(159,182,204)" stroke="rgb(159,182,204)" stroke-width="1" opacity="1" d="M 97 223 L 100 223.5 L 98 224 L 97.5 239 L 97 223 Z " /><path fill="rgb(159,182,204)" stroke="rgb(159,182,204)" stroke-width="1" opacity="1" d="M 270.5 224 L 271 226.5 L 270 226.5 L 270.5 224 Z " /><path fill="rgb(159,182,204)" stroke="rgb(159,182,204)" stroke-width="1" opacity="1" d="M 268.5 227 L 270 229.5 L 268 228.5 L 268.5 227 Z " /><path fill="rgb(159,182,204)" stroke="rgb(159,182,204)" stroke-width="1" opacity="1" d="M 267.5 231 L 269 233.5 L 268 233.5 L 267.5 231 Z " /><path fill="rgb(159,182,204)" stroke="rgb(159,182,204)" stroke-width="1" opacity="1" d="M 207.5 232 L 208 233.5 L 206 234.5 L 207.5 232 Z " /><path fill="rgb(159,182,204)" stroke="rgb(159,182,204)" stroke-width="1" opacity="1" d="M 208.5 235 L 209 236.5 L 207 237.5 L 208.5 235 Z " /><path fill="rgb(159,182,204)" stroke="rgb(159,182,204)" stroke-width="1" opacity="1" d="M 265.5 237 L 267 239.5 L 265 238.5 L 265.5 237 Z " /><path fill="rgb(159,182,204)" stroke="rgb(159,182,204)" stroke-width="1" opacity="1" d="M 97.5 240 L 98 254.5 L 97 254.5 L 97.5 240 Z " /><path fill="rgb(159,182,204)" stroke="rgb(159,182,204)" stroke-width="1" opacity="1" d="M 210.5 240 L 211.5 242 L 209 241.5 L 210.5 240 Z " /><path fill="rgb(159,182,204)" stroke="rgb(159,182,204)" stroke-width="1" opacity="1" d="M 264.5 240 L 266 242.5 L 264 241.5 L 264.5 240 Z " /><path fill="rgb(159,182,204)" stroke="rgb(159,182,204)" stroke-width="1" opacity="1" d="M 212.5 243 L 213.5 245 L 211 244.5 L 212.5 243 Z " /><path fill="rgb(159,182,204)" stroke="rgb(159,182,204)" stroke-width="1" opacity="1" d="M 214.5 246 L 215.5 248 L 213 247.5 L 214.5 246 Z " /><path fill="rgb(159,182,204)" stroke="rgb(159,182,204)" stroke-width="1" opacity="1" d="M 216.5 249 L 217.5 251 L 215 250.5 L 216.5 249 Z " /><path fill="rgb(159,182,204)" stroke="rgb(159,182,204)" stroke-width="1" opacity="1" d="M 261.5 250 L 263 252.5 L 261 251.5 L 261.5 250 Z " /><path fill="rgb(159,182,204)" stroke="rgb(159,182,204)" stroke-width="1" opacity="1" d="M 218.5 252 L 219.5 254 L 217 253.5 L 218.5 252 Z " /><path fill="rgb(159,182,204)" stroke="rgb(159,182,204)" stroke-width="1" opacity="1" d="M 260.5 253 Q 263.5 254.5 260.5 256 Q 257.5 254.5 260.5 253 Z " /><path fill="rgb(159,182,204)" stroke="rgb(159,182,204)" stroke-width="1" opacity="1" d="M 220.5 255 L 221.5 257 L 219 256.5 L 220.5 255 Z " /><path fill="rgb(159,182,204)" stroke="rgb(159,182,204)" stroke-width="1" opacity="1" d="M 256.5 256 L 257 258.5 L 254.5 261 L 253 259.5 L 256.5 256 Z " /><path fill="rgb(159,182,204)" stroke="rgb(159,182,204)" stroke-width="1" opacity="1" d="M 97.5 257 L 98 271.5 L 97 271.5 L 97.5 257 Z " /><path fill="rgb(159,182,204)" stroke="rgb(159,182,204)" stroke-width="1" opacity="1" d="M 222.5 258 L 221.5 260 L 222.5 258 Z " /><path fill="rgb(159,182,204)" stroke="rgb(159,182,204)" stroke-width="1" opacity="1" d="M 225.5 261 L 227 261.5 L 224.5 263 L 225.5 261 Z " /><path fill="rgb(159,182,204)" stroke="rgb(159,182,204)" stroke-width="1" opacity="1" d="M 228.5 262 L 230 262.5 L 227.5 264 L 228.5 262 Z " /><path fill="rgb(159,182,204)" stroke="rgb(159,182,204)" stroke-width="1" opacity="1" d="M 249.5 262 L 250 264.5 L 248.5 266 Q 245 264 249.5 262 Z " /><path fill="rgb(159,182,204)" stroke="rgb(159,182,204)" stroke-width="1" opacity="1" d="M 97.5 273 L 98 279.5 L 97 279.5 L 97.5 273 Z " /><path fill="rgb(159,182,204)" stroke="rgb(159,182,204)" stroke-width="1" opacity="1" d="M 144.5 277 L 145 279.5 L 144 279.5 L 144.5 277 Z " /><path fill="rgb(159,182,204)" stroke="rgb(159,182,204)" stroke-width="1" opacity="1" d="M 312.5 277 L 313 279.5 L 312 279.5 L 312.5 277 Z " /><path fill="rgb(159,182,204)" stroke="rgb(159,182,204)" stroke-width="1" opacity="1" d="M 111.5 278 Q 113.8 277.3 113 279.5 L 111.5 278 Z " /><path fill="rgb(159,182,204)" stroke="rgb(159,182,204)" stroke-width="1" opacity="1" d="M 161.5 278 Q 163.8 277.3 163 279.5 L 161.5 278 Z " /><path fill="rgb(159,182,204)" stroke="rgb(159,182,204)" stroke-width="1" opacity="1" d="M 194 278 L 196 278.5 L 194 279.5 L 194 278 Z " /><path fill="rgb(159,182,204)" stroke="rgb(159,182,204)" stroke-width="1" opacity="1" d="M 211.5 278 Q 213.8 277.3 213 279.5 L 211.5 278 Z " /><path fill="rgb(159,182,204)" stroke="rgb(159,182,204)" stroke-width="1" opacity="1" d="M 244 278 L 246 278.5 L 244 279.5 L 244 278 Z " /><path fill="rgb(159,182,204)" stroke="rgb(159,182,204)" stroke-width="1" opacity="1" d="M 261.5 278 Q 263.8 277.3 263 279.5 L 261.5 278 Z " /><path fill="rgb(159,182,204)" stroke="rgb(159,182,204)" stroke-width="1" opacity="1" d="M 294 278 L 296 278.5 L 294 279.5 L 294 278 Z " /><path fill="rgb(159,182,204)" stroke="rgb(159,182,204)" stroke-width="1" opacity="1" d="M 344 278 L 346 278.5 L 344 279.5 L 344 278 Z " /><path fill="rgb(159,182,204)" stroke="rgb(159,182,204)" stroke-width="1" opacity="1" d="M 361.5 278 Q 363.8 277.3 363 279.5 L 361.5 278 Z " /><path fill="rgb(159,182,204)" stroke="rgb(159,182,204)" stroke-width="1" opacity="1" d="M 148.5 285 L 146.5 288 L 148.5 285 Z " /><path fill="rgb(159,182,204)" stroke="rgb(159,182,204)" stroke-width="1" opacity="1" d="M 227.5 285 L 226.5 287 L 227.5 285 Z " /><path fill="rgb(159,182,204)" stroke="rgb(159,182,204)" stroke-width="1" opacity="1" d="M 229.5 285 L 230.5 287 L 229.5 285 Z " /><path fill="rgb(159,182,204)" stroke="rgb(159,182,204)" stroke-width="1" opacity="1" d="M 311.5 288 L 312 292.5 L 311 292.5 L 311.5 288 Z " /><path fill="rgb(236,236,237)" stroke="rgb(236,236,237)" stroke-width="1" opacity="1" d="M 257.5 33 L 247.5 44 L 257.5 33 Z " /><path fill="rgb(236,236,237)" stroke="rgb(236,236,237)" stroke-width="1" opacity="1" d="M 146.5 38 L 154 38.5 L 146.5 39 L 146.5 38 Z " /><path fill="rgb(236,236,237)" stroke="rgb(236,236,237)" stroke-width="1" opacity="1" d="M 236.5 54 L 234.5 57 L 236.5 54 Z " /><path fill="rgb(236,236,237)" stroke="rgb(236,236,237)" stroke-width="1" opacity="1" d="M 89.5 55 L 90 59.5 L 89 59.5 L 89.5 55 Z " /><path fill="rgb(236,236,237)" stroke="rgb(236,236,237)" stroke-width="1" opacity="1" d="M 206.5 58 L 207 60.5 L 206 60.5 L 206.5 58 Z " /><path fill="rgb(236,236,237)" stroke="rgb(236,236,237)" stroke-width="1" opacity="1" d="M 211.5 63 L 214 63.5 L 211.5 64 L 211.5 63 Z " /><path fill="rgb(236,236,237)" stroke="rgb(236,236,237)" stroke-width="1" opacity="1" d="M 228.5 63 L 226.5 66 L 228.5 63 Z " /><path fill="rgb(236,236,237)" stroke="rgb(236,236,237)" stroke-width="1" opacity="1" d="M 220.5 64 L 223 64.5 L 220.5 65 L 220.5 64 Z " /><path fill="rgb(236,236,237)" stroke="rgb(236,236,237)" stroke-width="1" opacity="1" d="M 91.5 135 L 92.5 137 L 91.5 135 Z " /><path fill="rgb(236,236,237)" stroke="rgb(236,236,237)" stroke-width="1" opacity="1" d="M 98.5 138 Q 101.8 136.9 101 139.5 L 99.5 139 L 98.5 138 Z " /><path fill="rgb(236,236,237)" stroke="rgb(236,236,237)" stroke-width="1" opacity="1" d="M 123.5 155 L 120.5 159 L 123.5 155 Z " /><path fill="rgb(236,236,237)" stroke="rgb(236,236,237)" stroke-width="1" opacity="1" d="M 316.5 189 L 323 189.5 L 316.5 190 L 316.5 189 Z " /><path fill="rgb(236,236,237)" stroke="rgb(236,236,237)" stroke-width="1" opacity="1" d="M 284.5 190 L 288 190.5 L 284.5 191 L 284.5 190 Z " /><path fill="rgb(236,236,237)" stroke="rgb(236,236,237)" stroke-width="1" opacity="1" d="M 112.5 194 L 113.5 196 L 112.5 194 Z " /><path fill="rgb(236,236,237)" stroke="rgb(236,236,237)" stroke-width="1" opacity="1" d="M 179.5 201 L 183 201.5 L 179.5 202 L 179.5 201 Z " /><path fill="rgb(236,236,237)" stroke="rgb(236,236,237)" stroke-width="1" opacity="1" d="M 122.5 203 L 124.5 206 L 122.5 203 Z " /><path fill="rgb(236,236,237)" stroke="rgb(236,236,237)" stroke-width="1" opacity="1" d="M 137.5 206 L 141 206.5 L 137.5 207 L 137.5 206 Z " /><path fill="rgb(236,236,237)" stroke="rgb(236,236,237)" stroke-width="1" opacity="1" d="M 89.5 222 L 90 226.5 L 89 226.5 L 89.5 222 Z " /><path fill="rgb(236,236,237)" stroke="rgb(236,236,237)" stroke-width="1" opacity="1" d="M 82.5 223 L 87 223.5 L 82.5 224 L 82.5 223 Z " /><path fill="rgb(236,236,237)" stroke="rgb(236,236,237)" stroke-width="1" opacity="1" d="M 259.5 256 L 258.5 258 L 259.5 256 Z " /><path fill="rgb(236,236,237)" stroke="rgb(236,236,237)" stroke-width="1" opacity="1" d="M 222.5 261 L 223.5 263 L 222.5 261 Z " /><path fill="rgb(236,236,237)" stroke="rgb(236,236,237)" stroke-width="1" opacity="1" d="M 253.5 261 L 252.5 263 L 253.5 261 Z " /><path fill="rgb(236,236,237)" stroke="rgb(236,236,237)" stroke-width="1" opacity="1" d="M 311.5 285 L 310.5 287 L 311.5 285 Z " /><path fill="rgb(236,236,237)" stroke="rgb(236,236,237)" stroke-width="1" opacity="1" d="M 140.5 289 L 145 289.5 L 139.5 291 L 140.5 289 Z " /><path fill="rgb(255,255,255)" stroke="rgb(255,255,255)" stroke-width="1" opacity="1" d="M 0 0 L 450 0 L 450 306 L 0 306 L 0 0 Z M 96 11 L 96 281 L 369 281 L 369 11 L 96 11 Z M 91 52 L 88 53 L 89 56 Q 87 61 91 60 L 91 52 Z M 88 135 L 87 142 L 91 144 Q 94 143 93 137 Q 92 134 88 135 Z M 91 219 L 88 220 L 89 223 Q 87 228 91 227 L 91 219 Z M 83 223 L 81 225 L 87 225 Q 88 221 83 223 Z M 149 285 L 146 286 Q 145 289 148 288 L 148 293 L 150 293 L 150 286 L 149 285 Z M 228 285 L 226 289 L 226 291 Q 225 294 228 293 L 230 293 Q 232 293 231 287 L 228 285 Z M 312 285 L 310 287 L 311 289 Q 309 294 313 293 L 313 286 L 312 285 Z M 141 289 L 139 291 L 145 291 Q 146 287 141 289 Z " /><path fill="rgb(255,255,255)" stroke="rgb(255,255,255)" stroke-width="1" opacity="1" d="M 98 13 L 367 13 L 367 280 L 363 280 Q 364 277 361 278 L 360.5 280 L 346 280 Q 347 277 344 278 L 343.5 280 L 329 280 L 328.5 278 L 328 280 L 313.5 280 L 313 277 L 311 277 L 310.5 280 L 296 280 Q 297 277 294 278 L 293.5 280 L 279 280 L 278.5 278 L 278 280 L 263.5 280 Q 264.1 277.3 261 278 L 260.5 280 L 246 280 Q 247 277 244 278 L 243.5 280 L 229 280 L 228.5 277 L 228 280 L 213.5 280 Q 214.1 277.3 211 278 L 210.5 280 L 196 280 Q 197 277 194 278 L 193.5 280 L 180 280 Q 181 277 178 278 L 177.5 280 L 163 280 Q 164 277 161 278 L 160.5 280 L 146 280 Q 147.3 275.9 144 277 L 143.5 280 L 130 280 Q 131 277 128 278 L 127.5 280 L 113 280 Q 114 277 111 278 L 110.5 280 L 98 280 L 99 272.5 L 98 271.5 L 98 257.5 L 99 255.5 L 98 254.5 L 98 240.5 L 99 238.5 L 98 237.5 L 98 224 Q 102.1 225.3 101 222 L 98 221.5 L 98 207.5 L 99 205.5 L 98 204.5 L 98 190.5 L 99 188.5 L 98 187.5 L 98 174.5 L 99 172.5 L 98 171.5 L 98 157.5 L 99 155.5 L 98 154.5 L 98 140 Q 102.1 141.3 101 138 L 98 137.5 L 98 124.5 L 99 122.5 L 98 121.5 L 98 107.5 L 99 105.5 L 98 104.5 L 98 90.5 L 99 88.5 L 98 87.5 L 98 74.5 L 99 72.5 L 98 71.5 L 98 57 Q 102.1 58.3 101 55 L 98 54.5 L 98 40.5 L 98 38.5 L 98 24.5 L 99 22.5 L 98 21.5 L 98 13 Z M 283 23 L 258 33 Q 240 48 226 67 L 223 64 Q 218 64 218 67 Q 215 68 216 64 L 214 63 L 211 64 Q 206 62 206 56 Q 200 57 198 54 L 196 51 Q 194 46 187 47 L 185 43 L 181 44 L 173 39 L 155 39 L 154 38 L 146 38 L 134 56 L 138 84 L 159 122 L 153 132 L 134 145 L 112 168 L 108 191 L 125 206 L 137 206 L 138 207 L 157 207 L 176 202 L 193 201 L 200 215 L 207 239 L 222 262 L 243 269 L 247 268 L 259 258 L 263 254 L 271 228 L 272 206 L 277 192 L 289 190 L 323 190 L 348 180 L 357 161 L 345 140 L 321 124 L 300 116 L 293 107 L 300 86 L 306 62 L 306 56 L 302 33 L 283 23 Z " /><path fill="rgb(255,255,255)" stroke="rgb(255,255,255)" stroke-width="1" opacity="1" d="M 89 137 Q 92.7 135.8 91 141 Q 87.3 142.2 89 137 Z " /><path fill="rgb(255,255,255)" stroke="rgb(255,255,255)" stroke-width="1" opacity="1" d="M 228.5 287 L 229 291.5 L 228 291.5 L 227 288.5 L 228.5 287 Z " /><path fill="rgb(159,182,205)" stroke="rgb(159,182,205)" stroke-width="1" opacity="1" d="M 283.5 25 L 300 35.5 L 304 61.5 L 297 88.5 L 290.5 106 L 282.5 97 Q 273.8 88.4 261 85 L 255.5 77 Q 246.2 67.3 228 66.5 L 259.5 34 L 283.5 25 Z " /><path fill="rgb(159,182,205)" stroke="rgb(159,182,205)" stroke-width="1" opacity="1" d="M 147 40 L 151.5 41 L 171.5 41 L 179 45 Q 178.6 51.2 174 54.5 L 174 62.5 L 177.5 67 L 179 67.5 L 179 74.5 Q 180.4 80.6 185.5 83 L 195 86.5 L 190 96.5 L 189 108.5 Q 191.5 110 188 111.5 L 182 125.5 L 180 136.5 L 180 148.5 Q 184.6 175.9 202.5 190 Q 211.3 197.2 223.5 201 L 231.5 203 L 250.5 203 Q 265.1 200.6 274.5 193 L 274 194.5 L 270 204.5 L 270 216.5 L 269 217.5 L 268 230.5 L 261 252.5 L 257.5 256 L 244.5 267 L 242.5 267 L 223 259.5 L 209 237.5 L 202 213.5 L 195 199 L 181.5 199 L 156.5 205 L 138.5 205 L 137.5 204 L 125.5 204 L 110 189.5 L 114 168.5 L 135.5 146 L 155 132.5 L 161 121.5 L 140 82.5 L 136 56.5 L 147 40 Z " /><path fill="rgb(159,182,205)" stroke="rgb(159,182,205)" stroke-width="1" opacity="1" d="M 246.5 44 L 245.5 46 L 246.5 44 Z " /><path fill="rgb(159,182,205)" stroke="rgb(159,182,205)" stroke-width="1" opacity="1" d="M 178.5 52 L 182 53 L 180 65 L 177 63.5 L 176 55.5 L 178.5 52 Z " /><path fill="rgb(159,182,205)" stroke="rgb(159,182,205)" stroke-width="1" opacity="1" d="M 186.5 53 L 185.5 55 L 186.5 53 Z " /><path fill="rgb(159,182,205)" stroke="rgb(159,182,205)" stroke-width="1" opacity="1" d="M 196 57 L 199 58.5 L 200 62 L 202 62.5 L 196.5 66 L 193 66 L 196 57 Z " /><path fill="rgb(159,182,205)" stroke="rgb(159,182,205)" stroke-width="1" opacity="1" d="M 183.5 62 L 191 63 Q 192.1 65.7 189.5 65 Q 188 68.5 181.5 67 L 182 65.5 L 183.5 62 Z " /><path fill="rgb(159,182,205)" stroke="rgb(159,182,205)" stroke-width="1" opacity="1" d="M 201.5 65 Q 206.9 63.1 206 66.5 L 207 71.5 L 202.5 74 L 197 70.5 Q 195.5 66.1 198.5 67 L 201.5 65 Z " /><path fill="rgb(159,182,205)" stroke="rgb(159,182,205)" stroke-width="1" opacity="1" d="M 190.5 67 L 190 68.5 L 192 83 Q 184.9 82.6 182 76.5 L 181 69 Q 187.7 70.4 190.5 67 Z " /><path fill="rgb(159,182,205)" stroke="rgb(159,182,205)" stroke-width="1" opacity="1" d="M 230.5 69 L 244.5 72 L 256 80.5 L 258 83.5 L 256.5 83 L 238 81 Q 237.5 74.4 232.5 71 L 230.5 69 Z " /><path fill="rgb(159,182,205)" stroke="rgb(159,182,205)" stroke-width="1" opacity="1" d="M 218.5 70 L 223.5 71 L 226.5 70 L 234 75.5 L 236 82 Q 228.4 81.1 223.5 84 L 219.5 82 L 217.5 83 L 218 81.5 L 218.5 70 Z " /><path fill="rgb(159,182,205)" stroke="rgb(159,182,205)" stroke-width="1" opacity="1" d="M 213.5 72 L 216 72.5 L 216 81 L 208 78 L 209.5 74 L 213.5 72 Z " /><path fill="rgb(159,182,205)" stroke="rgb(159,182,205)" stroke-width="1" opacity="1" d="M 195.5 73 L 201 75 Q 202 81.4 196.5 83 L 194 81.5 L 193 74 L 195.5 73 Z " /><path fill="rgb(159,182,205)" stroke="rgb(159,182,205)" stroke-width="1" opacity="1" d="M 205.5 80 L 208.5 80 L 214 83.5 Q 211.2 88.9 203 88 Q 201.5 81.7 205.5 80 Z " /><path fill="rgb(159,182,205)" stroke="rgb(159,182,205)" stroke-width="1" opacity="1" d="M 239 83 L 252.5 84 L 261 87.5 Q 266.9 95.6 266 110.5 Q 263 126.5 252.5 135 L 244.5 140 L 241 139 L 231 111.5 L 231 108.5 L 232 104.5 Q 228.2 102.8 231.5 101 L 235 98.5 Q 240.3 93.5 239 83 Z " /><path fill="rgb(159,182,205)" stroke="rgb(159,182,205)" stroke-width="1" opacity="1" d="M 199.5 84 Q 202.5 83.2 201 87 L 198 85.5 L 199.5 84 Z " /><path fill="rgb(159,182,205)" stroke="rgb(159,182,205)" stroke-width="1" opacity="1" d="M 230.5 84 Q 240.3 80.8 237 90.5 L 230.5 100 L 227.5 101 Q 223.5 96.5 223 88.5 L 224 86 L 230.5 84 Z " /><path fill="rgb(159,182,205)" stroke="rgb(159,182,205)" stroke-width="1" opacity="1" d="M 215.5 85 Q 218.1 84.3 217 87 L 213.5 88 L 215.5 85 Z " /><path fill="rgb(159,182,205)" stroke="rgb(159,182,205)" stroke-width="1" opacity="1" d="M 196.5 87 L 202 91.5 L 203 94.5 L 191.5 107 L 191 105.5 Q 193.8 103.8 192 97.5 L 196.5 87 Z " /><path fill="rgb(159,182,205)" stroke="rgb(159,182,205)" stroke-width="1" opacity="1" d="M 211.5 88 L 210.5 90 L 204 93 Q 202.2 88.1 208.5 90 L 211.5 88 Z " /><path fill="rgb(159,182,205)" stroke="rgb(159,182,205)" stroke-width="1" opacity="1" d="M 264.5 88 Q 276.9 93.1 285 102.5 Q 293.8 111.7 298 125.5 L 300 134.5 L 300 150.5 Q 295.8 172.8 281.5 185 Q 277 184 276 186.5 Q 276.8 191.3 273.5 192 Q 265.5 197.5 254.5 200 L 249.5 201 L 232.5 201 Q 208.7 196.3 196 180.5 Q 188.9 172.6 185 161.5 L 182 146.5 L 182 138.5 L 183 137.5 L 184 126.5 L 189.5 114 Q 193.7 129.8 205.5 138 Q 211.9 143.1 221.5 145 L 236.5 145 Q 238 142.5 239.5 146 Q 244.3 146.8 245 143.5 Q 243.9 140.2 246.5 141 L 258 132.5 Q 264.2 125.7 267 115.5 L 268 101.5 L 264.5 88 Z " /><path fill="rgb(159,182,205)" stroke="rgb(159,182,205)" stroke-width="1" opacity="1" d="M 215.5 89 L 221 90 L 225 103 Q 212.3 104.7 207 97.5 L 206 95.5 L 215.5 89 Z " /><path fill="rgb(159,182,205)" stroke="rgb(159,182,205)" stroke-width="1" opacity="1" d="M 203.5 97 Q 205.8 96.3 205 98.5 Q 210.5 106.9 225 105 L 225 107.5 L 230 114.5 L 239 139.5 L 238 142 L 235.5 143 L 221.5 143 Q 205.9 139.2 198 127.5 Q 192.5 121 192 109.5 L 203.5 97 Z " /><path fill="rgb(159,182,205)" stroke="rgb(159,182,205)" stroke-width="1" opacity="1" d="M 295.5 114 L 297 117 L 321.5 127 L 344 141.5 L 355 160.5 L 345.5 179 L 321.5 188 L 287.5 188 L 283 189 L 283 186.5 Q 293 178.5 298 165.5 L 302 151.5 L 302 133.5 L 299 121.5 L 295.5 114 Z " /><path fill="rgb(159,182,205)" stroke="rgb(159,182,205)" stroke-width="1" opacity="1" d="M 278.5 191 L 281 191.5 L 278.5 192 L 278.5 191 Z " /><path fill="rgb(159,182,205)" stroke="rgb(159,182,205)" stroke-width="1" opacity="1" d="M 149.5 286 L 150 292.5 L 149 292.5 L 149.5 286 Z " /></svg>